<svg width="331" height="75" viewBox="0 0 331 75" fill="none" xmlns="http://www.w3.org/2000/svg">
<path d="M47 12L52.6129 29.2746H70.7764L56.0818 39.9508L61.6946 57.2254L47 46.5491L32.3054 57.2254L37.9182 39.9508L23.2236 29.2746H41.3871L47 12Z" fill="#FFD643"/>
<path d="M103 12L108.613 29.2746H126.776L112.082 39.9508L117.695 57.2254L103 46.5491L88.3054 57.2254L93.9182 39.9508L79.2236 29.2746H97.3871L103 12Z" fill="#FFD643"/>
<path d="M163 12L168.613 29.2746H186.776L172.082 39.9508L177.695 57.2254L163 46.5491L148.305 57.2254L153.918 39.9508L139.224 29.2746H157.387L163 12Z" fill="#FFD643"/>
<path d="M225 12L230.613 29.2746H248.776L234.082 39.9508L239.695 57.2254L225 46.5491L210.305 57.2254L215.918 39.9508L201.224 29.2746H219.387L225 12Z" fill="#FFD643"/>
<path d="M286 12L291.613 29.2746H309.776L295.082 39.9508L300.695 57.2254L286 46.5491L271.305 57.2254L276.918 39.9508L262.224 29.2746H280.387L286 12Z" fill="#C4C4C4"/>
</svg>
