<svg id="Layer_17" data-name="Layer 17" xmlns="http://www.w3.org/2000/svg" xmlns:xlink="http://www.w3.org/1999/xlink" viewBox="0 0 600 600"><defs><style>.cls-1{fill:url(#linear-gradient);}.cls-2,.cls-5{fill:none;}.cls-3{fill:#0068c3;}.cls-4{fill:#a8c5ff;}.cls-5{stroke:#00a2aa;stroke-miterlimit:10;stroke-width:7px;}</style><linearGradient id="linear-gradient" x1="573.77" y1="87.82" x2="575.04" y2="87.82" gradientUnits="userSpaceOnUse"><stop offset="0.31" stop-color="#ffa555"/><stop offset="0.61" stop-color="#f15a24"/><stop offset="0.99" stop-color="#c1272d"/></linearGradient></defs><title>logo_news</title><path class="cls-1" d="M575,87.85c-.42,0-.85-.06-1.27-.07H575Z" transform="translate(-290.33 -87.31)"/><path class="cls-2" d="M890.33,87.78,736.71,681.05H586.22L536,487.45q5.58-.56,11-1.31l47.64,183.45H726.5L872.57,105.5H760.35L736,217.24a175.25,175.25,0,0,0-6.69-27.68L751.49,87.78Z" transform="translate(-290.33 -87.31)"/><path class="cls-2" d="M609.77,271a132.82,132.82,0,0,1-2.62,27.3L590.77,224.4C606.84,236.23,609.77,254.37,609.77,271Z" transform="translate(-290.33 -87.31)"/><path class="cls-2" d="M695.25,405c-10.12,48-19.17,94.37-30.84,143.9h-3c-7.65-32.46-14-63.55-20.32-94.65q6.55-4,12.7-8.4c.32,1.51.62,3,.93,4.52,3,14.5,6,29.23,9.13,44.17,4.2-19.42,8.15-38.54,12-57.29q1.29-6.25,2.6-12.57A185.58,185.58,0,0,0,695.25,405Z" transform="translate(-290.33 -87.31)"/><path class="cls-3" d="M872.57,105.5,726.5,669.59H594.63L547,486.14c35.61-4.89,67.37-15.63,94.12-31.86,6.35,31.1,12.67,62.19,20.32,94.65h3c11.67-49.53,20.72-95.86,30.84-143.9a201.06,201.06,0,0,0,24.35-43.55c12.73-31.1,19.19-67.45,19.19-108.06A227.68,227.68,0,0,0,736,217.24L760.35,105.5Z" transform="translate(-290.33 -87.31)"/><path class="cls-3" d="M607.15,298.33c-8.74,41.91-39.49,64.14-91.73,66.24l-24.65-94.95L483,239.75,448.15,105.5H564.42l22.22,100.25,4.13,18.65Z" transform="translate(-290.33 -87.31)"/><path class="cls-2" d="M622.3,271a157.15,157.15,0,0,1-1.59,22.9l-16.93-76.4C616,229.64,622.3,247.3,622.3,271Z" transform="translate(-290.33 -87.31)"/><path class="cls-2" d="M612.64,323.09c-14.94,34.21-46.89,53.16-93.47,55.9l-3.75-14.42c52.24-2.1,83-24.33,91.73-66.24Z" transform="translate(-290.33 -87.31)"/><path class="cls-2" d="M738.79,253.42c0,40.61-6.46,77-19.19,108.06A201.06,201.06,0,0,1,695.25,405c2.56-12.14,5.19-24.38,8-36.82l.65-3c13.31-28,21.22-61.9,22.27-102.39L736,217.24A227.68,227.68,0,0,1,738.79,253.42Z" transform="translate(-290.33 -87.31)"/><path class="cls-2" d="M547,486.14q-5.46.75-11,1.31l-3.71-14.27c3.71-.34,7.41-.75,11.07-1.22Z" transform="translate(-290.33 -87.31)"/><path class="cls-2" d="M653.81,445.88q-6.15,4.42-12.7,8.4-1.49-7.32-3-14.65,6.51-4.1,12.64-8.74Q652.29,438.44,653.81,445.88Z" transform="translate(-290.33 -87.31)"/><path class="cls-2" d="M641.11,454.28c-26.75,16.23-58.51,27-94.12,31.86L543.31,472c35-4.51,67.35-15,94.8-32.33Q639.63,447,641.11,454.28Z" transform="translate(-290.33 -87.31)"/><path class="cls-2" d="M703.85,365.22l-.65,3c-2.76,12.44-5.39,24.68-8,36.82a185.58,185.58,0,0,1-16.76,19.68q2.78-13.38,5.65-27A181.51,181.51,0,0,0,703.85,365.22Z" transform="translate(-290.33 -87.31)"/><path class="cls-2" d="M726.12,262.83c.09-3.1.13-6.23.13-9.41a205.86,205.86,0,0,0-3-35.93l6.08-27.93A175.25,175.25,0,0,1,736,217.24Z" transform="translate(-290.33 -87.31)"/><path class="cls-2" d="M729.35,189.56l-6.08,27.93c-13.4-75.83-70.75-109.44-144.94-114.82L575,87.85c45.18,2.61,81.86,14.86,109.23,36.5C705.44,141.1,720.5,162.91,729.35,189.56Z" transform="translate(-290.33 -87.31)"/><path class="cls-2" d="M684.14,397.66q-2.88,13.66-5.65,27Q673,430.34,667,435.48q-6.35,5.47-13.22,10.4-1.51-7.45-3.06-15A173.37,173.37,0,0,0,684.14,397.66Z" transform="translate(-290.33 -87.31)"/><path class="cls-2" d="M532.24,473.18,536,487.45a346.39,346.39,0,0,1-34.85,1.72H453.53L419.29,687.31h-129l103.25-600H556.19q9,0,17.58.47H432.17l3.67,14.12h-32L305.62,672.72H409l34.24-198.14H501.1C511.64,474.58,522,474.12,532.24,473.18Z" transform="translate(-290.33 -87.31)"/><path class="cls-2" d="M519.17,379q-5.5.33-11.29.34l-3.79-14.59h3c2.84,0,5.63-.05,8.35-.17Z" transform="translate(-290.33 -87.31)"/><path class="cls-2" d="M507.88,379.33H459.56l19-113,7.76,29.87-11.51,68.51h29.3Z" transform="translate(-290.33 -87.31)"/><path class="cls-2" d="M620.71,293.93a112.86,112.86,0,0,1-8.07,29.16l-5.49-24.76a132.82,132.82,0,0,0,2.62-27.3c0-16.66-2.93-34.8-19-46.63l-4.13-18.65a60,60,0,0,1,17.14,11.78Z" transform="translate(-290.33 -87.31)"/><polygon class="cls-2" points="200.44 182.31 195.97 208.92 188.21 179.05 192.68 152.44 200.44 182.31"/><path class="cls-2" d="M515.42,364.57c-2.72.12-5.51.17-8.35.17h-3L486.3,296.23l4.47-26.61Z" transform="translate(-290.33 -87.31)"/><path class="cls-2" d="M578.33,102.67q-10.85-.77-22.14-.77H435.84l-3.67-14.12h141.6c.42,0,.85,0,1.27.07Z" transform="translate(-290.33 -87.31)"/><path class="cls-3" d="M726.25,253.42c0,3.18,0,6.31-.13,9.41-1,40.49-9,74.41-22.27,102.39a181.51,181.51,0,0,1-19.71,32.44,173.37,173.37,0,0,1-33.39,33.23q-6.12,4.64-12.64,8.74c-27.45,17.37-59.8,27.82-94.8,32.33-3.66.47-7.36.88-11.07,1.22-10.2.94-20.6,1.4-31.14,1.4H443.27L409,672.72H305.62L403.85,101.9h32l42.7,164.46-19,113h48.32q5.79,0,11.29-.34c46.58-2.74,78.53-21.69,93.47-55.9a112.86,112.86,0,0,0,8.07-29.16A157.15,157.15,0,0,0,622.3,271c0-23.73-6.31-41.39-18.52-53.5L578.33,102.67c74.19,5.38,131.54,39,144.94,114.82A205.86,205.86,0,0,1,726.25,253.42Z" transform="translate(-290.33 -87.31)"/><path class="cls-2" d="M603.78,217.53a60,60,0,0,0-17.14-11.78L564.42,105.5H448.15L483,239.75l-4.47,26.61L435.84,101.9H556.19q11.28,0,22.14.77Z" transform="translate(-290.33 -87.31)"/><path class="cls-4" d="M556.31,619.58q6.39-13.8,12.46-40.16,4.26-19.2,10-26.55t13.37-7.35q6.23,0,6.23,6.06,0,3.48-1.56,4.93t-6.42,2a14.38,14.38,0,0,0-8.74,4.57q-3.87,4-7.14,16.5l-5.55,21.47a128.5,128.5,0,0,1-6.68,19.46A108.8,108.8,0,0,1,556,632.85c-1.68,2.67-2.76,4.15-3.27,4.45a11.4,11.4,0,0,1-3.8.71l-8.22.84c-1.92.08-3-.24-3.15-1s-.43-3.5-.76-8.31-.7-8.41-1.11-10.8-1.87-8.88-4.41-19.5a210.19,210.19,0,0,1-5.09-32.16q-.54.25-6.35,18.27t-8,24.11a85.92,85.92,0,0,1-6,13,37.89,37.89,0,0,1-10,11.63,22.94,22.94,0,0,1-14.46,4.71q-7.31,0-11.76-3.9t-4.45-7.25c0-1.38,1.79-3.47,5.36-6.29s6.1-4.22,7.57-4.22,2.63,1.52,3,4.54,1.31,5.3,2.7,6.8a6.57,6.57,0,0,0,5,2.26q11.34,0,22.3-36.61l2.28-7.8q6.48-21.14,10.35-30.61l2.44-6.06a5.07,5.07,0,0,1,1.64-2.45,13.89,13.89,0,0,1,4-.84l8-.9a20.39,20.39,0,0,1,2.66-.26,2.71,2.71,0,0,1,2.22.71,4.88,4.88,0,0,1,.53,2.71q0,14,5,37.57T556.31,619.58Z" transform="translate(-290.33 -87.31)"/><path class="cls-4" d="M640,623.12A92.75,92.75,0,0,1,622.66,635a37.36,37.36,0,0,1-16.95,3.84q-10.35,0-16.7-5.61t-6.35-14.76q0-13.66,11.18-24.72t24.79-11q7.08,0,11.33,3.09a9.58,9.58,0,0,1,4.26,8.12q0,13.35-33.46,21.66,3,12.57,15.9,12.57a21.18,21.18,0,0,0,9.58-2.29q4.56-2.29,13.76-10.15ZM600.15,611.2q19.47-4.65,19.47-17.15c0-4.12-1.77-6.19-5.32-6.19q-5,0-9.58,6.48T600.15,611.2Z" transform="translate(-290.33 -87.31)"/><path class="cls-4" d="M745.48,623.12a25.28,25.28,0,0,1-7.3,3.67,20.91,20.91,0,0,1-5.63,1.1,19.14,19.14,0,0,1-10.87-3.61q-13.84,14.57-28.52,14.57-10.8,0-15.44-10.06-10.19,10.07-22,10.06-7.68,0-12.09-4.29t-4.41-11.83a53.63,53.63,0,0,1,2.7-16.5,194.32,194.32,0,0,1,8.25-20.49l20-3.16L664.62,597q-7.15,18.69-7.13,25.78a7.92,7.92,0,0,0,1.91,5.48,6.13,6.13,0,0,0,4.79,2.13q6.07,0,12.16-8a56.78,56.78,0,0,1,4.34-21l6.23-15.59,20.37-3.16-8.52,22.3q-4.11,10.75-4.11,17a8.85,8.85,0,0,0,2,6.06,6.63,6.63,0,0,0,5.25,2.26,13,13,0,0,0,7.61-2.51,48.42,48.42,0,0,0,8.07-7.61,23.55,23.55,0,0,1-4-13,27.41,27.41,0,0,1,5.7-17.12q5.71-7.44,12.86-7.44c3.29,0,4.94,2.1,4.94,6.32q0,13.59-12.4,30.8a12.74,12.74,0,0,0,8.06,3q5.1,0,12.78-7Z" transform="translate(-290.33 -87.31)"/><path class="cls-4" d="M768.83,585.35q5.25-1.15,10.57-1.9t6.39-.74c.5,0,.76.17.76.51a4,4,0,0,1-.61,2,15,15,0,0,0-1.22,5.67q0,3.35,4.57,9.15t4.56,10.77q0,9.86-11.14,19T759.63,639a19.43,19.43,0,0,1-9.43-2.32c-2.84-1.55-4.26-3.2-4.26-5,0-1,1.4-3,4.22-5.86s4.83-4.32,6-4.32c1.63,0,3.07,1.76,4.34,5.28s3.45,5.29,6.54,5.29a12.88,12.88,0,0,0,8.71-3.64q4.07-3.65,4.06-7.84t-5.17-10.82q-5.16-6.76-6.84-11.35a178.35,178.35,0,0,1-22.36,24.69h-1.75v-5.8Q762.36,600.49,768.83,585.35Z" transform="translate(-290.33 -87.31)"/><path class="cls-4" d="M472,505h18.77c11.49,0,20.74,2.59,20.74,10.61,0,7.78-9.51,11.2-20.74,11.2h-6.79v11.2H472ZM490,520.92c6.56,0,9.68-1.83,9.68-5.27S496.35,511,490,511h-6.1v9.95Z" transform="translate(-290.33 -87.31)"/><path class="cls-4" d="M517.71,521.39c0-11,8.68-17,21.28-17s21.29,5.93,21.29,17c0,11.29-8.68,17.27-21.29,17.27S517.71,532.68,517.71,521.39Zm30.29,0c0-6.86-3.48-10.51-9-10.51s-9,3.65-9,10.51c0,7.12,3.48,10.81,9,10.81S548,528.51,548,521.39Z" transform="translate(-290.33 -87.31)"/><path class="cls-4" d="M566.43,521.39c0-11,8.69-17,21.29-17s21.29,5.93,21.29,17c0,11.29-8.68,17.27-21.29,17.27S566.43,532.68,566.43,521.39Zm30.3,0c0-6.86-3.49-10.51-9-10.51s-9,3.65-9,10.51c0,7.12,3.48,10.81,9,10.81S596.73,528.51,596.73,521.39Z" transform="translate(-290.33 -87.31)"/><path class="cls-4" d="M617.46,505h12.27l11.14,16.41,4.53,7.25h.28c-.53-3.47-1.65-8.1-1.65-12V505h11.42v33H643.17L632,521.6l-4.53-7.22h-.28c.54,3.65,1.66,8.08,1.66,12v11.71H617.46Z" transform="translate(-290.33 -87.31)"/><path class="cls-4" d="M662,505h12.7l6.36,15.37c1.57,3.61,2.64,7,4.24,10.58h.32c1.6-3.63,2.75-7,4.24-10.58L696.1,505h12.26l-16,33H678Z" transform="translate(-290.33 -87.31)"/><path class="cls-4" d="M717,505h35.09v6.26H729v6.62h19.63v6.27H729v7.59h23.92v6.27H717Z" transform="translate(-290.33 -87.31)"/><path class="cls-4" d="M763.46,505h12v12.71h14.36V505h12v33h-12V524.27H775.46v13.78h-12Z" transform="translate(-290.33 -87.31)"/><circle class="cls-5" cx="97.89" cy="489.82" r="66.51"/><ellipse class="cls-5" cx="387.91" cy="577.43" rx="38.09" ry="66.51" transform="translate(-291.77 -86.34) rotate(-0.14)"/><path class="cls-5" d="M337.91,620.63c7.36-8.56,27.13-14.72,50.38-14.78,22.16-.05,41.19,5.46,49.33,13.36" transform="translate(-290.33 -87.31)"/><path class="cls-5" d="M437.86,531.93c-7.82,8.19-27.13,14-49.72,14.06-22.16.06-41.19-5.45-49.34-13.35" transform="translate(-290.33 -87.31)"/><path class="cls-5" d="M388.12,643.34s-.11-29.77-.21-66.5-.15-66.51-.13-66.51.11,29.78.21,66.51.15,66.5.13,66.5" transform="translate(-290.33 -87.31)"/><path class="cls-4" d="M602.83,677.58l4-4.62a13.65,13.65,0,0,0,8.27,3.1c3,0,4.37-1.1,4.37-2.56,0-2.13-1.85-2.65-4.79-3.83L610.66,668c-3.45-1.25-6.6-3.77-6.6-8.09,0-4.92,4.65-8.85,11.41-8.85A15.5,15.5,0,0,1,625.81,655l-3.55,4.23a11.51,11.51,0,0,0-7.17-2.32c-2.32,0-3.9.92-3.9,2.66s2.09,2.43,5.07,3.5l3.81,1.54c4.08,1.46,6.65,3.88,6.65,8.07,0,4.94-4.34,9.22-12,9.22A18.43,18.43,0,0,1,602.83,677.58Z" transform="translate(-290.33 -87.31)"/><path class="cls-4" d="M631.7,670c0-7.39,6-11.83,12.33-11.83,7.3,0,11.15,4.7,11.15,10.85a19.3,19.3,0,0,1-.29,3h-18v-4.5h13.22L649,668.8c0-3.63-1.66-5.53-4.77-5.53-3.47,0-5.75,2.24-5.75,6.73,0,4.69,2.68,6.75,7.28,6.75a13.44,13.44,0,0,0,6.11-1.57l2.33,4a18.75,18.75,0,0,1-9.4,2.65C637.45,681.87,631.7,677.52,631.7,670Z" transform="translate(-290.33 -87.31)"/><path class="cls-4" d="M663.24,658.71H669l.55,4.95h.17a11.09,11.09,0,0,1,9.6-5.49,10,10,0,0,1,4.55.91l-1.42,5.63a13,13,0,0,0-4.2-.66c-2.93,0-5.95,1.46-8,5.51v11.76h-7Z" transform="translate(-290.33 -87.31)"/><path class="cls-4" d="M687.87,658.71h7.06l3.73,10.66c.77,2.27,1.42,4.58,2.13,7H701c.71-2.38,1.34-4.69,2.12-7l3.73-10.66h6.72l-8.69,22.61H696.8Z" transform="translate(-290.33 -87.31)"/><path class="cls-4" d="M728.32,664h-9.54v-5.26h16.58v22.61h-7Zm-1.47-12.88c0-2.46,2-4.17,4.67-4.17s4.67,1.71,4.67,4.17-2,4.09-4.67,4.09S726.85,653.55,726.85,651.09Z" transform="translate(-290.33 -87.31)"/><path class="cls-4" d="M746.89,670c0-7.53,6.41-11.86,13.7-11.86a13.19,13.19,0,0,1,8.87,3.07l-3.23,4.16a8.91,8.91,0,0,0-5.25-1.82c-4.08,0-6.89,2.53-6.89,6.45s2.77,6.42,6.65,6.42A11.29,11.29,0,0,0,767,674.3l2.83,4.23a15.83,15.83,0,0,1-9.73,3.34C752.61,681.87,746.89,677.53,746.89,670Z" transform="translate(-290.33 -87.31)"/><path class="cls-4" d="M775,670c0-7.39,6-11.83,12.33-11.83,7.31,0,11.15,4.7,11.15,10.85a19.3,19.3,0,0,1-.29,3h-18v-4.5h13.23l-1.11,1.28c0-3.63-1.65-5.53-4.77-5.53-3.47,0-5.75,2.24-5.75,6.73,0,4.69,2.68,6.75,7.29,6.75a13.4,13.4,0,0,0,6.1-1.57l2.33,4a18.74,18.74,0,0,1-9.39,2.65C780.72,681.87,775,677.52,775,670Z" transform="translate(-290.33 -87.31)"/></svg>