<svg id="Layer_20" data-name="Layer 20" xmlns="http://www.w3.org/2000/svg" xmlns:xlink="http://www.w3.org/1999/xlink" viewBox="0 0 600.11 600"><defs><style>.cls-1{fill:url(#linear-gradient);}.cls-2{fill:none;}.cls-3{fill:#c67500;}.cls-4{font-size:116.34px;font-family:ScriptMTBold, Script MT Bold;}.cls-4,.cls-5{fill:#ff9d43;}.cls-6{fill:#ff8e1b;}.cls-7{fill:#e5e5e5;}</style><linearGradient id="linear-gradient" x1="646.92" y1="77.94" x2="648.19" y2="77.94" gradientUnits="userSpaceOnUse"><stop offset="0.31" stop-color="#ffa555"/><stop offset="0.61" stop-color="#f15a24"/><stop offset="0.99" stop-color="#c1272d"/></linearGradient></defs><title>logo_book</title><path class="cls-1" d="M648.19,78c-.41,0-.85-.06-1.27-.07h1.26Z" transform="translate(-363.37 -77.43)"/><path class="cls-2" d="M963.48,77.9,809.86,671.17H659.37L609.1,477.57q5.58-.56,11-1.31l47.64,183.45H799.65L945.72,95.62H833.5L809.19,207.36a175.25,175.25,0,0,0-6.69-27.68L824.64,77.9Z" transform="translate(-363.37 -77.43)"/><path class="cls-2" d="M682.92,261.15a132.82,132.82,0,0,1-2.62,27.3l-16.38-73.93C680,226.35,682.92,244.49,682.92,261.15Z" transform="translate(-363.37 -77.43)"/><path class="cls-2" d="M768.4,395.15c-10.12,48-19.17,94.37-30.84,143.9h-3c-7.65-32.46-14-63.55-20.32-94.65q6.56-4,12.7-8.4c.32,1.51.62,3,.93,4.52,3,14.5,6,29.23,9.13,44.17,4.2-19.42,8.15-38.54,12-57.29q1.29-6.25,2.6-12.57A185.58,185.58,0,0,0,768.4,395.15Z" transform="translate(-363.37 -77.43)"/><path class="cls-3" d="M945.72,95.62,799.65,659.71H667.78L620.14,476.26c35.61-4.89,67.37-15.63,94.12-31.86,6.35,31.1,12.67,62.19,20.32,94.65h3c11.67-49.53,20.72-95.86,30.84-143.9a201.06,201.06,0,0,0,24.35-43.55c12.73-31.1,19.19-67.45,19.19-108.06a227.68,227.68,0,0,0-2.75-36.18L833.5,95.62Z" transform="translate(-363.37 -77.43)"/><path class="cls-3" d="M680.3,288.45c-8.74,41.91-39.49,64.14-91.73,66.24l-24.65-94.95-7.76-29.87L521.3,95.62H637.57l22.22,100.25,4.13,18.65Z" transform="translate(-363.37 -77.43)"/><path class="cls-2" d="M695.45,261.15a157.15,157.15,0,0,1-1.59,22.9l-16.93-76.4C689.14,219.76,695.45,237.42,695.45,261.15Z" transform="translate(-363.37 -77.43)"/><path class="cls-2" d="M685.79,313.21c-14.94,34.21-46.89,53.16-93.47,55.9l-3.75-14.42c52.24-2.1,83-24.33,91.73-66.24Z" transform="translate(-363.37 -77.43)"/><path class="cls-2" d="M811.94,243.54c0,40.61-6.46,77-19.19,108.06a201.06,201.06,0,0,1-24.35,43.55c2.56-12.14,5.19-24.38,8-36.82l.65-3c13.31-28,21.22-61.9,22.27-102.39l9.92-45.59A227.68,227.68,0,0,1,811.94,243.54Z" transform="translate(-363.37 -77.43)"/><path class="cls-2" d="M620.14,476.26q-5.46.75-11,1.31l-3.71-14.27c3.71-.34,7.41-.75,11.07-1.22Z" transform="translate(-363.37 -77.43)"/><path class="cls-2" d="M727,436q-6.15,4.42-12.7,8.4-1.49-7.32-3-14.65,6.51-4.1,12.64-8.74Q725.45,428.56,727,436Z" transform="translate(-363.37 -77.43)"/><path class="cls-2" d="M714.26,444.4c-26.75,16.23-58.51,27-94.12,31.86l-3.68-14.18c35-4.51,67.35-15,94.8-32.33Q712.78,437.09,714.26,444.4Z" transform="translate(-363.37 -77.43)"/><path class="cls-2" d="M777,355.34l-.65,3c-2.76,12.44-5.39,24.68-8,36.82a185.58,185.58,0,0,1-16.76,19.68q2.77-13.38,5.65-27.05A181.51,181.51,0,0,0,777,355.34Z" transform="translate(-363.37 -77.43)"/><path class="cls-2" d="M799.27,253c.09-3.1.13-6.23.13-9.41a205.86,205.86,0,0,0-3-35.93l6.08-27.93a175.25,175.25,0,0,1,6.69,27.68Z" transform="translate(-363.37 -77.43)"/><path class="cls-2" d="M802.5,179.68l-6.08,27.93C783,131.78,725.67,98.17,651.48,92.79L648.19,78c45.18,2.61,81.86,14.86,109.23,36.5C778.59,131.22,793.65,153,802.5,179.68Z" transform="translate(-363.37 -77.43)"/><path class="cls-2" d="M757.29,387.78q-2.88,13.67-5.65,27.05-5.49,5.63-11.46,10.77Q733.84,431.08,727,436q-1.51-7.46-3.06-15A173.37,173.37,0,0,0,757.29,387.78Z" transform="translate(-363.37 -77.43)"/><path class="cls-2" d="M605.39,463.3l3.71,14.27a346.39,346.39,0,0,1-34.85,1.72H526.68L492.44,677.43h-129l103.25-600H629.34q9,0,17.58.47H505.32L509,92H477L378.77,662.84H482.18L516.42,464.7h57.83C584.79,464.7,595.19,464.24,605.39,463.3Z" transform="translate(-363.37 -77.43)"/><path class="cls-2" d="M592.32,369.11q-5.51.33-11.29.34l-3.79-14.59h3c2.84,0,5.63-.05,8.35-.17Z" transform="translate(-363.37 -77.43)"/><path class="cls-2" d="M581,369.45H532.71l19-113,7.76,29.87-11.51,68.51h29.3Z" transform="translate(-363.37 -77.43)"/><path class="cls-2" d="M693.86,284.05a112.86,112.86,0,0,1-8.07,29.16l-5.49-24.76a132.82,132.82,0,0,0,2.62-27.3c0-16.66-2.93-34.8-19-46.63l-4.13-18.65a60,60,0,0,1,17.14,11.78Z" transform="translate(-363.37 -77.43)"/><polygon class="cls-2" points="200.55 182.31 196.08 208.92 188.32 179.05 192.79 152.44 200.55 182.31"/><path class="cls-2" d="M588.57,354.69c-2.72.12-5.51.17-8.35.17h-3l-17.79-68.51,4.47-26.61Z" transform="translate(-363.37 -77.43)"/><path class="cls-2" d="M651.48,92.79Q640.64,92,629.34,92H509L505.32,77.9h141.6c.42,0,.86,0,1.27.07Z" transform="translate(-363.37 -77.43)"/><path class="cls-3" d="M799.4,243.54c0,3.18,0,6.31-.13,9.41-1,40.49-9,74.41-22.27,102.39a181.51,181.51,0,0,1-19.71,32.44A173.37,173.37,0,0,1,723.9,421q-6.12,4.64-12.64,8.74c-27.45,17.37-59.8,27.82-94.8,32.33-3.66.47-7.36.88-11.07,1.22-10.2.94-20.6,1.4-31.14,1.4H516.42L482.18,662.84H378.77L477,92h32l42.7,164.46-19,113H581q5.79,0,11.29-.34c46.58-2.74,78.53-21.69,93.47-55.9a112.86,112.86,0,0,0,8.07-29.16,157.15,157.15,0,0,0,1.59-22.9c0-23.73-6.31-41.39-18.52-53.5L651.48,92.79c74.19,5.38,131.54,39,144.94,114.82A205.86,205.86,0,0,1,799.4,243.54Z" transform="translate(-363.37 -77.43)"/><path class="cls-2" d="M676.93,207.65a60,60,0,0,0-17.14-11.78L637.57,95.62H521.3l34.86,134.25-4.47,26.61L509,92H629.34q11.28,0,22.14.77Z" transform="translate(-363.37 -77.43)"/><text class="cls-4" transform="translate(175.78 537.26) scale(0.92 1)">Booking</text><path class="cls-5" d="M545.11,495.16h18.78c11.48,0,20.73,2.59,20.73,10.61,0,7.78-9.51,11.2-20.73,11.2h-6.8v11.2h-12ZM563.19,511c6.57,0,9.69-1.83,9.69-5.27s-3.38-4.68-9.69-4.68h-6.1v10Z" transform="translate(-363.37 -77.43)"/><path class="cls-5" d="M590.86,511.51c0-11,8.68-17,21.29-17s21.29,5.93,21.29,17c0,11.29-8.69,17.27-21.29,17.27S590.86,522.8,590.86,511.51Zm30.29,0c0-6.86-3.48-10.51-9-10.51s-9,3.65-9,10.51c0,7.12,3.49,10.81,9,10.81S621.15,518.63,621.15,511.51Z" transform="translate(-363.37 -77.43)"/><path class="cls-5" d="M639.59,511.51c0-11,8.68-17,21.29-17s21.28,5.93,21.28,17c0,11.29-8.68,17.27-21.28,17.27S639.59,522.8,639.59,511.51Zm30.29,0c0-6.86-3.48-10.51-9-10.51s-9,3.65-9,10.51c0,7.12,3.48,10.81,9,10.81S669.88,518.63,669.88,511.51Z" transform="translate(-363.37 -77.43)"/><path class="cls-5" d="M690.61,495.16h12.28L714,511.57l4.54,7.25h.27c-.53-3.47-1.65-8.1-1.65-12V495.16H728.6v33H716.32l-11.14-16.45-4.53-7.22h-.28c.54,3.65,1.66,8.08,1.66,12v11.71H690.61Z" transform="translate(-363.37 -77.43)"/><path class="cls-5" d="M735.15,495.16h12.7l6.36,15.37c1.58,3.61,2.64,7,4.24,10.58h.32c1.6-3.63,2.75-7,4.24-10.58l6.25-15.37h12.25l-16,33H751.15Z" transform="translate(-363.37 -77.43)"/><path class="cls-5" d="M790.2,495.16h35.08v6.26h-23.1V508h19.63v6.27H802.18v7.59h23.91v6.27H790.2Z" transform="translate(-363.37 -77.43)"/><path class="cls-5" d="M836.61,495.16h12v12.71H863V495.16h12v33H863V514.39H848.61v13.78h-12Z" transform="translate(-363.37 -77.43)"/><path class="cls-5" d="M676,667.7l4-4.62a13.67,13.67,0,0,0,8.27,3.1c3,0,4.37-1.1,4.37-2.55,0-2.14-1.85-2.66-4.79-3.84l-4.06-1.65c-3.44-1.25-6.59-3.77-6.59-8.09,0-4.92,4.64-8.85,11.4-8.85A15.48,15.48,0,0,1,699,645.09l-3.55,4.23a11.51,11.51,0,0,0-7.17-2.32c-2.32,0-3.9.92-3.9,2.66s2.09,2.43,5.08,3.5l3.8,1.54c4.08,1.46,6.65,3.88,6.65,8.07,0,4.94-4.34,9.22-12,9.22A18.43,18.43,0,0,1,676,667.7Z" transform="translate(-363.37 -77.43)"/><path class="cls-5" d="M704.85,660.12c0-7.39,6-11.83,12.33-11.83,7.31,0,11.15,4.7,11.15,10.85a18.12,18.12,0,0,1-.29,3h-18v-4.5h13.23l-1.11,1.28c0-3.63-1.65-5.53-4.77-5.53-3.47,0-5.75,2.24-5.75,6.73,0,4.69,2.68,6.75,7.29,6.75a13.4,13.4,0,0,0,6.1-1.57l2.33,4A18.74,18.74,0,0,1,718,672C710.6,672,704.85,667.64,704.85,660.12Z" transform="translate(-363.37 -77.43)"/><path class="cls-5" d="M736.39,648.83h5.78l.55,4.95h.17a11.09,11.09,0,0,1,9.6-5.49,10,10,0,0,1,4.55.91l-1.42,5.63a13,13,0,0,0-4.2-.66c-2.93,0-5.95,1.46-8,5.51v11.76h-7Z" transform="translate(-363.37 -77.43)"/><path class="cls-5" d="M761,648.83h7.05l3.73,10.66c.77,2.27,1.43,4.58,2.13,7h.2c.7-2.38,1.33-4.69,2.11-7L780,648.83h6.72L778,671.44H770Z" transform="translate(-363.37 -77.43)"/><path class="cls-5" d="M801.48,654.09h-9.54v-5.26h16.57v22.61h-7ZM800,641.21c0-2.46,2-4.17,4.67-4.17s4.67,1.71,4.67,4.17-2,4.09-4.67,4.09S800,643.67,800,641.21Z" transform="translate(-363.37 -77.43)"/><path class="cls-5" d="M820,660.15c0-7.53,6.41-11.86,13.71-11.86a13.18,13.18,0,0,1,8.86,3.07l-3.23,4.16a8.91,8.91,0,0,0-5.25-1.82c-4.07,0-6.89,2.53-6.89,6.45s2.77,6.42,6.66,6.42a11.25,11.25,0,0,0,6.23-2.15l2.84,4.23a15.88,15.88,0,0,1-9.74,3.34C825.76,672,820,667.65,820,660.15Z" transform="translate(-363.37 -77.43)"/><path class="cls-5" d="M848.13,660.12c0-7.39,6-11.83,12.32-11.83,7.31,0,11.16,4.7,11.16,10.85a17.9,17.9,0,0,1-.3,3h-18v-4.5h13.22l-1.11,1.28c0-3.63-1.65-5.53-4.76-5.53-3.48,0-5.75,2.24-5.75,6.73,0,4.69,2.67,6.75,7.28,6.75a13.4,13.4,0,0,0,6.1-1.57l2.33,4a18.72,18.72,0,0,1-9.39,2.65C853.87,672,848.13,667.64,848.13,660.12Z" transform="translate(-363.37 -77.43)"/><path class="cls-6" d="M363.37,566.82l20.57,85.28s14.29-13,39.13-18.94,25.33-2.62,25.33-2.62.23,7.54,10.11,5.16l1.49-.36c9.58-2.31,6.35-9.13,6.35-9.13s-.86-3.59,23.67-9.51,43.53-.68,43.53-.68L513,530.74" transform="translate(-363.37 -77.43)"/><path class="cls-7" d="M436.82,543.14S402.35,531.5,371,559l19.12,79.29s23.35-24,65.83-15.88c34.12-26.59,65.83-15.87,65.83-15.87l-19.12-79.3C462.27,517.37,436.82,543.14,436.82,543.14Z" transform="translate(-363.37 -77.43)"/><path class="cls-2" d="M436.82,543.14S402.35,531.5,371,559l19.12,79.29s23.35-24,65.83-15.88c34.12-26.59,65.83-15.87,65.83-15.87l-19.12-79.3C462.27,517.37,436.82,543.14,436.82,543.14Z" transform="translate(-363.37 -77.43)"/><path class="cls-2" d="M363.37,566.82l20.57,85.28s14.29-13,39.13-18.94,25.33-2.62,25.33-2.62.23,7.54,10.11,5.16l1.49-.36c9.58-2.31,6.35-9.13,6.35-9.13s-.86-3.59,23.67-9.51,43.53-.68,43.53-.68L513,530.74" transform="translate(-363.37 -77.43)"/><line class="cls-2" x1="76.97" y1="480.33" x2="87.8" y2="525.21"/></svg>