<svg id="Layer_21" data-name="Layer 21" xmlns="http://www.w3.org/2000/svg" xmlns:xlink="http://www.w3.org/1999/xlink" viewBox="0 0 614.3 600"><defs><style>.cls-1{fill:url(#linear-gradient);}.cls-10,.cls-12,.cls-13,.cls-2,.cls-9{fill:none;}.cls-3{fill:#770006;}.cls-4{font-size:116.34px;font-family:ScriptMTBold, Script MT Bold;}.cls-4,.cls-6{fill:#ff1d24;}.cls-5{letter-spacing:-0.08em;}.cls-7{fill:#7abe90;}.cls-8{fill:#f8b319;}.cls-10,.cls-12,.cls-13,.cls-9{stroke:#2c3e50;stroke-linecap:round;stroke-linejoin:round;stroke-width:2px;}.cls-9{opacity:0.49;}.cls-10{opacity:0.36;}.cls-11{fill:#ffd766;}.cls-12{opacity:0.46;}.cls-13{opacity:0.57;}</style><linearGradient id="linear-gradient" x1="757.03" y1="47.94" x2="758.3" y2="47.94" gradientUnits="userSpaceOnUse"><stop offset="0.31" stop-color="#ffa555"/><stop offset="0.61" stop-color="#f15a24"/><stop offset="0.99" stop-color="#c1272d"/></linearGradient></defs><title>logo_payment</title><path class="cls-1" d="M758.3,48c-.42,0-.85-.06-1.27-.07h1.26Z" transform="translate(-459.29 -47.43)"/><path class="cls-2" d="M1073.59,47.9,920,641.17H769.48l-50.27-193.6q5.58-.56,11-1.31l47.64,183.45H909.76L1055.83,65.62H943.61L919.3,177.36a175.25,175.25,0,0,0-6.69-27.68L934.75,47.9Z" transform="translate(-459.29 -47.43)"/><path class="cls-2" d="M793,231.15a132.82,132.82,0,0,1-2.62,27.3L774,184.52C790.1,196.35,793,214.49,793,231.15Z" transform="translate(-459.29 -47.43)"/><path class="cls-2" d="M878.51,365.15c-10.12,48-19.17,94.37-30.84,143.9h-3c-7.65-32.46-14-63.55-20.32-94.65q6.55-4,12.7-8.4c.32,1.51.62,3,.93,4.52,3,14.5,6,29.23,9.13,44.17,4.2-19.42,8.15-38.54,12-57.29q1.29-6.25,2.6-12.57A185.58,185.58,0,0,0,878.51,365.15Z" transform="translate(-459.29 -47.43)"/><path class="cls-3" d="M1055.83,65.62,909.76,629.71H777.89L730.25,446.26c35.61-4.89,67.37-15.63,94.12-31.86,6.35,31.1,12.67,62.19,20.32,94.65h3c11.67-49.53,20.72-95.86,30.84-143.9a201.06,201.06,0,0,0,24.35-43.55c12.73-31.1,19.19-67.45,19.19-108.06a227.68,227.68,0,0,0-2.75-36.18L943.61,65.62Z" transform="translate(-459.29 -47.43)"/><path class="cls-3" d="M790.41,258.45c-8.74,41.91-39.49,64.14-91.73,66.24L674,229.74l-7.76-29.87L631.41,65.62H747.68L769.9,165.87,774,184.52Z" transform="translate(-459.29 -47.43)"/><path class="cls-2" d="M805.56,231.15a157.15,157.15,0,0,1-1.59,22.9L787,177.65C799.25,189.76,805.56,207.42,805.56,231.15Z" transform="translate(-459.29 -47.43)"/><path class="cls-2" d="M795.9,283.21C781,317.42,749,336.37,702.43,339.11l-3.75-14.42c52.24-2.1,83-24.33,91.73-66.24Z" transform="translate(-459.29 -47.43)"/><path class="cls-2" d="M922.05,213.54c0,40.61-6.46,77-19.19,108.06a201.06,201.06,0,0,1-24.35,43.55c2.56-12.14,5.19-24.38,8-36.82l.65-3c13.31-28,21.22-61.9,22.27-102.39l9.92-45.59A227.68,227.68,0,0,1,922.05,213.54Z" transform="translate(-459.29 -47.43)"/><path class="cls-2" d="M730.25,446.26q-5.46.75-11,1.31L715.5,433.3c3.71-.34,7.41-.75,11.07-1.22Z" transform="translate(-459.29 -47.43)"/><path class="cls-2" d="M837.07,406q-6.15,4.42-12.7,8.4-1.49-7.32-3-14.65,6.51-4.1,12.64-8.74Q835.56,398.56,837.07,406Z" transform="translate(-459.29 -47.43)"/><path class="cls-2" d="M824.37,414.4c-26.75,16.23-58.51,27-94.12,31.86l-3.68-14.18c35-4.51,67.35-15,94.8-32.33Q822.89,407.09,824.37,414.4Z" transform="translate(-459.29 -47.43)"/><path class="cls-2" d="M887.11,325.34l-.65,3c-2.76,12.44-5.39,24.68-8,36.82a185.58,185.58,0,0,1-16.76,19.68q2.78-13.38,5.65-27.05A181.51,181.51,0,0,0,887.11,325.34Z" transform="translate(-459.29 -47.43)"/><path class="cls-2" d="M909.38,223c.09-3.1.13-6.23.13-9.41a205.86,205.86,0,0,0-3-35.93l6.08-27.93a175.25,175.25,0,0,1,6.69,27.68Z" transform="translate(-459.29 -47.43)"/><path class="cls-2" d="M912.61,149.68l-6.08,27.93c-13.4-75.83-70.75-109.44-144.94-114.82L758.3,48c45.18,2.61,81.86,14.86,109.23,36.5C888.7,101.22,903.76,123,912.61,149.68Z" transform="translate(-459.29 -47.43)"/><path class="cls-2" d="M867.4,357.78q-2.88,13.67-5.65,27.05-5.49,5.63-11.46,10.77-6.35,5.47-13.22,10.4-1.52-7.46-3.06-15A173.37,173.37,0,0,0,867.4,357.78Z" transform="translate(-459.29 -47.43)"/><path class="cls-2" d="M715.5,433.3l3.71,14.27a346.39,346.39,0,0,1-34.85,1.72H636.79L602.55,647.43h-129l103.25-600H739.45q9,0,17.58.47H615.43L619.1,62h-32L488.88,632.84H592.29L626.53,434.7h57.83C694.9,434.7,705.3,434.24,715.5,433.3Z" transform="translate(-459.29 -47.43)"/><path class="cls-2" d="M702.43,339.11q-5.5.33-11.29.34l-3.79-14.59h3c2.84,0,5.63-.05,8.35-.17Z" transform="translate(-459.29 -47.43)"/><path class="cls-2" d="M691.14,339.45H642.82l19-113,7.76,29.87-11.51,68.51h29.3Z" transform="translate(-459.29 -47.43)"/><path class="cls-2" d="M804,254.05a112.86,112.86,0,0,1-8.07,29.16l-5.49-24.76a132.82,132.82,0,0,0,2.62-27.3c0-16.66-2.93-34.8-19-46.63l-4.13-18.65A60,60,0,0,1,787,177.65Z" transform="translate(-459.29 -47.43)"/><polygon class="cls-2" points="214.74 182.31 210.27 208.92 202.51 179.05 206.98 152.44 214.74 182.31"/><path class="cls-2" d="M698.68,324.69c-2.72.12-5.51.17-8.35.17h-3l-17.79-68.51L674,229.74Z" transform="translate(-459.29 -47.43)"/><path class="cls-2" d="M761.59,62.79Q750.75,62,739.45,62H619.1L615.43,47.9H757c.42,0,.85,0,1.27.07Z" transform="translate(-459.29 -47.43)"/><path class="cls-3" d="M909.51,213.54c0,3.18,0,6.31-.13,9.41-1,40.49-9,74.41-22.27,102.39a181.51,181.51,0,0,1-19.71,32.44A173.37,173.37,0,0,1,834,391q-6.12,4.64-12.64,8.74c-27.45,17.37-59.8,27.82-94.8,32.33-3.66.47-7.36.88-11.07,1.22-10.2.94-20.6,1.4-31.14,1.4H626.53L592.29,632.84H488.88L587.11,62h32l42.7,164.46-19,113h48.32q5.79,0,11.29-.34c46.58-2.74,78.53-21.69,93.47-55.9A112.86,112.86,0,0,0,804,254.05a157.15,157.15,0,0,0,1.59-22.9c0-23.73-6.31-41.39-18.52-53.5L761.59,62.79c74.19,5.38,131.54,39,144.94,114.82A205.86,205.86,0,0,1,909.51,213.54Z" transform="translate(-459.29 -47.43)"/><path class="cls-2" d="M787,177.65a60,60,0,0,0-17.14-11.78L747.68,65.62H631.41l34.86,134.25-4.47,26.61L619.1,62H739.45q11.28,0,22.14.77Z" transform="translate(-459.29 -47.43)"/><text class="cls-4" transform="translate(189.97 537.26) scale(0.92 1)"><tspan class="cls-5">P</tspan><tspan x="69.99" y="0">ayment</tspan></text><path class="cls-6" d="M655.22,465.16H674c11.48,0,20.73,2.59,20.73,10.62,0,7.77-9.51,11.19-20.73,11.19h-6.8v11.2h-12ZM673.3,481c6.56,0,9.68-1.83,9.68-5.26s-3.37-4.69-9.68-4.69h-6.1v10Z" transform="translate(-459.29 -47.43)"/><path class="cls-6" d="M701,481.51c0-11,8.68-17,21.28-17s21.29,5.93,21.29,17c0,11.3-8.68,17.27-21.29,17.27S701,492.81,701,481.51Zm30.29,0c0-6.86-3.48-10.51-9-10.51s-9,3.65-9,10.51c0,7.12,3.48,10.82,9,10.82S731.26,488.63,731.26,481.51Z" transform="translate(-459.29 -47.43)"/><path class="cls-6" d="M749.7,481.51c0-11,8.68-17,21.28-17s21.29,5.93,21.29,17c0,11.3-8.68,17.27-21.29,17.27S749.7,492.81,749.7,481.51Zm30.29,0c0-6.86-3.49-10.51-9-10.51s-9,3.65-9,10.51c0,7.12,3.48,10.82,9,10.82S780,488.63,780,481.51Z" transform="translate(-459.29 -47.43)"/><path class="cls-6" d="M800.72,465.16H813l11.14,16.41,4.53,7.26h.28c-.53-3.48-1.65-8.11-1.65-12V465.16h11.42v33H826.43l-11.14-16.45-4.53-7.22h-.28c.54,3.65,1.66,8.08,1.66,12v11.71H800.72Z" transform="translate(-459.29 -47.43)"/><path class="cls-6" d="M845.26,465.16H858l6.36,15.37c1.58,3.61,2.64,7,4.24,10.58h.32c1.6-3.63,2.75-7,4.24-10.58l6.24-15.37h12.26l-16,33H861.26Z" transform="translate(-459.29 -47.43)"/><path class="cls-6" d="M900.3,465.16h35.09v6.26H912.28V478h19.64v6.27H912.28v7.6H936.2v6.26H900.3Z" transform="translate(-459.29 -47.43)"/><path class="cls-6" d="M946.72,465.16h12v12.71h14.36V465.16h12v33h-12V484.4H958.72v13.77h-12Z" transform="translate(-459.29 -47.43)"/><path class="cls-6" d="M786.09,637.7l4-4.62a13.65,13.65,0,0,0,8.27,3.1c3,0,4.37-1.1,4.37-2.55,0-2.14-1.85-2.66-4.79-3.84l-4.06-1.65c-3.45-1.25-6.59-3.77-6.59-8.09,0-4.92,4.64-8.85,11.4-8.85a15.48,15.48,0,0,1,10.34,3.89l-3.55,4.24a11.45,11.45,0,0,0-7.17-2.32c-2.32,0-3.9.91-3.9,2.65s2.09,2.44,5.07,3.51l3.81,1.53c4.08,1.46,6.65,3.89,6.65,8.08,0,4.93-4.34,9.21-12,9.21A18.43,18.43,0,0,1,786.09,637.7Z" transform="translate(-459.29 -47.43)"/><path class="cls-6" d="M815,630.13c0-7.4,6-11.84,12.33-11.84,7.3,0,11.15,4.71,11.15,10.85a19.16,19.16,0,0,1-.29,3h-18v-4.49H833.4l-1.11,1.27c0-3.63-1.66-5.53-4.77-5.53-3.47,0-5.75,2.24-5.75,6.74,0,4.68,2.68,6.75,7.28,6.75a13.57,13.57,0,0,0,6.11-1.57l2.33,4a18.75,18.75,0,0,1-9.4,2.65C820.71,642,815,637.64,815,630.13Z" transform="translate(-459.29 -47.43)"/><path class="cls-6" d="M846.5,618.84h5.78l.55,4.94H853a11.09,11.09,0,0,1,9.6-5.49,10.18,10.18,0,0,1,4.55.91l-1.42,5.64a12.76,12.76,0,0,0-4.2-.67c-2.93,0-5.95,1.46-8,5.51v11.76h-7Z" transform="translate(-459.29 -47.43)"/><path class="cls-6" d="M871.13,618.84h7.06l3.73,10.65c.77,2.27,1.42,4.59,2.13,7h.19c.71-2.37,1.34-4.69,2.12-7l3.73-10.65h6.72l-8.69,22.6h-8.06Z" transform="translate(-459.29 -47.43)"/><path class="cls-6" d="M911.58,624.09H902v-5.25h16.58v22.6h-7Zm-1.47-12.88c0-2.46,2-4.17,4.67-4.17s4.67,1.71,4.67,4.17-2,4.1-4.67,4.1S910.11,613.67,910.11,611.21Z" transform="translate(-459.29 -47.43)"/><path class="cls-6" d="M930.15,630.15c0-7.52,6.41-11.86,13.7-11.86a13.19,13.19,0,0,1,8.87,3.07l-3.23,4.16a8.91,8.91,0,0,0-5.25-1.82c-4.08,0-6.89,2.53-6.89,6.45s2.77,6.43,6.65,6.43a11.26,11.26,0,0,0,6.24-2.16l2.83,4.24a15.88,15.88,0,0,1-9.73,3.33C935.87,642,930.15,637.65,930.15,630.15Z" transform="translate(-459.29 -47.43)"/><path class="cls-6" d="M958.23,630.13c0-7.4,6-11.84,12.33-11.84,7.31,0,11.15,4.71,11.15,10.85a18,18,0,0,1-.29,3h-18v-4.49h13.22l-1.11,1.27c0-3.63-1.65-5.53-4.77-5.53-3.47,0-5.75,2.24-5.75,6.74,0,4.68,2.68,6.75,7.29,6.75a13.53,13.53,0,0,0,6.1-1.57l2.33,4a18.74,18.74,0,0,1-9.39,2.65C964,642,958.23,637.64,958.23,630.13Z" transform="translate(-459.29 -47.43)"/><path class="cls-7" d="M481.29,563.66,466.14,490a13.78,13.78,0,0,1,11-16.19L612.49,448.3a13.78,13.78,0,0,1,16.19,11l12.05,64.4c.69,3.78-2.75,11.36-4.47,14.11,0,0-1,2.07-2.76,2.07s-147,26.17-147,26.17Z" transform="translate(-459.29 -47.43)"/><path class="cls-8" d="M486.33,514.62c-14.16,0-25.9,3.45-25.9,7.6v82.89c0,4.14,11.39,7.59,25.9,7.59s25.9-3.45,25.9-7.59V522.22C511.89,518.07,500.49,514.62,486.33,514.62Z" transform="translate(-459.29 -47.43)"/><ellipse class="cls-9" cx="26.83" cy="474.91" rx="25.83" ry="7.58"/><path class="cls-9" d="M511.6,536.11c0,4.13-11.37,7.58-25.83,7.58s-25.48-3.45-25.48-7.58" transform="translate(-459.29 -47.43)"/><path class="cls-9" d="M511.6,549.89c0,4.13-11.37,7.57-25.83,7.57s-25.48-3.44-25.48-7.57" transform="translate(-459.29 -47.43)"/><path class="cls-9" d="M511.6,563.66c0,4.13-11.37,7.58-25.83,7.58s-25.48-3.45-25.48-7.58" transform="translate(-459.29 -47.43)"/><path class="cls-9" d="M511.6,577.44c0,4.13-11.37,7.57-25.83,7.57s-25.48-3.44-25.48-7.57" transform="translate(-459.29 -47.43)"/><path class="cls-9" d="M511.6,591.21c0,4.13-11.37,7.58-25.83,7.58s-25.48-3.45-25.48-7.58" transform="translate(-459.29 -47.43)"/><path class="cls-8" d="M618.1,542.17c-12.78,0-25.91,3.45-25.91,7.6v82.88c0,4.15,11.4,7.6,25.91,7.6,14.16,0,25.9-3.45,25.9-7.6V549.77C643.65,544.24,630.53,541.82,618.1,542.17Z" transform="translate(-459.29 -47.43)"/><path class="cls-10" d="M643.49,549.89c.34,4.13-11.37,7.57-25.83,7.57s-25.83-3.44-25.83-7.57,12.74-7.58,25.83-7.58C630.06,542,643.14,544.38,643.49,549.89Z" transform="translate(-459.29 -47.43)"/><path class="cls-10" d="M643.49,563.66c0,4.13-11.37,7.58-25.83,7.58s-25.83-3.45-25.83-7.58" transform="translate(-459.29 -47.43)"/><path class="cls-10" d="M643.49,577.44c0,4.13-11.37,7.57-25.83,7.57s-25.83-3.44-25.83-7.57" transform="translate(-459.29 -47.43)"/><path class="cls-10" d="M643.49,591.21c0,4.13-11.37,7.58-25.83,7.58s-25.83-3.45-25.83-7.58" transform="translate(-459.29 -47.43)"/><path class="cls-10" d="M643.49,605c0,4.14-11.37,7.58-25.83,7.58s-25.83-3.44-25.83-7.58" transform="translate(-459.29 -47.43)"/><path class="cls-10" d="M643.49,618.76c0,4.13-11.37,7.57-25.83,7.57s-25.83-3.44-25.83-7.57" transform="translate(-459.29 -47.43)"/><path class="cls-11" d="M549.4,573.54c-14.16,0-25.91,3.46-25.91,7.6V636.4c0,4.15,11.4,7.6,25.91,7.6s25.9-3.45,25.9-7.6V581.14C575.3,577,563.56,573.54,549.4,573.54Z" transform="translate(-459.29 -47.43)"/><ellipse class="cls-12" cx="90.53" cy="533.79" rx="25.83" ry="7.58"/><path class="cls-12" d="M575.65,595c0,4.13-11.37,7.57-25.83,7.57S524,599.13,524,595" transform="translate(-459.29 -47.43)"/><path class="cls-12" d="M575.65,608.77c0,4.13-11.37,7.58-25.83,7.58S524,612.9,524,608.77" transform="translate(-459.29 -47.43)"/><path class="cls-12" d="M575.56,622c.09,4.13-11.19,7.83-25.65,8.15s-25.9-2.86-26-7" transform="translate(-459.29 -47.43)"/><path class="cls-13" d="M568.42,488.94s-3.1-7.24-19.29-4.14c-12.39,2.41-16.53,10-15.49,16.19,1,5.85,9,8.95,19.62,6.88,13.78-2.75,18.6,1.38,19.63,6.89,1.38,7.58-6.2,14.12-15.49,16.19-9.3,1.72-17.57-2.07-19.29-4.14" transform="translate(-459.29 -47.43)"/><line class="cls-13" x1="88.12" y1="428.42" x2="99.83" y2="490.4"/></svg>