<svg id="Layer_12" data-name="Layer 12" xmlns="http://www.w3.org/2000/svg" xmlns:xlink="http://www.w3.org/1999/xlink" viewBox="0 0 600 600"><defs><style>.cls-1{fill:url(#linear-gradient);}.cls-2{fill:none;}.cls-3{fill:url(#linear-gradient-2);}.cls-4{fill:url(#linear-gradient-3);}.cls-5{fill:url(#linear-gradient-4);}.cls-6{fill:url(#linear-gradient-5);}.cls-7{fill:#ff9843;}.cls-8{fill:url(#linear-gradient-6);}</style><linearGradient id="linear-gradient" x1="905.43" y1="61.89" x2="906.7" y2="61.89" gradientUnits="userSpaceOnUse"><stop offset="0.31" stop-color="#ffa555"/><stop offset="0.61" stop-color="#f15a24"/><stop offset="0.99" stop-color="#c1272d"/></linearGradient><linearGradient id="linear-gradient-2" x1="839.54" y1="357.64" x2="982.41" y2="357.64" xlink:href="#linear-gradient"/><linearGradient id="linear-gradient-3" x1="1015.8" y1="281.65" x2="1057.91" y2="281.65" xlink:href="#linear-gradient"/><linearGradient id="linear-gradient-4" x1="878.65" y1="361.62" x2="1204.23" y2="361.62" xlink:href="#linear-gradient"/><linearGradient id="linear-gradient-5" x1="850.83" y1="361.62" x2="1204.23" y2="361.62" xlink:href="#linear-gradient"/><linearGradient id="linear-gradient-6" x1="637.28" y1="361.39" x2="1057.91" y2="361.39" gradientUnits="userSpaceOnUse"><stop offset="0.31" stop-color="#1e9cd7"/><stop offset="0.61" stop-color="#0075be"/><stop offset="0.99" stop-color="#005b97"/></linearGradient></defs><title>logover2_main</title><path class="cls-1" d="M906.7,61.93c-.42,0-.85-.06-1.27-.07h1.26Z" transform="translate(-621.99 -61.39)"/><path class="cls-2" d="M1222,61.86,1068.37,655.13H917.88l-50.27-193.6q5.58-.55,11-1.31l47.64,183.45h131.87L1204.23,79.58H1092L1067.7,191.32a175.25,175.25,0,0,0-6.69-27.68l22.14-101.78Z" transform="translate(-621.99 -61.39)"/><path class="cls-2" d="M941.43,245.11a132.82,132.82,0,0,1-2.62,27.3l-16.38-73.93C938.5,210.31,941.43,228.45,941.43,245.11Z" transform="translate(-621.99 -61.39)"/><path class="cls-2" d="M1026.91,379.11c-10.12,48-19.17,94.37-30.84,143.9h-3c-7.65-32.46-14-63.55-20.32-94.65q6.56-4,12.7-8.4c.32,1.51.62,3,.93,4.52,3,14.5,6,29.23,9.13,44.17,4.2-19.42,8.15-38.54,12-57.29q1.29-6.25,2.6-12.57A185.58,185.58,0,0,0,1026.91,379.11Z" transform="translate(-621.99 -61.39)"/><path class="cls-3" d="M982.41,405q-6.12,4.63-12.64,8.74C942.32,431.08,910,441.53,875,446c-3.66.47-7.36.88-11.07,1.22l-24.36-93.85q5.79,0,11.29-.34c46.58-2.74,78.53-21.69,93.47-55.9A112.86,112.86,0,0,0,952.37,268l14.94,67.41C972.84,359.08,977.74,382.31,982.41,405Z" transform="translate(-621.99 -61.39)"/><path class="cls-4" d="M1057.91,227.5c0,3.18,0,6.31-.13,9.41-1,40.49-9,74.41-22.27,102.39a181.51,181.51,0,0,1-19.71,32.44q3.78-17.91,7.82-36.23l31.31-143.94A205.86,205.86,0,0,1,1057.91,227.5Z" transform="translate(-621.99 -61.39)"/><path class="cls-5" d="M1204.23,79.58,1058.16,643.67H926.29L878.65,460.22c35.61-4.89,67.37-15.63,94.12-31.86,6.35,31.1,12.67,62.19,20.32,94.65h3c11.67-49.53,20.72-95.86,30.84-143.9a201.06,201.06,0,0,0,24.35-43.55c12.73-31.1,19.19-67.45,19.19-108.06a227.68,227.68,0,0,0-2.75-36.18L1092,79.58Z" transform="translate(-621.99 -61.39)"/><path class="cls-6" d="M1092,79.58,1067.7,191.32a227.68,227.68,0,0,1,2.75,36.18c0,40.61-6.46,77-19.19,108.06a201.06,201.06,0,0,1-24.35,43.55c-10.12,48-19.17,94.37-30.84,143.9h-3c-7.65-32.46-14-63.55-20.32-94.65-26.75,16.23-58.51,27-94.12,31.86l47.64,183.45h131.87L1204.23,79.58Zm-56.5,259.72c13.31-28,21.22-61.9,22.27-102.39Zm-81.21,3-10-45.12c-14.94,34.21-46.89,53.16-93.47,55.9L875,446c35-4.51,67.35-15,94.8-32.33C965,390.23,960,366.62,954.3,342.29Z" transform="translate(-621.99 -61.39)"/><path class="cls-7" d="M938.81,272.41c-8.74,41.91-39.49,64.14-91.73,66.24L822.43,243.7l9.76-58.13h37.9c25.22,0,41.68,5.06,52.34,12.91Z" transform="translate(-621.99 -61.39)"/><path class="cls-8" d="M1054.93,191.57C1041.53,115.74,984.18,82.13,910,76.75l25.45,114.86c12.21,12.11,18.52,29.77,18.52,53.5a157.15,157.15,0,0,1-1.59,22.9,112.86,112.86,0,0,1-8.07,29.16c-14.94,34.21-46.89,53.16-93.47,55.9q-5.51.33-11.29.34H791.22l19-113L767.5,76h-32L637.28,646.8H740.69l34.24-198.14h57.83c10.54,0,20.94-.46,31.14-1.4,3.71-.34,7.41-.75,11.07-1.22,35-4.51,67.35-15,94.8-32.33q6.51-4.09,12.64-8.74a173.37,173.37,0,0,0,33.39-33.23,181.51,181.51,0,0,0,19.71-32.44c13.31-28,21.22-61.9,22.27-102.39.09-3.1.13-6.23.13-9.41A205.86,205.86,0,0,0,1054.93,191.57Z" transform="translate(-621.99 -61.39)"/><path class="cls-2" d="M954,245.11a157.15,157.15,0,0,1-1.59,22.9l-16.93-76.4C947.65,203.72,954,221.38,954,245.11Z" transform="translate(-621.99 -61.39)"/><path class="cls-2" d="M944.3,297.17c-14.94,34.21-46.89,53.16-93.47,55.9l-3.75-14.42c52.24-2.1,83-24.33,91.73-66.24Z" transform="translate(-621.99 -61.39)"/><path class="cls-7" d="M922.43,198.48c-10.66-7.85-27.12-12.91-52.34-12.91h-37.9l-9.76,58.13-7.76-29.87,7.2-42.85h48.22c19.28,0,35.41,2.87,48.21,8.85Z" transform="translate(-621.99 -61.39)"/><path class="cls-2" d="M1070.45,227.5c0,40.61-6.46,77-19.19,108.06a201.06,201.06,0,0,1-24.35,43.55c2.56-12.14,5.19-24.38,7.95-36.82l.65-3c13.31-28,21.22-61.9,22.27-102.39l9.92-45.59A227.68,227.68,0,0,1,1070.45,227.5Z" transform="translate(-621.99 -61.39)"/><path class="cls-2" d="M878.65,460.22q-5.46.75-11,1.31l-3.71-14.27c3.71-.34,7.41-.75,11.07-1.22Z" transform="translate(-621.99 -61.39)"/><path class="cls-2" d="M985.47,420q-6.15,4.43-12.7,8.4-1.49-7.32-3-14.65,6.51-4.09,12.64-8.74Q984,412.52,985.47,420Z" transform="translate(-621.99 -61.39)"/><path class="cls-2" d="M972.77,428.36c-26.75,16.23-58.51,27-94.12,31.86L875,446c35-4.51,67.35-15,94.8-32.33Q971.29,421,972.77,428.36Z" transform="translate(-621.99 -61.39)"/><path class="cls-2" d="M1035.51,339.3l-.65,3c-2.76,12.44-5.39,24.68-7.95,36.82a185.58,185.58,0,0,1-16.76,19.68q2.77-13.38,5.65-27.05A181.51,181.51,0,0,0,1035.51,339.3Z" transform="translate(-621.99 -61.39)"/><path class="cls-2" d="M1057.78,236.91c.09-3.1.13-6.23.13-9.41a205.86,205.86,0,0,0-3-35.93l6.08-27.93a175.25,175.25,0,0,1,6.69,27.68Z" transform="translate(-621.99 -61.39)"/><path class="cls-2" d="M1061,163.64l-6.08,27.93C1041.53,115.74,984.18,82.13,910,76.75L906.7,61.93c45.18,2.61,81.86,14.86,109.23,36.5C1037.1,115.18,1052.16,137,1061,163.64Z" transform="translate(-621.99 -61.39)"/><path class="cls-2" d="M1015.8,371.74q-2.88,13.67-5.65,27.05-5.49,5.63-11.46,10.77Q992.35,415,985.47,420q-1.51-7.45-3.06-15A173.37,173.37,0,0,0,1015.8,371.74Z" transform="translate(-621.99 -61.39)"/><path class="cls-2" d="M863.9,447.26l3.71,14.27a346.39,346.39,0,0,1-34.85,1.72H785.19L751,661.39H622l103.25-600H887.85q9,0,17.58.47H763.83L767.5,76h-32L637.28,646.8H740.69l34.24-198.14h57.83C843.3,448.66,853.7,448.2,863.9,447.26Z" transform="translate(-621.99 -61.39)"/><path class="cls-2" d="M850.83,353.07q-5.51.33-11.29.34l-3.79-14.59h3c2.84,0,5.63-.05,8.35-.17Z" transform="translate(-621.99 -61.39)"/><path class="cls-2" d="M839.54,353.41H791.22l19-113L818,270.31l-11.51,68.51h29.3Z" transform="translate(-621.99 -61.39)"/><path class="cls-2" d="M952.37,268a112.86,112.86,0,0,1-8.07,29.16l-5.49-24.76a132.82,132.82,0,0,0,2.62-27.3c0-16.66-2.93-34.8-19-46.63l-4.13-18.65a60,60,0,0,1,17.14,11.78Z" transform="translate(-621.99 -61.39)"/><polygon class="cls-2" points="200.44 182.31 195.97 208.92 188.21 179.05 192.68 152.44 200.44 182.31"/><path class="cls-2" d="M847.08,338.65c-2.72.12-5.51.17-8.35.17h-3L818,270.31l4.47-26.61Z" transform="translate(-621.99 -61.39)"/><path class="cls-2" d="M910,76.75Q899.15,76,887.85,76H767.5l-3.67-14.12h141.6c.42,0,.85,0,1.27.07Z" transform="translate(-621.99 -61.39)"/><path class="cls-8" d="M1054.93,191.57C1041.53,115.74,984.18,82.13,910,76.75l25.45,114.86c12.21,12.11,18.52,29.77,18.52,53.5a157.15,157.15,0,0,1-1.59,22.9,112.86,112.86,0,0,1-8.07,29.16c-14.94,34.21-46.89,53.16-93.47,55.9q-5.51.33-11.29.34H791.22l19-113L767.5,76h-32L637.28,646.8H740.69l34.24-198.14h57.83c10.54,0,20.94-.46,31.14-1.4,3.71-.34,7.41-.75,11.07-1.22,35-4.51,67.35-15,94.8-32.33q6.51-4.09,12.64-8.74a173.37,173.37,0,0,0,33.39-33.23,181.51,181.51,0,0,0,19.71-32.44c13.31-28,21.22-61.9,22.27-102.39.09-3.1.13-6.23.13-9.41A205.86,205.86,0,0,0,1054.93,191.57Z" transform="translate(-621.99 -61.39)"/><path class="cls-7" d="M918.3,179.83c-12.8-6-28.93-8.85-48.21-8.85H821.87l-7.2,42.85L779.81,79.58H896.08Z" transform="translate(-621.99 -61.39)"/><path class="cls-2" d="M935.44,191.61a60,60,0,0,0-17.14-11.78L896.08,79.58H779.81l34.86,134.25-4.47,26.61L767.5,76H887.85q11.28,0,22.14.77Z" transform="translate(-621.99 -61.39)"/></svg>