<svg id="Layer_13" data-name="Layer 13" xmlns="http://www.w3.org/2000/svg" xmlns:xlink="http://www.w3.org/1999/xlink" viewBox="0 0 600 600"><defs><style>.cls-1{fill:url(#linear-gradient);}.cls-2,.cls-6{fill:none;}.cls-3{fill:#fffce9;}.cls-4{fill:#4e5900;stroke:gray;stroke-width:3px;}.cls-4,.cls-6{stroke-miterlimit:10;}.cls-5{fill:#006837;}.cls-6{stroke:#006837;stroke-width:7px;}</style><linearGradient id="linear-gradient" x1="757.56" y1="89.45" x2="758.83" y2="89.45" gradientUnits="userSpaceOnUse"><stop offset="0.31" stop-color="#ffa555"/><stop offset="0.61" stop-color="#f15a24"/><stop offset="0.99" stop-color="#c1272d"/></linearGradient></defs><title>logover2_news_1</title><path class="cls-1" d="M758.83,89.49c-.42,0-.85-.06-1.27-.07h1.26Z" transform="translate(-474.12 -88.95)"/><path class="cls-2" d="M1074.12,89.42,920.5,682.69H770l-50.27-193.6q5.58-.55,11-1.31l47.64,183.45H910.29l146.07-564.09H944.14L919.83,218.88a175.25,175.25,0,0,0-6.69-27.68L935.28,89.42Z" transform="translate(-474.12 -88.95)"/><path class="cls-2" d="M793.56,272.67a132.82,132.82,0,0,1-2.62,27.3L774.56,226C790.63,237.87,793.56,256,793.56,272.67Z" transform="translate(-474.12 -88.95)"/><path class="cls-2" d="M879,406.67c-10.12,48-19.17,94.37-30.84,143.9h-3c-7.65-32.46-14-63.55-20.32-94.65q6.55-4,12.7-8.4c.32,1.51.62,3,.93,4.52,3,14.5,6,29.23,9.13,44.17,4.2-19.42,8.15-38.54,12-57.29q1.29-6.26,2.6-12.57A185.58,185.58,0,0,0,879,406.67Z" transform="translate(-474.12 -88.95)"/><path d="M1056.36,107.14,910.29,671.23H778.42L730.78,487.78c35.61-4.89,67.37-15.63,94.12-31.86,6.35,31.1,12.67,62.19,20.32,94.65h3C859.87,501,868.92,454.71,879,406.67a201.06,201.06,0,0,0,24.35-43.55c12.73-31.1,19.19-67.45,19.19-108.06a227.68,227.68,0,0,0-2.75-36.18l24.31-111.74Z" transform="translate(-474.12 -88.95)"/><path d="M790.94,300c-8.74,41.91-39.49,64.14-91.73,66.24l-24.65-94.95,9.76-58.13h37.9c25.22,0,41.68,5.06,52.34,12.91Z" transform="translate(-474.12 -88.95)"/><path class="cls-2" d="M806.09,272.67a157.15,157.15,0,0,1-1.59,22.9l-16.93-76.4C799.78,231.28,806.09,248.94,806.09,272.67Z" transform="translate(-474.12 -88.95)"/><path class="cls-2" d="M796.43,324.73c-14.94,34.21-46.89,53.16-93.47,55.9l-3.75-14.42c52.24-2.1,83-24.33,91.73-66.24Z" transform="translate(-474.12 -88.95)"/><path d="M774.56,226c-10.66-7.85-27.12-12.91-52.34-12.91h-37.9l-9.76,58.13-7.76-29.87,7.2-42.85h48.22c19.28,0,35.41,2.87,48.21,8.85Z" transform="translate(-474.12 -88.95)"/><path class="cls-2" d="M922.58,255.06c0,40.61-6.46,77-19.19,108.06A201.06,201.06,0,0,1,879,406.67c2.56-12.14,5.19-24.38,8-36.82l.65-3c13.31-28,21.22-61.9,22.27-102.39l9.92-45.59A227.68,227.68,0,0,1,922.58,255.06Z" transform="translate(-474.12 -88.95)"/><path class="cls-2" d="M730.78,487.78q-5.46.75-11,1.31L716,474.82c3.71-.34,7.41-.75,11.07-1.22Z" transform="translate(-474.12 -88.95)"/><path class="cls-2" d="M837.6,447.52q-6.15,4.43-12.7,8.4-1.49-7.32-3-14.65,6.51-4.09,12.64-8.74Q836.09,440.08,837.6,447.52Z" transform="translate(-474.12 -88.95)"/><path class="cls-2" d="M824.9,455.92c-26.75,16.23-58.51,27-94.12,31.86L727.1,473.6c35-4.51,67.35-15,94.8-32.33Q823.42,448.61,824.9,455.92Z" transform="translate(-474.12 -88.95)"/><path class="cls-2" d="M887.64,366.86l-.65,3c-2.76,12.44-5.39,24.68-8,36.82a185.58,185.58,0,0,1-16.76,19.68q2.78-13.38,5.65-27.05A181.51,181.51,0,0,0,887.64,366.86Z" transform="translate(-474.12 -88.95)"/><path class="cls-2" d="M909.91,264.47c.09-3.1.13-6.23.13-9.41a205.86,205.86,0,0,0-3-35.93l6.08-27.93a175.25,175.25,0,0,1,6.69,27.68Z" transform="translate(-474.12 -88.95)"/><path class="cls-2" d="M913.14,191.2l-6.08,27.93c-13.4-75.83-70.75-109.44-144.94-114.82l-3.29-14.82C804,92.1,840.69,104.35,868.06,126,889.23,142.74,904.29,164.55,913.14,191.2Z" transform="translate(-474.12 -88.95)"/><path class="cls-2" d="M867.93,399.3q-2.88,13.67-5.65,27.05-5.49,5.63-11.46,10.77-6.35,5.47-13.22,10.4-1.51-7.45-3.06-15A173.37,173.37,0,0,0,867.93,399.3Z" transform="translate(-474.12 -88.95)"/><path class="cls-2" d="M716,474.82l3.71,14.27a346.39,346.39,0,0,1-34.85,1.72H637.32L603.08,689h-129L577.37,89H740q9,0,17.58.47H616l3.67,14.12h-32L489.41,674.36H592.82l34.24-198.14h57.83C695.43,476.22,705.83,475.76,716,474.82Z" transform="translate(-474.12 -88.95)"/><path class="cls-2" d="M703,380.63q-5.51.33-11.29.34l-3.79-14.59h3c2.84,0,5.63-.05,8.35-.17Z" transform="translate(-474.12 -88.95)"/><path class="cls-2" d="M691.67,381H643.35l19-113,7.76,29.87-11.51,68.51h29.3Z" transform="translate(-474.12 -88.95)"/><path class="cls-2" d="M804.5,295.57a112.86,112.86,0,0,1-8.07,29.16L790.94,300a132.82,132.82,0,0,0,2.62-27.3c0-16.66-2.93-34.8-19-46.63l-4.13-18.65a60,60,0,0,1,17.14,11.78Z" transform="translate(-474.12 -88.95)"/><polygon class="cls-2" points="200.44 182.31 195.97 208.92 188.21 179.05 192.68 152.44 200.44 182.31"/><path class="cls-2" d="M699.21,366.21c-2.72.12-5.51.17-8.35.17h-3l-17.79-68.51,4.47-26.61Z" transform="translate(-474.12 -88.95)"/><path class="cls-2" d="M762.12,104.31q-10.85-.77-22.14-.77H619.63L616,89.42h141.6c.42,0,.85,0,1.27.07Z" transform="translate(-474.12 -88.95)"/><path d="M727.1,473.6c-3.66.47-7.36.88-11.07,1.22L691.67,381q5.79,0,11.29-.34Z" transform="translate(-474.12 -88.95)"/><path d="M716,474.82c-10.2.94-20.6,1.4-31.14,1.4H627.06L592.82,674.36H489.41l98.23-570.82h32L662.33,268l-19,113h48.32Z" transform="translate(-474.12 -88.95)"/><path d="M909.91,264.47c-1,40.49-9,74.41-22.27,102.39Z" transform="translate(-474.12 -88.95)"/><path d="M910,255.06c0,3.18,0,6.31-.13,9.41L887.64,366.86a181.51,181.51,0,0,1-19.71,32.44q3.78-17.91,7.82-36.23l31.31-143.94A205.86,205.86,0,0,1,910,255.06Z" transform="translate(-474.12 -88.95)"/><path d="M834.54,432.53q-6.12,4.64-12.64,8.74c-4.82-23.48-9.78-47.09-15.47-71.42l-10-45.12a112.86,112.86,0,0,0,8.07-29.16L819.44,363C825,386.64,829.87,409.87,834.54,432.53Z" transform="translate(-474.12 -88.95)"/><path d="M821.9,441.27c-27.45,17.37-59.8,27.82-94.8,32.33l-24.14-93c46.58-2.74,78.53-21.69,93.47-55.9l10,45.12C812.12,394.18,817.08,417.79,821.9,441.27Z" transform="translate(-474.12 -88.95)"/><path d="M907.06,219.13,875.75,363.07q-4.05,18.3-7.82,36.23a173.37,173.37,0,0,1-33.39,33.23c-4.67-22.66-9.57-45.89-15.1-69.55L804.5,295.57a157.15,157.15,0,0,0,1.59-22.9c0-23.73-6.31-41.39-18.52-53.5L762.12,104.31C836.31,109.69,893.66,143.3,907.06,219.13Z" transform="translate(-474.12 -88.95)"/><path d="M770.43,207.39c-12.8-6-28.93-8.85-48.21-8.85H674l-7.2,42.85L631.94,107.14H748.21Z" transform="translate(-474.12 -88.95)"/><path class="cls-2" d="M787.57,219.17a60,60,0,0,0-17.14-11.78L748.21,107.14H631.94L666.8,241.39,662.33,268l-42.7-164.46H740q11.28,0,22.14.77Z" transform="translate(-474.12 -88.95)"/><rect class="cls-3" x="723.13" y="525.56" width="222" height="134" transform="translate(-550.34 36.52) rotate(-8.23)"/><line class="cls-4" x1="360.01" y1="503.61" x2="456.72" y2="422.9"/><line class="cls-4" x1="241.01" y1="453.61" x2="360.01" y2="503.61"/><path class="cls-5" d="M522.08,606.41h7.7l4.39,19.11,1.43,7.92h.22c.37-3.84,1-10.17,1.56-12.93l2.79-14.1h7.26l-7.3,36.49h-7.52L528,623.8l-1.43-7.94h-.22c-.38,4-.94,9.88-1.62,13.41L522,642.9h-7.25Z" transform="translate(-474.12 -88.95)"/><path class="cls-5" d="M550.35,631.25c0-10,7.61-16.8,16.12-16.8,7.19,0,11.29,4.47,11.29,10.92a21.09,21.09,0,0,1-.93,5.8H556.08l.85-5H572.6l-2.2,1.17a8.19,8.19,0,0,0,.34-2.16c0-3.17-1.75-4.87-4.49-4.87-3.57,0-8.25,3.49-8.25,10.62,0,5,2.93,6.75,6.48,6.75a14.7,14.7,0,0,0,8.33-2.93l2.55,5.1a22,22,0,0,1-12.65,3.71C555.58,643.58,550.35,639.67,550.35,631.25Z" transform="translate(-474.12 -88.95)"/><path class="cls-5" d="M584,615.12h7.33l-1,13.49c-.24,2.74-.5,5.4-.67,8.17h.22c.87-2.77,1.78-5.53,2.9-8.19l4-10.07h5.58l.11,10.07c0,2.76-.08,5.42-.2,8.19h.22c.93-2.77,1.63-5.42,2.48-8.17l4.27-13.49h7.06l-10,27.78h-8.66l.19-10.12c.06-2.57.32-4.91.52-7.91h-.22c-.85,3-1.33,4.78-2.45,8l-3.67,10h-9Z" transform="translate(-474.12 -88.95)"/><path class="cls-5" d="M617.1,638.47l4.22-4.8a13.54,13.54,0,0,0,9.78,4.2c2.6,0,4.18-.78,4.18-2.33s-1.38-2.31-5.47-3.62c-5.61-1.82-8.66-4.32-8.66-8.53,0-5.89,5.5-8.94,11.73-8.94A16,16,0,0,1,644.61,619l-4.18,4.5a13.73,13.73,0,0,0-8.4-3.35c-2.24,0-3.68.77-3.68,2.29s1.55,2.23,5.83,3.7c5,1.68,8.3,3.81,8.3,8.36,0,6.28-5.54,9.08-12.65,9.08A17.6,17.6,0,0,1,617.1,638.47Z" transform="translate(-474.12 -88.95)"/><path class="cls-5" d="M683.5,636.44l5-4.36c2.06,3.17,4.92,4.9,8.39,4.9s5.62-1.44,5.62-4c0-2.11-1.61-3.28-4.21-4.82l-3.39-2c-3.31-2-6.11-5-6.11-9.71,0-6.47,5.44-10.64,12.44-10.64a15,15,0,0,1,12.12,6.08l-4.9,4.2a9.46,9.46,0,0,0-7.28-3.78c-2.51,0-4.45,1.33-4.45,3.58,0,1.88,1.47,3,3.44,4.29l3.94,2.51c3.56,2.31,6.28,4.83,6.28,9.74,0,7.29-5.93,11.22-13.3,11.22C690.53,643.58,686.06,640.56,683.5,636.44Z" transform="translate(-474.12 -88.95)"/><path class="cls-5" d="M718.35,631.25c0-10,7.61-16.8,16.12-16.8,7.19,0,11.29,4.47,11.29,10.92a21.09,21.09,0,0,1-.93,5.8H724.08l.84-5H740.6l-2.2,1.17a8.62,8.62,0,0,0,.34-2.16c0-3.17-1.75-4.87-4.49-4.87-3.57,0-8.25,3.49-8.25,10.62,0,5,2.93,6.75,6.48,6.75a14.7,14.7,0,0,0,8.33-2.93l2.55,5.1a22,22,0,0,1-12.65,3.71C723.57,643.58,718.35,639.67,718.35,631.25Z" transform="translate(-474.12 -88.95)"/><path class="cls-5" d="M758.91,615.07l6.25,0-.81,7.42h.22c3-4.93,7.25-8.09,11.48-8.09a10.38,10.38,0,0,1,5.49,1.2l-2.75,6.6a8.79,8.79,0,0,0-4.25-1c-3.68,0-7.72,3.61-10.93,9.37l-2.49,12.25h-7.67Z" transform="translate(-474.12 -88.95)"/><path class="cls-5" d="M786.89,615.12h7.57l2,13.69c.39,2.77.66,5.6,1,8.46h.22c1.25-2.77,2.74-5.67,4.21-8.47l7.2-13.68h7.61L800.94,642.9H792Z" transform="translate(-474.12 -88.95)"/><path class="cls-5" d="M826.87,635.61a13.77,13.77,0,0,1,.51-3.34l2.78-11.17H821l1.25-6h16.81L835,632.63a5.88,5.88,0,0,0-.22,1.46c0,2.29,1.35,3.22,3.33,3.22a11.27,11.27,0,0,0,4.36-1.12L844,642a20.14,20.14,0,0,1-8.3,1.63C830.36,643.58,826.87,640.58,826.87,635.61Zm4.07-29.28a5.51,5.51,0,0,1,5.6-5.32c2.85,0,4.9,1.53,4.9,4.36a5.43,5.43,0,0,1-5.66,5.32C833.26,610.69,830.94,609.26,830.94,606.33Z" transform="translate(-474.12 -88.95)"/><path class="cls-5" d="M853.54,631.43a16.66,16.66,0,0,1,16.93-17,13.55,13.55,0,0,1,10.69,5.07l-4.65,4.25a8.58,8.58,0,0,0-6.6-3c-4.31,0-8.61,4.35-8.61,10,0,4.49,3.05,6.59,6.64,6.59,2.78,0,4.86-1.35,7-3.15l2.71,5.19a15.64,15.64,0,0,1-10.86,4.23C859.58,643.58,853.54,639.54,853.54,631.43Z" transform="translate(-474.12 -88.95)"/><path class="cls-5" d="M886.35,631.25c0-10,7.6-16.8,16.12-16.8,7.19,0,11.29,4.47,11.29,10.92a21.09,21.09,0,0,1-.93,5.8H892.08l.84-5h15.67l-2.19,1.17a8.61,8.61,0,0,0,.33-2.16c0-3.17-1.75-4.87-4.49-4.87-3.56,0-8.24,3.49-8.24,10.62,0,5,2.92,6.75,6.48,6.75a14.67,14.67,0,0,0,8.32-2.93l2.56,5.1a22,22,0,0,1-12.65,3.71C891.57,643.58,886.35,639.67,886.35,631.25Z" transform="translate(-474.12 -88.95)"/><circle class="cls-6" cx="133.5" cy="442.16" r="66.57"/><ellipse class="cls-6" cx="607.32" cy="531.42" rx="38.12" ry="66.57" transform="translate(-475.44 -87.43) rotate(-0.14)"/><path class="cls-6" d="M557.27,574.65c7.37-8.57,27.15-14.73,50.42-14.79,22.18-.06,41.23,5.46,49.38,13.36" transform="translate(-474.12 -88.95)"/><path class="cls-6" d="M657.31,485.87c-7.84,8.19-27.16,14-49.77,14.08-22.18.05-41.23-5.46-49.38-13.37" transform="translate(-474.12 -88.95)"/><ellipse class="cls-6" cx="607.35" cy="530.82" rx="0.04" ry="66.57" transform="translate(-475.44 -87.43) rotate(-0.14)"/></svg>