<svg xmlns="http://www.w3.org/2000/svg" xmlns:xlink="http://www.w3.org/1999/xlink" viewBox="0 0 700 700"><defs><style>.cls-1{fill:gray;}.cls-2{fill:url(#linear-gradient);}.cls-3{fill:none;}.cls-4{fill:#666;}</style><linearGradient id="linear-gradient" x1="757.56" y1="89.45" x2="758.83" y2="89.45" gradientUnits="userSpaceOnUse"><stop offset="0.31" stop-color="#ffa555"/><stop offset="0.61" stop-color="#f15a24"/><stop offset="0.99" stop-color="#c1272d"/></linearGradient></defs><title>logover2_placeholder</title><g id="Layer_2" data-name="Layer 2"><rect class="cls-1" width="700" height="700"/></g><g id="Layer_14" data-name="Layer 14"><path class="cls-2" d="M758.83,89.49c-.42,0-.85-.06-1.27-.07h1.26Z" transform="translate(-416 -47)"/><path class="cls-3" d="M1074.12,89.42,920.5,682.69H770l-50.27-193.6q5.58-.55,11-1.31l47.64,183.45H910.29l146.07-564.09H944.14L919.83,218.88a175.25,175.25,0,0,0-6.69-27.68L935.28,89.42Z" transform="translate(-416 -47)"/><path class="cls-3" d="M793.56,272.67a132.82,132.82,0,0,1-2.62,27.3L774.56,226C790.63,237.87,793.56,256,793.56,272.67Z" transform="translate(-416 -47)"/><path class="cls-3" d="M879,406.67c-10.12,48-19.17,94.37-30.84,143.9h-3c-7.65-32.46-14-63.55-20.32-94.65q6.55-4,12.7-8.4c.32,1.51.62,3,.93,4.52,3,14.5,6,29.23,9.13,44.17,4.2-19.42,8.15-38.54,12-57.29q1.29-6.26,2.6-12.57A185.58,185.58,0,0,0,879,406.67Z" transform="translate(-416 -47)"/><path class="cls-4" d="M1056.36,107.14,910.29,671.23H778.42L730.78,487.78c35.61-4.89,67.37-15.63,94.12-31.86,6.35,31.1,12.67,62.19,20.32,94.65h3C859.87,501,868.92,454.71,879,406.67a201.06,201.06,0,0,0,24.35-43.55c12.73-31.1,19.19-67.45,19.19-108.06a227.68,227.68,0,0,0-2.75-36.18l24.31-111.74Z" transform="translate(-416 -47)"/><path class="cls-3" d="M806.09,272.67a157.15,157.15,0,0,1-1.59,22.9l-16.93-76.4C799.78,231.28,806.09,248.94,806.09,272.67Z" transform="translate(-416 -47)"/><path class="cls-3" d="M796.43,324.73c-14.94,34.21-46.89,53.16-93.47,55.9l-3.75-14.42c52.24-2.1,83-24.33,91.73-66.24Z" transform="translate(-416 -47)"/><path class="cls-3" d="M922.58,255.06c0,40.61-6.46,77-19.19,108.06A201.06,201.06,0,0,1,879,406.67c2.56-12.14,5.19-24.38,8-36.82l.65-3c13.31-28,21.22-61.9,22.27-102.39l9.92-45.59A227.68,227.68,0,0,1,922.58,255.06Z" transform="translate(-416 -47)"/><path class="cls-3" d="M730.78,487.78q-5.46.75-11,1.31L716,474.82c3.71-.34,7.41-.75,11.07-1.22Z" transform="translate(-416 -47)"/><path class="cls-3" d="M837.6,447.52q-6.15,4.43-12.7,8.4-1.49-7.32-3-14.65,6.51-4.09,12.64-8.74Q836.09,440.08,837.6,447.52Z" transform="translate(-416 -47)"/><path class="cls-3" d="M824.9,455.92c-26.75,16.23-58.51,27-94.12,31.86L727.1,473.6c35-4.51,67.35-15,94.8-32.33Q823.42,448.61,824.9,455.92Z" transform="translate(-416 -47)"/><path class="cls-3" d="M887.64,366.86l-.65,3c-2.76,12.44-5.39,24.68-8,36.82a185.58,185.58,0,0,1-16.76,19.68q2.78-13.38,5.65-27.05A181.51,181.51,0,0,0,887.64,366.86Z" transform="translate(-416 -47)"/><path class="cls-3" d="M909.91,264.47c.09-3.1.13-6.23.13-9.41a205.86,205.86,0,0,0-3-35.93l6.08-27.93a175.25,175.25,0,0,1,6.69,27.68Z" transform="translate(-416 -47)"/><path class="cls-3" d="M913.14,191.2l-6.08,27.93c-13.4-75.83-70.75-109.44-144.94-114.82l-3.29-14.82C804,92.1,840.69,104.35,868.06,126,889.23,142.74,904.29,164.55,913.14,191.2Z" transform="translate(-416 -47)"/><path class="cls-3" d="M867.93,399.3q-2.88,13.67-5.65,27.05-5.49,5.63-11.46,10.77-6.35,5.47-13.22,10.4-1.51-7.45-3.06-15A173.37,173.37,0,0,0,867.93,399.3Z" transform="translate(-416 -47)"/><path class="cls-3" d="M716,474.82l3.71,14.27a346.39,346.39,0,0,1-34.85,1.72H637.32L603.08,689h-129L577.37,89H740q9,0,17.58.47H616l3.67,14.12h-32L489.41,674.36H592.82l34.24-198.14h57.83C695.43,476.22,705.83,475.76,716,474.82Z" transform="translate(-416 -47)"/><path class="cls-3" d="M703,380.63q-5.51.33-11.29.34l-3.79-14.59h3c2.84,0,5.63-.05,8.35-.17Z" transform="translate(-416 -47)"/><path class="cls-3" d="M691.67,381H643.35l19-113,7.76,29.87-11.51,68.51h29.3Z" transform="translate(-416 -47)"/><path class="cls-3" d="M804.5,295.57a112.86,112.86,0,0,1-8.07,29.16L790.94,300a132.82,132.82,0,0,0,2.62-27.3c0-16.66-2.93-34.8-19-46.63l-4.13-18.65a60,60,0,0,1,17.14,11.78Z" transform="translate(-416 -47)"/><polygon class="cls-3" points="258.56 224.26 254.09 250.87 246.33 221 250.8 194.39 258.56 224.26"/><path class="cls-3" d="M699.21,366.21c-2.72.12-5.51.17-8.35.17h-3l-17.79-68.51,4.47-26.61Z" transform="translate(-416 -47)"/><path class="cls-3" d="M762.12,104.31q-10.85-.77-22.14-.77H619.63L616,89.42h141.6c.42,0,.85,0,1.27.07Z" transform="translate(-416 -47)"/><path class="cls-4" d="M909.91,264.47c-1,40.49-9,74.41-22.27,102.39Z" transform="translate(-416 -47)"/><path class="cls-4" d="M910,255.06c0,3.18,0,6.31-.13,9.41L887.64,366.86a181.51,181.51,0,0,1-19.71,32.44q3.78-17.91,7.82-36.23l31.31-143.94A205.86,205.86,0,0,1,910,255.06Z" transform="translate(-416 -47)"/><path class="cls-4" d="M907.06,219.13,875.75,363.07q-4.05,18.3-7.82,36.23a173.37,173.37,0,0,1-33.39,33.23q-6.12,4.64-12.64,8.74c-4.82-23.48-9.78-47.09-15.47-71.42l-10-45.12a112.86,112.86,0,0,0,8.07-29.16,157.15,157.15,0,0,0,1.59-22.9c0-23.73-6.31-41.39-18.52-53.5L762.12,104.31C836.31,109.69,893.66,143.3,907.06,219.13Z" transform="translate(-416 -47)"/><path class="cls-4" d="M821.9,441.27c-27.45,17.37-59.8,27.82-94.8,32.33-3.66.47-7.36.88-11.07,1.22-10.2.94-20.6,1.4-31.14,1.4H627.06L592.82,674.36H489.41l98.23-570.82h32L662.33,268l-19,113h48.32q5.79,0,11.29-.34c46.58-2.74,78.53-21.69,93.47-55.9l10,45.12C812.12,394.18,817.08,417.79,821.9,441.27Z" transform="translate(-416 -47)"/><path class="cls-4" d="M790.94,300c-8.74,41.91-39.49,64.14-91.73,66.24l-24.65-94.95-7.76-29.87L631.94,107.14H748.21l22.22,100.25L774.56,226Z" transform="translate(-416 -47)"/><path class="cls-3" d="M787.57,219.17a60,60,0,0,0-17.14-11.78L748.21,107.14H631.94L666.8,241.39,662.33,268l-42.7-164.46H740q11.28,0,22.14.77Z" transform="translate(-416 -47)"/></g></svg>