<svg xmlns="http://www.w3.org/2000/svg" viewBox="0 0 700 700"><defs><style>.cls-1{fill:gray;}.cls-2{fill:#4d4d4d;}</style></defs><title>placeholderdarkgrey</title><g id="Layer_2" data-name="Layer 2"><rect class="cls-1" width="700" height="700"/></g><g id="Layer_10" data-name="Layer 10"><path class="cls-2" d="M897.68,447.13a180,180,0,0,0,85-15l36,106q50.51-219,101-438h91l-117,520h-147Z" transform="translate(-563 -5)"/><path class="cls-2" d="M792.68,93h88q32.51,108,65,216a71.31,71.31,0,0,1-76,37Q831.18,219.51,792.68,93Z" transform="translate(-563 -5)"/><path class="cls-2" d="M1069.46,256.87a223.23,223.23,0,0,0-8-50.93c-1.39-5-10.92-33.43-31.83-57.31-42-48-107.21-50.64-119.39-50.93h-25L921.8,217.07a55.46,55.46,0,0,1,34.65,36.62,80.61,80.61,0,0,1-6.37,54.12,70.19,70.19,0,0,1-55.71,41.39l-88.57-1.33,19.74-131.45L788.82,97.7H732L639.68,624.58H765.43l27.06-181.47,113,3.19c14.93,0,84.15-1.44,124.16-50.94,19.39-24,27.33-53.74,31.83-70A224,224,0,0,0,1069.46,256.87Z" transform="translate(-563 -5)"/></g></svg>