<svg xmlns="http://www.w3.org/2000/svg" xmlns:xlink="http://www.w3.org/1999/xlink" viewBox="0 0 700 700"><defs><style>.cls-1{fill:gray;}.cls-2{fill:url(#linear-gradient);}.cls-3{fill:url(#linear-gradient-2);}.cls-4{fill:#ffb56a;}</style><linearGradient id="linear-gradient" x1="631" y1="348.01" x2="1060.95" y2="348.01" gradientUnits="userSpaceOnUse"><stop offset="0.31" stop-color="#1e9cd7"/><stop offset="0.61" stop-color="#0075be"/><stop offset="0.99" stop-color="#005b97"/></linearGradient><linearGradient id="linear-gradient-2" x1="897" y1="351" x2="1210" y2="351" gradientUnits="userSpaceOnUse"><stop offset="0.31" stop-color="#ffa555"/><stop offset="0.61" stop-color="#f15a24"/><stop offset="0.99" stop-color="#c1272d"/></linearGradient></defs><title>placecholdercolor</title><g id="Layer_2" data-name="Layer 2"><rect class="cls-1" width="700" height="700"/></g><g id="Layer_3" data-name="Layer 3"><path class="cls-2" d="M1060.78,243.75a223.23,223.23,0,0,0-8-50.94c-1.39-5-10.92-33.42-31.83-57.31-42-48-107.21-50.64-119.39-50.93H723.32L631,611.45H756.75L783.81,430l113,3.18c14.93,0,84.15-1.44,124.16-50.94,19.39-24,27.33-53.74,31.83-70A224,224,0,0,0,1060.78,243.75ZM949.36,267.62a80.74,80.74,0,0,1-8,27.06,70.19,70.19,0,0,1-55.71,41.39l-88.57-1.33,20.12-134H900c5.25.65,21.82,3.41,35,17.51a56.25,56.25,0,0,1,12.74,22.28A81,81,0,0,1,949.36,267.62Z" transform="translate(-563 -5)"/></g><g id="Layer_8" data-name="Layer 8"><path class="cls-3" d="M897,438a180,180,0,0,0,85-15l36,106q50.51-219,101-438h91L1093,611H946Z" transform="translate(-563 -5)"/></g><g id="Layer_9" data-name="Layer 9"><path class="cls-4" d="M785,76h88q32.5,108,65,216a71.31,71.31,0,0,1-76,37Q823.5,202.51,785,76Z" transform="translate(-563 -5)"/></g></svg>