<svg id="Layer_20" data-name="Layer 20" xmlns="http://www.w3.org/2000/svg" xmlns:xlink="http://www.w3.org/1999/xlink" viewBox="0 0 600.11 600"><defs><style>.cls-1{fill:url(#linear-gradient);}.cls-2{fill:none;}.cls-3{fill:#c67500;}.cls-4{fill:#ff9d43;}.cls-5{fill:#ff8e1b;}.cls-6{fill:#e5e5e5;}</style><linearGradient id="linear-gradient" x1="646.92" y1="77.94" x2="648.19" y2="77.94" gradientUnits="userSpaceOnUse"><stop offset="0.31" stop-color="#ffa555"/><stop offset="0.61" stop-color="#f15a24"/><stop offset="0.99" stop-color="#c1272d"/></linearGradient></defs><title>logo_booking</title><path class="cls-1" d="M648.19,78c-.41,0-.85-.06-1.27-.07h1.26Z" transform="translate(-363.37 -77.43)"/><path class="cls-2" d="M963.48,77.9,809.86,671.17H659.37L609.1,477.57q5.58-.56,11-1.31l47.64,183.45H799.65L945.72,95.62H833.5L809.19,207.36a175.25,175.25,0,0,0-6.69-27.68L824.64,77.9Z" transform="translate(-363.37 -77.43)"/><path class="cls-2" d="M682.92,261.15a132.82,132.82,0,0,1-2.62,27.3l-16.38-73.93C680,226.35,682.92,244.49,682.92,261.15Z" transform="translate(-363.37 -77.43)"/><path class="cls-2" d="M768.4,395.15c-10.12,48-19.17,94.37-30.84,143.9h-3c-7.65-32.46-14-63.55-20.32-94.65q6.56-4,12.7-8.4c.32,1.51.62,3,.93,4.52,3,14.5,6,29.23,9.13,44.17,4.2-19.42,8.15-38.54,12-57.29q1.29-6.25,2.6-12.57A185.58,185.58,0,0,0,768.4,395.15Z" transform="translate(-363.37 -77.43)"/><path class="cls-3" d="M945.72,95.62,799.65,659.71H667.78L620.14,476.26c35.61-4.89,67.37-15.63,94.12-31.86,6.35,31.1,12.67,62.19,20.32,94.65h3c11.67-49.53,20.72-95.86,30.84-143.9a201.06,201.06,0,0,0,24.35-43.55c12.73-31.1,19.19-67.45,19.19-108.06a227.68,227.68,0,0,0-2.75-36.18L833.5,95.62Z" transform="translate(-363.37 -77.43)"/><path class="cls-3" d="M680.3,288.45c-8.74,41.91-39.49,64.14-91.73,66.24l-24.65-94.95-7.76-29.87L521.3,95.62H637.57l22.22,100.25,4.13,18.65Z" transform="translate(-363.37 -77.43)"/><path class="cls-2" d="M695.45,261.15a157.15,157.15,0,0,1-1.59,22.9l-16.93-76.4C689.14,219.76,695.45,237.42,695.45,261.15Z" transform="translate(-363.37 -77.43)"/><path class="cls-2" d="M685.79,313.21c-14.94,34.21-46.89,53.16-93.47,55.9l-3.75-14.42c52.24-2.1,83-24.33,91.73-66.24Z" transform="translate(-363.37 -77.43)"/><path class="cls-2" d="M811.94,243.54c0,40.61-6.46,77-19.19,108.06a201.06,201.06,0,0,1-24.35,43.55c2.56-12.14,5.19-24.38,8-36.82l.65-3c13.31-28,21.22-61.9,22.27-102.39l9.92-45.59A227.68,227.68,0,0,1,811.94,243.54Z" transform="translate(-363.37 -77.43)"/><path class="cls-2" d="M620.14,476.26q-5.46.75-11,1.31l-3.71-14.27c3.71-.34,7.41-.75,11.07-1.22Z" transform="translate(-363.37 -77.43)"/><path class="cls-2" d="M727,436q-6.15,4.42-12.7,8.4-1.49-7.32-3-14.65,6.51-4.1,12.64-8.74Q725.45,428.56,727,436Z" transform="translate(-363.37 -77.43)"/><path class="cls-2" d="M714.26,444.4c-26.75,16.23-58.51,27-94.12,31.86l-3.68-14.18c35-4.51,67.35-15,94.8-32.33Q712.78,437.09,714.26,444.4Z" transform="translate(-363.37 -77.43)"/><path class="cls-2" d="M777,355.34l-.65,3c-2.76,12.44-5.39,24.68-8,36.82a185.58,185.58,0,0,1-16.76,19.68q2.77-13.38,5.65-27.05A181.51,181.51,0,0,0,777,355.34Z" transform="translate(-363.37 -77.43)"/><path class="cls-2" d="M799.27,253c.09-3.1.13-6.23.13-9.41a205.86,205.86,0,0,0-3-35.93l6.08-27.93a175.25,175.25,0,0,1,6.69,27.68Z" transform="translate(-363.37 -77.43)"/><path class="cls-2" d="M802.5,179.68l-6.08,27.93C783,131.78,725.67,98.17,651.48,92.79L648.19,78c45.18,2.61,81.86,14.86,109.23,36.5C778.59,131.22,793.65,153,802.5,179.68Z" transform="translate(-363.37 -77.43)"/><path class="cls-2" d="M757.29,387.78q-2.88,13.67-5.65,27.05-5.49,5.63-11.46,10.77Q733.84,431.08,727,436q-1.51-7.46-3.06-15A173.37,173.37,0,0,0,757.29,387.78Z" transform="translate(-363.37 -77.43)"/><path class="cls-2" d="M605.39,463.3l3.71,14.27a346.39,346.39,0,0,1-34.85,1.72H526.68L492.44,677.43h-129l103.25-600H629.34q9,0,17.58.47H505.32L509,92H477L378.77,662.84H482.18L516.42,464.7h57.83C584.79,464.7,595.19,464.24,605.39,463.3Z" transform="translate(-363.37 -77.43)"/><path class="cls-2" d="M592.32,369.11q-5.51.33-11.29.34l-3.79-14.59h3c2.84,0,5.63-.05,8.35-.17Z" transform="translate(-363.37 -77.43)"/><path class="cls-2" d="M581,369.45H532.71l19-113,7.76,29.87-11.51,68.51h29.3Z" transform="translate(-363.37 -77.43)"/><path class="cls-2" d="M693.86,284.05a112.86,112.86,0,0,1-8.07,29.16l-5.49-24.76a132.82,132.82,0,0,0,2.62-27.3c0-16.66-2.93-34.8-19-46.63l-4.13-18.65a60,60,0,0,1,17.14,11.78Z" transform="translate(-363.37 -77.43)"/><polygon class="cls-2" points="200.55 182.31 196.08 208.92 188.32 179.05 192.79 152.44 200.55 182.31"/><path class="cls-2" d="M588.57,354.69c-2.72.12-5.51.17-8.35.17h-3l-17.79-68.51,4.47-26.61Z" transform="translate(-363.37 -77.43)"/><path class="cls-2" d="M651.48,92.79Q640.64,92,629.34,92H509L505.32,77.9h141.6c.42,0,.86,0,1.27.07Z" transform="translate(-363.37 -77.43)"/><path class="cls-3" d="M799.4,243.54c0,3.18,0,6.31-.13,9.41-1,40.49-9,74.41-22.27,102.39a181.51,181.51,0,0,1-19.71,32.44A173.37,173.37,0,0,1,723.9,421q-6.12,4.64-12.64,8.74c-27.45,17.37-59.8,27.82-94.8,32.33-3.66.47-7.36.88-11.07,1.22-10.2.94-20.6,1.4-31.14,1.4H516.42L482.18,662.84H378.77L477,92h32l42.7,164.46-19,113H581q5.79,0,11.29-.34c46.58-2.74,78.53-21.69,93.47-55.9a112.86,112.86,0,0,0,8.07-29.16,157.15,157.15,0,0,0,1.59-22.9c0-23.73-6.31-41.39-18.52-53.5L651.48,92.79c74.19,5.38,131.54,39,144.94,114.82A205.86,205.86,0,0,1,799.4,243.54Z" transform="translate(-363.37 -77.43)"/><path class="cls-2" d="M676.93,207.65a60,60,0,0,0-17.14-11.78L637.57,95.62H521.3l34.86,134.25-4.47,26.61L509,92H629.34q11.28,0,22.14.77Z" transform="translate(-363.37 -77.43)"/><path class="cls-4" d="M597.28,548.39a19.72,19.72,0,0,0-4.54,6.74q-1.53,3.78-2.71,14.8a148.45,148.45,0,0,1-3,18.49,41.71,41.71,0,0,1-6.21,13.91,31.53,31.53,0,0,1-11.19,10.11,30,30,0,0,1-14.55,3.67q-7,0-10.64-3.18t-3.69-9a16.57,16.57,0,0,1,.32-3.52,25.35,25.35,0,0,1,5.85-4.29c2.27-1.23,3.78-1.84,4.55-1.84,1.25,0,1.88,1,1.88,3.12,0,.34-.14,1.53-.42,3.55s-.42,3.25-.42,3.67q0,7,5.55,7t9.72-7.92q4.13-7.92,5.93-23.66t5-21.73a24.44,24.44,0,0,1,8.13-9.2c3.27-2.14,5.82-3.21,7.63-3.21C595.42,545.84,596.34,546.69,597.28,548.39Zm-1.73,22a8.61,8.61,0,0,0,8.16-4.8,21.9,21.9,0,0,0,2.56-10.48q0-7.85-4.78-12.53t-12.89-4.69a30.78,30.78,0,0,0-19.55,6.85q-8.67,6.84-8.67,15.14,0,4.93,4.91,7.21c.84.38,1.25.74,1.25,1.08v1.76q0,1.26-4.15,3.13t-5.46,1.87q-2,0-4.13-3.61a14.63,14.63,0,0,1-2.1-7.47q0-6.75,5.1-14.14a36.07,36.07,0,0,1,14.38-11.87,48.19,48.19,0,0,1,21.3-4.49q12.85,0,20.83,5.85t8,15q0,13.63-17.77,18.63,13.95,4.71,14,18.58a24.12,24.12,0,0,1-7,17.35A22.39,22.39,0,0,1,592.78,616a12.87,12.87,0,0,1-7.16-1.87q-2.86-1.87-2.87-4.54a10.21,10.21,0,0,1,1.83-4.78c1.22-2,2.35-3,3.4-3,1.42,0,2.28,1.82,2.56,5.46.21,2.87,1,4.31,2.45,4.31q3.51,0,6.2-8.46a56,56,0,0,0,2.69-17q0-10.39-6.85-11.54Z" transform="translate(-363.37 -77.43)"/><path class="cls-4" d="M668.58,602.13a17.36,17.36,0,0,1-5.17,3.61,11.16,11.16,0,0,1-4,1,11.49,11.49,0,0,1-7.47-3.18Q644.43,616,634.71,616a11.77,11.77,0,0,1-9.83-4.94q-3.76-4.93-3.76-13.12a31.87,31.87,0,0,1,8.46-22.24q8.48-9.29,20.23-9.29a15.08,15.08,0,0,1,6.51,1.05,4.7,4.7,0,0,1,2.54,2.47,11.68,11.68,0,0,1,.47,3.58q0,10.62-5.33,26.08a7.88,7.88,0,0,0,5.59,2.67q3.49,0,9-6.65Zm-17.25-31.75a5.77,5.77,0,0,0-2.25-.34q-6.8,0-10.64,7.72a40.12,40.12,0,0,0-3.84,18.07c0,3.82.56,6.8,1.68,8.92s2.66,3.18,4.65,3.18q3.71,0,8.05-7.44a23.92,23.92,0,0,1-4.92-14.43Q644.06,577,651.33,570.38Z" transform="translate(-363.37 -77.43)"/><path class="cls-4" d="M715.47,602.13a17.27,17.27,0,0,1-5.18,3.61,11.07,11.07,0,0,1-4,1,11.49,11.49,0,0,1-7.47-3.18Q691.32,616,681.6,616a11.77,11.77,0,0,1-9.83-4.94Q668,606.12,668,597.93a31.87,31.87,0,0,1,8.46-22.24q8.47-9.29,20.23-9.29a15.11,15.11,0,0,1,6.51,1.05,4.7,4.7,0,0,1,2.54,2.47,11.68,11.68,0,0,1,.47,3.58q0,10.62-5.34,26.08a7.91,7.91,0,0,0,5.6,2.67q3.49,0,9-6.65Zm-17.25-31.75A5.77,5.77,0,0,0,696,570q-6.79,0-10.64,7.72a40.12,40.12,0,0,0-3.84,18.07c0,3.82.56,6.8,1.67,8.92s2.67,3.18,4.66,3.18q3.7,0,8-7.44A23.92,23.92,0,0,1,691,586.06Q691,577,698.22,570.38Z" transform="translate(-363.37 -77.43)"/><path class="cls-4" d="M766.75,602Q754.89,616.11,747,616.11a8.13,8.13,0,0,1-6.32-2.87,10.22,10.22,0,0,1-2.56-7.07,41.5,41.5,0,0,1,.62-6c.42-2.65.63-4.15.63-4.49,0-1.74-.91-2.64-2.72-2.69s-2.72-.83-2.72-2.31a3.81,3.81,0,0,1,.76-2.69,4,4,0,0,1,2.85-.77c3.83-.11,6.69-1,8.57-2.59A7.26,7.26,0,0,0,749,579a5.14,5.14,0,0,0-1.55-3.84,5.4,5.4,0,0,0-3.94-1.5A9.05,9.05,0,0,0,741,574a9.24,9.24,0,0,0-2.41,1,20.3,20.3,0,0,0-2.51,1.87,34.59,34.59,0,0,0-2.66,2.9q-1.36,1.65-3,3.92-.84,1.2-2.09,11.19-.63,5.17-.84,9.55-.21,4.08,0,9.26l-11.87,2.15a69.71,69.71,0,0,1-.68-10.56,123.18,123.18,0,0,1,4.24-32.55A131.48,131.48,0,0,1,733,540.84q7.47-3.3,12.91-5.14a46.66,46.66,0,0,1,6.07-1.85c.83,0,1.65.91,2.45,2.73a14.05,14.05,0,0,1,1.2,5.73,24.3,24.3,0,0,1-3.08,11.05A100.34,100.34,0,0,1,743,567.82a25.5,25.5,0,0,1,7.37-1.42,11.62,11.62,0,0,1,7.95,2.7,8.68,8.68,0,0,1,3.08,6.84q0,9.43-15.62,13.87,6.1,1.53,6.11,7.78l-.31,5.11q0,3.46,3,3.47c1.39,0,3-.74,4.75-2.22a58.21,58.21,0,0,0,7.48-8.46Zm-34.29-27.38,3.45-4.15q15.32-18.75,15.31-26.41,0-3.52-2.82-3.53-3.24,0-7.45,8.3T732.46,574.64Z" transform="translate(-363.37 -77.43)"/><path class="cls-4" d="M792.42,602.13q-12.24,14-18.3,14-3.35,0-5.65-3.72a17.53,17.53,0,0,1-2.3-9.35q0-12.09,7.53-33.51l13.28-3h.63l-5.23,17.78q-3.24,11-3.24,15.74a5.46,5.46,0,0,0,.76,3,2.21,2.21,0,0,0,1.9,1.16,6.66,6.66,0,0,0,4.11-1.61,53.67,53.67,0,0,0,6.51-7Zm-1-57.83q0,13.63-9.25,13.64a10.92,10.92,0,0,1-7.69-3,43.13,43.13,0,0,0,4.71-11.25q4.13,2.79,6.64,2.79A8.92,8.92,0,0,0,791.37,544.3Z" transform="translate(-363.37 -77.43)"/><path class="cls-4" d="M843.75,602.13Q831.68,616,823.05,616a6.89,6.89,0,0,1-5.65-2.67,11.08,11.08,0,0,1-2.14-7.15q0-6.09,4.6-18.58c1.64-4.47,2.45-7.31,2.45-8.52s-.43-1.82-1.3-1.82a3.94,3.94,0,0,0-1.94.8,25.7,25.7,0,0,0-2.56,2.21c-.87.87-1.84,1.93-2.93,3.18-.94,1.06-2,2.28-3,3.64l-2.92,3.69a12.27,12.27,0,0,0-2.41,5.4q-.78,4.83-1,8.86-.16,3-.16,8.12l-11.55,3q-.59-7.67-.58-11.42a74,74,0,0,1,2-17.33,119.22,119.22,0,0,1,6.3-18.4l12.76-2.67a138.39,138.39,0,0,0-5.28,18.52q8.57-10.39,13.6-14.4t8.95-4a5.5,5.5,0,0,1,4.43,2.18,8.39,8.39,0,0,1,1.78,5.48q0,5.45-4.5,17.94-3.07,8.58-3.08,11.15c0,2.27.86,3.41,2.57,3.41q3.82,0,12.37-11Z" transform="translate(-363.37 -77.43)"/><path class="cls-4" d="M895,602.13a40.08,40.08,0,0,1-15.89,11.13q-4.33,14.72-11,22.67t-14.14,8a8.44,8.44,0,0,1-6.59-2.79,10.48,10.48,0,0,1-2.51-7.32,14.82,14.82,0,0,1,5-10.91q5-4.83,17-9.32l2.25-11.19a59.82,59.82,0,0,1-8.68,9,11.86,11.86,0,0,1-7.37,2.87c-2.89,0-5.26-1.47-7.11-4.43s-2.77-6.8-2.77-11.53q0-11.6,8.13-21.73t17.27-10.14q5.07,0,9,4.66,2.34-.91,6.11-2.73l3.71-1.82h1.2a109.65,109.65,0,0,0-3.13,13.07L880.55,608q7.05-2.89,14.48-12.44Zm-29.28,16.42q-16.87,6.59-16.88,15.23a6.12,6.12,0,0,0,1.41,4.17,4.57,4.57,0,0,0,3.61,1.62q3.76,0,6.53-5.17T865.75,618.55ZM861.36,604c2.48,0,4.67-1.59,6.59-4.77a39.88,39.88,0,0,0,4.47-12.1A57.47,57.47,0,0,0,874,577a7.53,7.53,0,0,0-1.22-4.41,3.66,3.66,0,0,0-3.06-1.73q-5.55,0-9.67,8.13a36,36,0,0,0-4.13,16.53,11.29,11.29,0,0,0,1.49,6.22A4.51,4.51,0,0,0,861.36,604Z" transform="translate(-363.37 -77.43)"/><path class="cls-4" d="M545.11,495.16h18.78c11.48,0,20.73,2.59,20.73,10.61,0,7.78-9.51,11.2-20.73,11.2h-6.8v11.2h-12ZM563.19,511c6.57,0,9.69-1.83,9.69-5.27s-3.38-4.68-9.69-4.68h-6.1v10Z" transform="translate(-363.37 -77.43)"/><path class="cls-4" d="M590.86,511.51c0-11,8.68-17,21.29-17s21.29,5.93,21.29,17c0,11.29-8.69,17.27-21.29,17.27S590.86,522.8,590.86,511.51Zm30.29,0c0-6.86-3.48-10.51-9-10.51s-9,3.65-9,10.51c0,7.12,3.49,10.81,9,10.81S621.15,518.63,621.15,511.51Z" transform="translate(-363.37 -77.43)"/><path class="cls-4" d="M639.59,511.51c0-11,8.68-17,21.29-17s21.28,5.93,21.28,17c0,11.29-8.68,17.27-21.28,17.27S639.59,522.8,639.59,511.51Zm30.29,0c0-6.86-3.48-10.51-9-10.51s-9,3.65-9,10.51c0,7.12,3.48,10.81,9,10.81S669.88,518.63,669.88,511.51Z" transform="translate(-363.37 -77.43)"/><path class="cls-4" d="M690.61,495.16h12.28L714,511.57l4.54,7.25h.27c-.53-3.47-1.65-8.1-1.65-12V495.16H728.6v33H716.32l-11.14-16.45-4.53-7.22h-.28c.54,3.65,1.66,8.08,1.66,12v11.71H690.61Z" transform="translate(-363.37 -77.43)"/><path class="cls-4" d="M735.15,495.16h12.7l6.36,15.37c1.58,3.61,2.64,7,4.24,10.58h.32c1.6-3.63,2.75-7,4.24-10.58l6.25-15.37h12.25l-16,33H751.15Z" transform="translate(-363.37 -77.43)"/><path class="cls-4" d="M790.2,495.16h35.08v6.26h-23.1V508h19.63v6.27H802.18v7.59h23.91v6.27H790.2Z" transform="translate(-363.37 -77.43)"/><path class="cls-4" d="M836.61,495.16h12v12.71H863V495.16h12v33H863V514.39H848.61v13.78h-12Z" transform="translate(-363.37 -77.43)"/><path class="cls-4" d="M676,667.7l4-4.62a13.67,13.67,0,0,0,8.27,3.1c3,0,4.37-1.1,4.37-2.55,0-2.14-1.85-2.66-4.79-3.84l-4.06-1.65c-3.44-1.25-6.59-3.77-6.59-8.09,0-4.92,4.64-8.85,11.4-8.85A15.48,15.48,0,0,1,699,645.09l-3.55,4.23a11.51,11.51,0,0,0-7.17-2.32c-2.32,0-3.9.92-3.9,2.66s2.09,2.43,5.08,3.5l3.8,1.54c4.08,1.46,6.65,3.88,6.65,8.07,0,4.94-4.34,9.22-12,9.22A18.43,18.43,0,0,1,676,667.7Z" transform="translate(-363.37 -77.43)"/><path class="cls-4" d="M704.85,660.12c0-7.39,6-11.83,12.33-11.83,7.31,0,11.15,4.7,11.15,10.85a18.12,18.12,0,0,1-.29,3h-18v-4.5h13.23l-1.11,1.28c0-3.63-1.65-5.53-4.77-5.53-3.47,0-5.75,2.24-5.75,6.73,0,4.69,2.68,6.75,7.29,6.75a13.4,13.4,0,0,0,6.1-1.57l2.33,4A18.74,18.74,0,0,1,718,672C710.6,672,704.85,667.64,704.85,660.12Z" transform="translate(-363.37 -77.43)"/><path class="cls-4" d="M736.39,648.83h5.78l.55,4.95h.17a11.09,11.09,0,0,1,9.6-5.49,10,10,0,0,1,4.55.91l-1.42,5.63a13,13,0,0,0-4.2-.66c-2.93,0-5.95,1.46-8,5.51v11.76h-7Z" transform="translate(-363.37 -77.43)"/><path class="cls-4" d="M761,648.83h7.05l3.73,10.66c.77,2.27,1.43,4.58,2.13,7h.2c.7-2.38,1.33-4.69,2.11-7L780,648.83h6.72L778,671.44H770Z" transform="translate(-363.37 -77.43)"/><path class="cls-4" d="M801.48,654.09h-9.54v-5.26h16.57v22.61h-7ZM800,641.21c0-2.46,2-4.17,4.67-4.17s4.67,1.71,4.67,4.17-2,4.09-4.67,4.09S800,643.67,800,641.21Z" transform="translate(-363.37 -77.43)"/><path class="cls-4" d="M820,660.15c0-7.53,6.41-11.86,13.71-11.86a13.18,13.18,0,0,1,8.86,3.07l-3.23,4.16a8.91,8.91,0,0,0-5.25-1.82c-4.07,0-6.89,2.53-6.89,6.45s2.77,6.42,6.66,6.42a11.25,11.25,0,0,0,6.23-2.15l2.84,4.23a15.88,15.88,0,0,1-9.74,3.34C825.76,672,820,667.65,820,660.15Z" transform="translate(-363.37 -77.43)"/><path class="cls-4" d="M848.13,660.12c0-7.39,6-11.83,12.32-11.83,7.31,0,11.16,4.7,11.16,10.85a17.9,17.9,0,0,1-.3,3h-18v-4.5h13.22l-1.11,1.28c0-3.63-1.65-5.53-4.76-5.53-3.48,0-5.75,2.24-5.75,6.73,0,4.69,2.67,6.75,7.28,6.75a13.4,13.4,0,0,0,6.1-1.57l2.33,4a18.72,18.72,0,0,1-9.39,2.65C853.87,672,848.13,667.64,848.13,660.12Z" transform="translate(-363.37 -77.43)"/><path class="cls-5" d="M363.37,566.82l20.57,85.28s14.29-13,39.13-18.94,25.33-2.62,25.33-2.62.23,7.54,10.11,5.16l1.49-.36c9.58-2.31,6.35-9.13,6.35-9.13s-.86-3.59,23.67-9.51,43.53-.68,43.53-.68L513,530.74" transform="translate(-363.37 -77.43)"/><path class="cls-6" d="M436.82,543.14S402.35,531.5,371,559l19.12,79.29s23.35-24,65.83-15.88c34.12-26.59,65.83-15.87,65.83-15.87l-19.12-79.3C462.27,517.37,436.82,543.14,436.82,543.14Z" transform="translate(-363.37 -77.43)"/><path class="cls-2" d="M436.82,543.14S402.35,531.5,371,559l19.12,79.29s23.35-24,65.83-15.88c34.12-26.59,65.83-15.87,65.83-15.87l-19.12-79.3C462.27,517.37,436.82,543.14,436.82,543.14Z" transform="translate(-363.37 -77.43)"/><path class="cls-2" d="M363.37,566.82l20.57,85.28s14.29-13,39.13-18.94,25.33-2.62,25.33-2.62.23,7.54,10.11,5.16l1.49-.36c9.58-2.31,6.35-9.13,6.35-9.13s-.86-3.59,23.67-9.51,43.53-.68,43.53-.68L513,530.74" transform="translate(-363.37 -77.43)"/><line class="cls-2" x1="76.97" y1="480.33" x2="87.8" y2="525.21"/></svg>