<svg id="Layer_21" data-name="Layer 21" xmlns="http://www.w3.org/2000/svg" xmlns:xlink="http://www.w3.org/1999/xlink" viewBox="0 0 614.3 600"><defs><style>.cls-1{fill:url(#linear-gradient);}.cls-10,.cls-11,.cls-2,.cls-7,.cls-8{fill:none;}.cls-3{fill:#770006;}.cls-4{fill:#ff1d24;}.cls-5{fill:#7abe90;}.cls-6{fill:#f8b319;}.cls-10,.cls-11,.cls-7,.cls-8{stroke:#2c3e50;stroke-linecap:round;stroke-linejoin:round;stroke-width:2px;}.cls-7{opacity:0.49;}.cls-8{opacity:0.36;}.cls-9{fill:#ffd766;}.cls-10{opacity:0.46;}.cls-11{opacity:0.57;}</style><linearGradient id="linear-gradient" x1="757.03" y1="47.94" x2="758.3" y2="47.94" gradientUnits="userSpaceOnUse"><stop offset="0.31" stop-color="#ffa555"/><stop offset="0.61" stop-color="#f15a24"/><stop offset="0.99" stop-color="#c1272d"/></linearGradient></defs><title>logo_payment</title><path class="cls-1" d="M758.3,48c-.42,0-.85-.06-1.27-.07h1.26Z" transform="translate(-459.29 -47.43)"/><path class="cls-2" d="M1073.59,47.9,920,641.17H769.48l-50.27-193.6q5.58-.56,11-1.31l47.64,183.45H909.76L1055.83,65.62H943.61L919.3,177.36a175.25,175.25,0,0,0-6.69-27.68L934.75,47.9Z" transform="translate(-459.29 -47.43)"/><path class="cls-2" d="M793,231.15a132.82,132.82,0,0,1-2.62,27.3L774,184.52C790.1,196.35,793,214.49,793,231.15Z" transform="translate(-459.29 -47.43)"/><path class="cls-2" d="M878.51,365.15c-10.12,48-19.17,94.37-30.84,143.9h-3c-7.65-32.46-14-63.55-20.32-94.65q6.55-4,12.7-8.4c.32,1.51.62,3,.93,4.52,3,14.5,6,29.23,9.13,44.17,4.2-19.42,8.15-38.54,12-57.29q1.29-6.25,2.6-12.57A185.58,185.58,0,0,0,878.51,365.15Z" transform="translate(-459.29 -47.43)"/><path class="cls-3" d="M1055.83,65.62,909.76,629.71H777.89L730.25,446.26c35.61-4.89,67.37-15.63,94.12-31.86,6.35,31.1,12.67,62.19,20.32,94.65h3c11.67-49.53,20.72-95.86,30.84-143.9a201.06,201.06,0,0,0,24.35-43.55c12.73-31.1,19.19-67.45,19.19-108.06a227.68,227.68,0,0,0-2.75-36.18L943.61,65.62Z" transform="translate(-459.29 -47.43)"/><path class="cls-3" d="M790.41,258.45c-8.74,41.91-39.49,64.14-91.73,66.24L674,229.74l-7.76-29.87L631.41,65.62H747.68L769.9,165.87,774,184.52Z" transform="translate(-459.29 -47.43)"/><path class="cls-2" d="M805.56,231.15a157.15,157.15,0,0,1-1.59,22.9L787,177.65C799.25,189.76,805.56,207.42,805.56,231.15Z" transform="translate(-459.29 -47.43)"/><path class="cls-2" d="M795.9,283.21C781,317.42,749,336.37,702.43,339.11l-3.75-14.42c52.24-2.1,83-24.33,91.73-66.24Z" transform="translate(-459.29 -47.43)"/><path class="cls-2" d="M922.05,213.54c0,40.61-6.46,77-19.19,108.06a201.06,201.06,0,0,1-24.35,43.55c2.56-12.14,5.19-24.38,8-36.82l.65-3c13.31-28,21.22-61.9,22.27-102.39l9.92-45.59A227.68,227.68,0,0,1,922.05,213.54Z" transform="translate(-459.29 -47.43)"/><path class="cls-2" d="M730.25,446.26q-5.46.75-11,1.31L715.5,433.3c3.71-.34,7.41-.75,11.07-1.22Z" transform="translate(-459.29 -47.43)"/><path class="cls-2" d="M837.07,406q-6.15,4.42-12.7,8.4-1.49-7.32-3-14.65,6.51-4.1,12.64-8.74Q835.56,398.56,837.07,406Z" transform="translate(-459.29 -47.43)"/><path class="cls-2" d="M824.37,414.4c-26.75,16.23-58.51,27-94.12,31.86l-3.68-14.18c35-4.51,67.35-15,94.8-32.33Q822.89,407.09,824.37,414.4Z" transform="translate(-459.29 -47.43)"/><path class="cls-2" d="M887.11,325.34l-.65,3c-2.76,12.44-5.39,24.68-8,36.82a185.58,185.58,0,0,1-16.76,19.68q2.78-13.38,5.65-27.05A181.51,181.51,0,0,0,887.11,325.34Z" transform="translate(-459.29 -47.43)"/><path class="cls-2" d="M909.38,223c.09-3.1.13-6.23.13-9.41a205.86,205.86,0,0,0-3-35.93l6.08-27.93a175.25,175.25,0,0,1,6.69,27.68Z" transform="translate(-459.29 -47.43)"/><path class="cls-2" d="M912.61,149.68l-6.08,27.93c-13.4-75.83-70.75-109.44-144.94-114.82L758.3,48c45.18,2.61,81.86,14.86,109.23,36.5C888.7,101.22,903.76,123,912.61,149.68Z" transform="translate(-459.29 -47.43)"/><path class="cls-2" d="M867.4,357.78q-2.88,13.67-5.65,27.05-5.49,5.63-11.46,10.77-6.35,5.47-13.22,10.4-1.52-7.46-3.06-15A173.37,173.37,0,0,0,867.4,357.78Z" transform="translate(-459.29 -47.43)"/><path class="cls-2" d="M715.5,433.3l3.71,14.27a346.39,346.39,0,0,1-34.85,1.72H636.79L602.55,647.43h-129l103.25-600H739.45q9,0,17.58.47H615.43L619.1,62h-32L488.88,632.84H592.29L626.53,434.7h57.83C694.9,434.7,705.3,434.24,715.5,433.3Z" transform="translate(-459.29 -47.43)"/><path class="cls-2" d="M702.43,339.11q-5.5.33-11.29.34l-3.79-14.59h3c2.84,0,5.63-.05,8.35-.17Z" transform="translate(-459.29 -47.43)"/><path class="cls-2" d="M691.14,339.45H642.82l19-113,7.76,29.87-11.51,68.51h29.3Z" transform="translate(-459.29 -47.43)"/><path class="cls-2" d="M804,254.05a112.86,112.86,0,0,1-8.07,29.16l-5.49-24.76a132.82,132.82,0,0,0,2.62-27.3c0-16.66-2.93-34.8-19-46.63l-4.13-18.65A60,60,0,0,1,787,177.65Z" transform="translate(-459.29 -47.43)"/><polygon class="cls-2" points="214.74 182.31 210.27 208.92 202.51 179.05 206.98 152.44 214.74 182.31"/><path class="cls-2" d="M698.68,324.69c-2.72.12-5.51.17-8.35.17h-3l-17.79-68.51L674,229.74Z" transform="translate(-459.29 -47.43)"/><path class="cls-2" d="M761.59,62.79Q750.75,62,739.45,62H619.1L615.43,47.9H757c.42,0,.85,0,1.27.07Z" transform="translate(-459.29 -47.43)"/><path class="cls-3" d="M909.51,213.54c0,3.18,0,6.31-.13,9.41-1,40.49-9,74.41-22.27,102.39a181.51,181.51,0,0,1-19.71,32.44A173.37,173.37,0,0,1,834,391q-6.12,4.64-12.64,8.74c-27.45,17.37-59.8,27.82-94.8,32.33-3.66.47-7.36.88-11.07,1.22-10.2.94-20.6,1.4-31.14,1.4H626.53L592.29,632.84H488.88L587.11,62h32l42.7,164.46-19,113h48.32q5.79,0,11.29-.34c46.58-2.74,78.53-21.69,93.47-55.9A112.86,112.86,0,0,0,804,254.05a157.15,157.15,0,0,0,1.59-22.9c0-23.73-6.31-41.39-18.52-53.5L761.59,62.79c74.19,5.38,131.54,39,144.94,114.82A205.86,205.86,0,0,1,909.51,213.54Z" transform="translate(-459.29 -47.43)"/><path class="cls-2" d="M787,177.65a60,60,0,0,0-17.14-11.78L747.68,65.62H631.41l34.86,134.25-4.47,26.61L619.1,62H739.45q11.28,0,22.14.77Z" transform="translate(-459.29 -47.43)"/><path class="cls-4" d="M707.6,518.39a20.05,20.05,0,0,0-5,7.82q-1.56,4.47-3.2,18.58T694.15,567a32.4,32.4,0,0,1-11.45,13.55A29.47,29.47,0,0,1,665.52,586a16,16,0,0,1-10.8-3.58,11.54,11.54,0,0,1-4.15-9.15,5,5,0,0,1,1.2-3.44,24.32,24.32,0,0,1,4.91-3.6q3.72-2.28,5-2.28a2,2,0,0,1,1.52.66,2.14,2.14,0,0,1,.62,1.56c0,.38-.16,1.78-.49,4.2s-.5,3.87-.5,4.32q0,6.76,5.23,6.76,5.91,0,9.93-7.53t5.83-23.51q1.8-16,5.46-22.59t8.55-9.34c3.26-1.84,5.51-2.76,6.77-2.76C705.49,515.72,706.48,516.62,707.6,518.39Zm-9.83-14.77q11,0,17.56,5.83T721.87,525q0,9-4.84,14.4t-8.33,5.43a5.12,5.12,0,0,1-3-1.25c-1.1-.83-1.65-1.59-1.65-2.27q0-.57,2.46-4.09,5.75-7.73,5.75-15.34,0-6.42-4-10.2t-10.77-3.78A28.65,28.65,0,0,0,679,514.67q-8.31,6.8-8.31,14.86,0,5.34,4.5,7.33a2.59,2.59,0,0,1,1.77,2.33c0,1-1.3,2.21-3.92,3.58s-4.44,2-5.48,2q-2.35,0-4.45-3.38a13.76,13.76,0,0,1-2.09-7.36q0-10.68,10.56-20.56T697.77,503.62Z" transform="translate(-459.29 -47.43)"/><path class="cls-4" d="M770.64,572.13q-8.37,8.64-12,11.25a11.94,11.94,0,0,1-6.9,2.62q-8.26,0-7.79-15.85-5.24,8.11-9.65,12T725.21,586q-4.59,0-7.81-4.69a19.81,19.81,0,0,1-3.22-11.5,32.82,32.82,0,0,1,4.32-16.25,37.3,37.3,0,0,1,11-12.5q6.75-4.77,11.92-4.77,6.54,0,9.15,6.53l10.68-6.42h2.94l-4.62,16.65q-3.55,12.56-3.56,17.21,0,4.89,3.19,4.89c1.36,0,2.85-.79,4.49-2.36s3.94-4,6.9-7.19Zm-38.26,3.13q5.22,0,9.85-9.69t4.62-17.86a8.29,8.29,0,0,0-1.3-5A4.11,4.11,0,0,0,742,541q-5.22,0-9.9,9.65t-4.68,17.79a8.22,8.22,0,0,0,1.39,5A4.19,4.19,0,0,0,732.38,575.26Z" transform="translate(-459.29 -47.43)"/><path class="cls-4" d="M826.41,572.13q-6.63,7-21.21,14.31-4.86,15-10.93,21.23t-12.65,6.22a6.88,6.88,0,0,1-5.36-2.22,8.43,8.43,0,0,1-2-5.9q0-11.21,18.87-20.29l3.18-12.21q-9.87,12-17.35,12a7.62,7.62,0,0,1-6.51-3.58Q770,578.1,770,572.13a56,56,0,0,1,3.44-18.4l5-14.43,15.17-2.89-6.51,16.87q-4.49,12.19-4.46,18.4,0,5.12,3.19,5.11t7.39-5.68a51.64,51.64,0,0,0,7-14l6-17.84,14.26-2.89L806.8,580.83a59.16,59.16,0,0,0,19.61-15.23Zm-34.81,19a31.54,31.54,0,0,0-9.91,7q-3.47,3.89-3.47,7.64t3,3.8Q787,609.57,791.6,591.11Z" transform="translate(-459.29 -47.43)"/><path class="cls-4" d="M903.36,572.13a91.2,91.2,0,0,1-11.19,10.4q-4.65,3.47-9,3.47a6.56,6.56,0,0,1-5.46-2.59,11,11,0,0,1-2-7q0-6.13,2.82-15.56t2.82-11.48c0-1.21-.57-1.82-1.72-1.82a2.83,2.83,0,0,0-1.26.4,14.18,14.18,0,0,0-1.78,1.14,28.41,28.41,0,0,0-2.14,1.93c-.76.76-1.57,1.63-2.4,2.61s-1.81,2.07-2.72,3.24a13.39,13.39,0,0,0-2.72,4.94L864.82,570l-3.16,13.41L848.42,586l5.07-23.41q.59-2.55,1.36-7.5t.78-5.91c0-1.28-.4-1.93-1.2-1.93a2.41,2.41,0,0,0-1,.4,10.56,10.56,0,0,0-1.78,1.19q-1.15.92-2.46,2.16t-3,3.13q-1.73,1.88-3.55,4.14a14.58,14.58,0,0,0-3.14,7.16c-.56,3.26-.94,6.17-1.15,8.75s-.38,5.45-.42,8.63l-11.6,3q-.42-6.54-.42-10.91a72.64,72.64,0,0,1,2-18.09,121,121,0,0,1,6.48-18L847,536.18a134.57,134.57,0,0,0-5.28,17.89q14.05-17.77,21.53-17.78a5.17,5.17,0,0,1,4.42,2.41,10.81,10.81,0,0,1,1.7,6.34q0,1.82-.52,6.7,8.84-9.6,12.68-12.53t7.08-2.92a5.59,5.59,0,0,1,4.71,2.5,10.5,10.5,0,0,1,1.83,6.36q0,6.09-3.08,15.63T889,573.39c0,2.12.71,3.18,2.14,3.18.9,0,2.16-.66,3.78-2a85.37,85.37,0,0,0,8.48-9Z" transform="translate(-459.29 -47.43)"/><path class="cls-4" d="M942.46,572.13a66.11,66.11,0,0,1-11.92,10.49A21.2,21.2,0,0,1,918.88,586a14.57,14.57,0,0,1-11.47-5q-4.36-4.93-4.36-13a34.31,34.31,0,0,1,7.68-21.78q7.68-9.75,17-9.74a11,11,0,0,1,7.79,2.72,9.35,9.35,0,0,1,2.93,7.16q0,11.76-23,19.09,2.09,11.07,10.92,11.08a12,12,0,0,0,6.59-2q3.13-2,9.46-8.95Zm-27.39-10.5q13.38-4.1,13.38-15.12,0-5.44-3.66-5.45-3.45,0-6.58,5.71T915.07,561.63Z" transform="translate(-459.29 -47.43)"/><path class="cls-4" d="M993.79,572.13Q981.72,586,973.09,586a6.88,6.88,0,0,1-5.64-2.67,11.11,11.11,0,0,1-2.15-7.16q0-6.07,4.6-18.58,2.46-6.71,2.46-8.52c0-1.21-.44-1.82-1.31-1.82a3.91,3.91,0,0,0-1.93.8,24.62,24.62,0,0,0-2.56,2.21q-1.3,1.32-2.93,3.19-1.41,1.59-3,3.63l-2.93,3.69a12.19,12.19,0,0,0-2.4,5.4q-.78,4.83-1,8.86-.15,3-.15,8.13l-11.56,3q-.57-7.67-.57-11.42a73.89,73.89,0,0,1,2-17.32A118.24,118.24,0,0,1,950.2,539L963,536.29a141.49,141.49,0,0,0-5.28,18.52q8.57-10.39,13.6-14.4t9-4a5.48,5.48,0,0,1,4.44,2.19,8.4,8.4,0,0,1,1.77,5.47q0,5.45-4.49,18-3.09,8.58-3.08,11.14c0,2.28.85,3.42,2.56,3.42q3.83,0,12.37-11Z" transform="translate(-459.29 -47.43)"/><path class="cls-4" d="M1023.85,572.13a77,77,0,0,1-11.4,10.49q-4.8,3.38-9.14,3.38a8.51,8.51,0,0,1-7.3-4.12q-2.79-4.12-2.79-10.82,0-5.91,2.68-15.6l2.22-8.6-4,.22,1.67-8.92,5-.22,4.91-17.73,14-3.11-5.4,19.76,7.38-.46-1.72,8.75-8.11.68-3.48,12.73a42.12,42.12,0,0,0-1.82,10.56,7.18,7.18,0,0,0,1.23,4.35,3.77,3.77,0,0,0,3.17,1.68,9.09,9.09,0,0,0,5.28-1.85q2.63-1.84,7.7-7.7Z" transform="translate(-459.29 -47.43)"/><path class="cls-4" d="M655.22,465.16H674c11.48,0,20.73,2.59,20.73,10.62,0,7.77-9.51,11.19-20.73,11.19h-6.8v11.2h-12ZM673.3,481c6.56,0,9.68-1.83,9.68-5.26s-3.37-4.69-9.68-4.69h-6.1v10Z" transform="translate(-459.29 -47.43)"/><path class="cls-4" d="M701,481.51c0-11,8.68-17,21.28-17s21.29,5.93,21.29,17c0,11.3-8.68,17.27-21.29,17.27S701,492.81,701,481.51Zm30.29,0c0-6.86-3.48-10.51-9-10.51s-9,3.65-9,10.51c0,7.12,3.48,10.82,9,10.82S731.26,488.63,731.26,481.51Z" transform="translate(-459.29 -47.43)"/><path class="cls-4" d="M749.7,481.51c0-11,8.68-17,21.28-17s21.29,5.93,21.29,17c0,11.3-8.68,17.27-21.29,17.27S749.7,492.81,749.7,481.51Zm30.29,0c0-6.86-3.49-10.51-9-10.51s-9,3.65-9,10.51c0,7.12,3.48,10.82,9,10.82S780,488.63,780,481.51Z" transform="translate(-459.29 -47.43)"/><path class="cls-4" d="M800.72,465.16H813l11.14,16.41,4.53,7.26h.28c-.53-3.48-1.65-8.11-1.65-12V465.16h11.42v33H826.43l-11.14-16.45-4.53-7.22h-.28c.54,3.65,1.66,8.08,1.66,12v11.71H800.72Z" transform="translate(-459.29 -47.43)"/><path class="cls-4" d="M845.26,465.16H858l6.36,15.37c1.58,3.61,2.64,7,4.24,10.58h.32c1.6-3.63,2.75-7,4.24-10.58l6.24-15.37h12.26l-16,33H861.26Z" transform="translate(-459.29 -47.43)"/><path class="cls-4" d="M900.3,465.16h35.09v6.26H912.28V478h19.64v6.27H912.28v7.6H936.2v6.26H900.3Z" transform="translate(-459.29 -47.43)"/><path class="cls-4" d="M946.72,465.16h12v12.71h14.36V465.16h12v33h-12V484.4H958.72v13.77h-12Z" transform="translate(-459.29 -47.43)"/><path class="cls-4" d="M786.09,637.7l4-4.62a13.65,13.65,0,0,0,8.27,3.1c3,0,4.37-1.1,4.37-2.55,0-2.14-1.85-2.66-4.79-3.84l-4.06-1.65c-3.45-1.25-6.59-3.77-6.59-8.09,0-4.92,4.64-8.85,11.4-8.85a15.48,15.48,0,0,1,10.34,3.89l-3.55,4.24a11.45,11.45,0,0,0-7.17-2.32c-2.32,0-3.9.91-3.9,2.65s2.09,2.44,5.07,3.51l3.81,1.53c4.08,1.46,6.65,3.89,6.65,8.08,0,4.93-4.34,9.21-12,9.21A18.43,18.43,0,0,1,786.09,637.7Z" transform="translate(-459.29 -47.43)"/><path class="cls-4" d="M815,630.13c0-7.4,6-11.84,12.33-11.84,7.3,0,11.15,4.71,11.15,10.85a19.16,19.16,0,0,1-.29,3h-18v-4.49H833.4l-1.11,1.27c0-3.63-1.66-5.53-4.77-5.53-3.47,0-5.75,2.24-5.75,6.74,0,4.68,2.68,6.75,7.28,6.75a13.57,13.57,0,0,0,6.11-1.57l2.33,4a18.75,18.75,0,0,1-9.4,2.65C820.71,642,815,637.64,815,630.13Z" transform="translate(-459.29 -47.43)"/><path class="cls-4" d="M846.5,618.84h5.78l.55,4.94H853a11.09,11.09,0,0,1,9.6-5.49,10.18,10.18,0,0,1,4.55.91l-1.42,5.64a12.76,12.76,0,0,0-4.2-.67c-2.93,0-5.95,1.46-8,5.51v11.76h-7Z" transform="translate(-459.29 -47.43)"/><path class="cls-4" d="M871.13,618.84h7.06l3.73,10.65c.77,2.27,1.42,4.59,2.13,7h.19c.71-2.37,1.34-4.69,2.12-7l3.73-10.65h6.72l-8.69,22.6h-8.06Z" transform="translate(-459.29 -47.43)"/><path class="cls-4" d="M911.58,624.09H902v-5.25h16.58v22.6h-7Zm-1.47-12.88c0-2.46,2-4.17,4.67-4.17s4.67,1.71,4.67,4.17-2,4.1-4.67,4.1S910.11,613.67,910.11,611.21Z" transform="translate(-459.29 -47.43)"/><path class="cls-4" d="M930.15,630.15c0-7.52,6.41-11.86,13.7-11.86a13.19,13.19,0,0,1,8.87,3.07l-3.23,4.16a8.91,8.91,0,0,0-5.25-1.82c-4.08,0-6.89,2.53-6.89,6.45s2.77,6.43,6.65,6.43a11.26,11.26,0,0,0,6.24-2.16l2.83,4.24a15.88,15.88,0,0,1-9.73,3.33C935.87,642,930.15,637.65,930.15,630.15Z" transform="translate(-459.29 -47.43)"/><path class="cls-4" d="M958.23,630.13c0-7.4,6-11.84,12.33-11.84,7.31,0,11.15,4.71,11.15,10.85a18,18,0,0,1-.29,3h-18v-4.49h13.22l-1.11,1.27c0-3.63-1.65-5.53-4.77-5.53-3.47,0-5.75,2.24-5.75,6.74,0,4.68,2.68,6.75,7.29,6.75a13.53,13.53,0,0,0,6.1-1.57l2.33,4a18.74,18.74,0,0,1-9.39,2.65C964,642,958.23,637.64,958.23,630.13Z" transform="translate(-459.29 -47.43)"/><path class="cls-5" d="M481.29,563.66,466.14,490a13.78,13.78,0,0,1,11-16.19L612.49,448.3a13.78,13.78,0,0,1,16.19,11l12.05,64.4c.69,3.78-2.75,11.36-4.47,14.11,0,0-1,2.07-2.76,2.07s-147,26.17-147,26.17Z" transform="translate(-459.29 -47.43)"/><path class="cls-6" d="M486.33,514.62c-14.16,0-25.9,3.45-25.9,7.6v82.89c0,4.14,11.39,7.59,25.9,7.59s25.9-3.45,25.9-7.59V522.22C511.89,518.07,500.49,514.62,486.33,514.62Z" transform="translate(-459.29 -47.43)"/><ellipse class="cls-7" cx="26.83" cy="474.91" rx="25.83" ry="7.58"/><path class="cls-7" d="M511.6,536.11c0,4.13-11.37,7.58-25.83,7.58s-25.48-3.45-25.48-7.58" transform="translate(-459.29 -47.43)"/><path class="cls-7" d="M511.6,549.89c0,4.13-11.37,7.57-25.83,7.57s-25.48-3.44-25.48-7.57" transform="translate(-459.29 -47.43)"/><path class="cls-7" d="M511.6,563.66c0,4.13-11.37,7.58-25.83,7.58s-25.48-3.45-25.48-7.58" transform="translate(-459.29 -47.43)"/><path class="cls-7" d="M511.6,577.44c0,4.13-11.37,7.57-25.83,7.57s-25.48-3.44-25.48-7.57" transform="translate(-459.29 -47.43)"/><path class="cls-7" d="M511.6,591.21c0,4.13-11.37,7.58-25.83,7.58s-25.48-3.45-25.48-7.58" transform="translate(-459.29 -47.43)"/><path class="cls-6" d="M618.1,542.17c-12.78,0-25.91,3.45-25.91,7.6v82.88c0,4.15,11.4,7.6,25.91,7.6,14.16,0,25.9-3.45,25.9-7.6V549.77C643.65,544.24,630.53,541.82,618.1,542.17Z" transform="translate(-459.29 -47.43)"/><path class="cls-8" d="M643.49,549.89c.34,4.13-11.37,7.57-25.83,7.57s-25.83-3.44-25.83-7.57,12.74-7.58,25.83-7.58C630.06,542,643.14,544.38,643.49,549.89Z" transform="translate(-459.29 -47.43)"/><path class="cls-8" d="M643.49,563.66c0,4.13-11.37,7.58-25.83,7.58s-25.83-3.45-25.83-7.58" transform="translate(-459.29 -47.43)"/><path class="cls-8" d="M643.49,577.44c0,4.13-11.37,7.57-25.83,7.57s-25.83-3.44-25.83-7.57" transform="translate(-459.29 -47.43)"/><path class="cls-8" d="M643.49,591.21c0,4.13-11.37,7.58-25.83,7.58s-25.83-3.45-25.83-7.58" transform="translate(-459.29 -47.43)"/><path class="cls-8" d="M643.49,605c0,4.14-11.37,7.58-25.83,7.58s-25.83-3.44-25.83-7.58" transform="translate(-459.29 -47.43)"/><path class="cls-8" d="M643.49,618.76c0,4.13-11.37,7.57-25.83,7.57s-25.83-3.44-25.83-7.57" transform="translate(-459.29 -47.43)"/><path class="cls-9" d="M549.4,573.54c-14.16,0-25.91,3.46-25.91,7.6V636.4c0,4.15,11.4,7.6,25.91,7.6s25.9-3.45,25.9-7.6V581.14C575.3,577,563.56,573.54,549.4,573.54Z" transform="translate(-459.29 -47.43)"/><ellipse class="cls-10" cx="90.53" cy="533.79" rx="25.83" ry="7.58"/><path class="cls-10" d="M575.65,595c0,4.13-11.37,7.57-25.83,7.57S524,599.13,524,595" transform="translate(-459.29 -47.43)"/><path class="cls-10" d="M575.65,608.77c0,4.13-11.37,7.58-25.83,7.58S524,612.9,524,608.77" transform="translate(-459.29 -47.43)"/><path class="cls-10" d="M575.56,622c.09,4.13-11.19,7.83-25.65,8.15s-25.9-2.86-26-7" transform="translate(-459.29 -47.43)"/><path class="cls-11" d="M568.42,488.94s-3.1-7.24-19.29-4.14c-12.39,2.41-16.53,10-15.49,16.19,1,5.85,9,8.95,19.62,6.88,13.78-2.75,18.6,1.38,19.63,6.89,1.38,7.58-6.2,14.12-15.49,16.19-9.3,1.72-17.57-2.07-19.29-4.14" transform="translate(-459.29 -47.43)"/><line class="cls-11" x1="88.12" y1="428.42" x2="99.83" y2="490.4"/></svg>