<svg id="Layer_18" data-name="Layer 18" xmlns="http://www.w3.org/2000/svg" xmlns:xlink="http://www.w3.org/1999/xlink" viewBox="0 0 613.74 600"><defs><style>.cls-1{fill:url(#linear-gradient);}.cls-2{fill:none;}.cls-3{fill:#008430;}.cls-4{fill:#fffce9;}.cls-5{fill:#4e5900;stroke:gray;stroke-miterlimit:10;stroke-width:3px;}.cls-6{fill:#99ff15;}</style><linearGradient id="linear-gradient" x1="612.04" y1="84.19" x2="613.31" y2="84.19" gradientUnits="userSpaceOnUse"><stop offset="0.31" stop-color="#ffa555"/><stop offset="0.61" stop-color="#f15a24"/><stop offset="0.99" stop-color="#c1272d"/></linearGradient></defs><title>logo_mail</title><path class="cls-1" d="M613.31,84.23c-.42,0-.85-.06-1.27-.07h1.26Z" transform="translate(-314.86 -83.69)"/><path class="cls-2" d="M928.6,84.16,775,677.43H624.49l-50.27-193.6q5.58-.56,11-1.31L632.9,666H764.77L910.84,101.88H798.62L774.31,213.62a175.25,175.25,0,0,0-6.69-27.68L789.76,84.16Z" transform="translate(-314.86 -83.69)"/><path class="cls-2" d="M648,267.41a132.82,132.82,0,0,1-2.62,27.3L629,220.78C645.11,232.61,648,250.75,648,267.41Z" transform="translate(-314.86 -83.69)"/><path class="cls-2" d="M733.52,401.41c-10.12,48-19.17,94.37-30.84,143.9h-3c-7.65-32.46-14-63.55-20.32-94.65q6.55-4,12.7-8.4c.32,1.51.62,3,.93,4.52,3,14.5,6,29.23,9.13,44.17,4.2-19.42,8.15-38.54,12-57.29q1.29-6.26,2.6-12.57A185.58,185.58,0,0,0,733.52,401.41Z" transform="translate(-314.86 -83.69)"/><path class="cls-3" d="M910.84,101.88,764.77,666H632.9L585.26,482.52c35.61-4.89,67.37-15.63,94.12-31.86,6.35,31.1,12.67,62.19,20.32,94.65h3c11.67-49.53,20.72-95.86,30.84-143.9a201.06,201.06,0,0,0,24.35-43.55c12.73-31.1,19.19-67.45,19.19-108.06a227.68,227.68,0,0,0-2.75-36.18l24.31-111.74Z" transform="translate(-314.86 -83.69)"/><path class="cls-3" d="M645.42,294.71c-8.74,41.91-39.49,64.14-91.73,66.24L529,266l-7.76-29.87L486.42,101.88H602.69l22.22,100.25L629,220.78Z" transform="translate(-314.86 -83.69)"/><path class="cls-2" d="M660.57,267.41a157.15,157.15,0,0,1-1.59,22.9l-16.93-76.4C654.26,226,660.57,243.68,660.57,267.41Z" transform="translate(-314.86 -83.69)"/><path class="cls-2" d="M650.91,319.47C636,353.68,604,372.63,557.44,375.37L553.69,361c52.24-2.1,83-24.33,91.73-66.24Z" transform="translate(-314.86 -83.69)"/><path class="cls-2" d="M777.06,249.8c0,40.61-6.46,77-19.19,108.06a201.06,201.06,0,0,1-24.35,43.55c2.56-12.14,5.19-24.38,8-36.82l.65-3c13.31-28,21.22-61.9,22.27-102.39l9.92-45.59A227.68,227.68,0,0,1,777.06,249.8Z" transform="translate(-314.86 -83.69)"/><path class="cls-2" d="M585.26,482.52q-5.46.75-11,1.31l-3.71-14.27c3.71-.34,7.41-.75,11.07-1.22Z" transform="translate(-314.86 -83.69)"/><path class="cls-2" d="M692.08,442.26q-6.15,4.42-12.7,8.4-1.49-7.32-3-14.65,6.51-4.1,12.64-8.74Q690.57,434.82,692.08,442.26Z" transform="translate(-314.86 -83.69)"/><path class="cls-2" d="M679.38,450.66c-26.75,16.23-58.51,27-94.12,31.86l-3.68-14.18c35-4.51,67.35-15,94.8-32.33Q677.9,443.35,679.38,450.66Z" transform="translate(-314.86 -83.69)"/><path class="cls-2" d="M742.12,361.6l-.65,3c-2.76,12.44-5.39,24.68-8,36.82a185.58,185.58,0,0,1-16.76,19.68q2.78-13.38,5.65-27A181.51,181.51,0,0,0,742.12,361.6Z" transform="translate(-314.86 -83.69)"/><path class="cls-2" d="M764.39,259.21c.09-3.1.13-6.23.13-9.41a205.86,205.86,0,0,0-3-35.93l6.08-27.93a175.25,175.25,0,0,1,6.69,27.68Z" transform="translate(-314.86 -83.69)"/><path class="cls-2" d="M767.62,185.94l-6.08,27.93C748.14,138,690.79,104.43,616.6,99.05l-3.29-14.82c45.18,2.61,81.86,14.86,109.23,36.5C743.71,137.48,758.77,159.29,767.62,185.94Z" transform="translate(-314.86 -83.69)"/><path class="cls-2" d="M722.41,394q-2.88,13.66-5.65,27-5.49,5.63-11.46,10.77-6.34,5.47-13.22,10.4-1.51-7.45-3.06-15A173.37,173.37,0,0,0,722.41,394Z" transform="translate(-314.86 -83.69)"/><path class="cls-2" d="M570.51,469.56l3.71,14.27a346.39,346.39,0,0,1-34.85,1.72H491.8L457.56,683.69h-129l103.25-600H594.46q9,0,17.58.47H470.44l3.67,14.12h-32L343.89,669.1H447.3L481.54,471h57.83C549.91,471,560.31,470.5,570.51,469.56Z" transform="translate(-314.86 -83.69)"/><path class="cls-2" d="M557.44,375.37q-5.51.33-11.29.34l-3.79-14.59h3c2.84,0,5.63-.05,8.35-.17Z" transform="translate(-314.86 -83.69)"/><path class="cls-2" d="M546.15,375.71H497.83l19-113,7.76,29.87-11.51,68.51h29.3Z" transform="translate(-314.86 -83.69)"/><path class="cls-2" d="M659,290.31a112.86,112.86,0,0,1-8.07,29.16l-5.49-24.76a132.82,132.82,0,0,0,2.62-27.3c0-16.66-2.93-34.8-19-46.63l-4.13-18.65a60,60,0,0,1,17.14,11.78Z" transform="translate(-314.86 -83.69)"/><polygon class="cls-2" points="214.18 182.31 209.71 208.92 201.95 179.05 206.42 152.44 214.18 182.31"/><path class="cls-2" d="M553.69,361c-2.72.12-5.51.17-8.35.17h-3l-17.79-68.51L529,266Z" transform="translate(-314.86 -83.69)"/><path class="cls-2" d="M616.6,99.05q-10.85-.76-22.14-.77H474.11l-3.67-14.12H612c.42,0,.85,0,1.27.07Z" transform="translate(-314.86 -83.69)"/><path class="cls-3" d="M764.52,249.8c0,3.18,0,6.31-.13,9.41-1,40.49-9,74.41-22.27,102.39A181.51,181.51,0,0,1,722.41,394,173.37,173.37,0,0,1,689,427.27q-6.12,4.64-12.64,8.74c-27.45,17.37-59.8,27.82-94.8,32.33-3.66.47-7.36.88-11.07,1.22-10.2.94-20.6,1.4-31.14,1.4H481.54L447.3,669.1H343.89L442.12,98.28h32l42.7,164.46-19,113h48.32q5.79,0,11.29-.34c46.58-2.74,78.53-21.69,93.47-55.9A112.86,112.86,0,0,0,659,290.31a157.15,157.15,0,0,0,1.59-22.9c0-23.73-6.31-41.39-18.52-53.5L616.6,99.05c74.19,5.38,131.54,39,144.94,114.82A205.86,205.86,0,0,1,764.52,249.8Z" transform="translate(-314.86 -83.69)"/><path class="cls-2" d="M642.05,213.91a60,60,0,0,0-17.14-11.78L602.69,101.88H486.42l34.86,134.25-4.47,26.61L474.11,98.28H594.46q11.28,0,22.14.77Z" transform="translate(-314.86 -83.69)"/><rect class="cls-4" x="323.44" y="503.31" width="222" height="134" transform="translate(-392.01 -15.65) rotate(-8.23)"/><line class="cls-5" x1="119.58" y1="486.62" x2="216.29" y2="405.91"/><line class="cls-5" x1="0.58" y1="436.62" x2="119.58" y2="486.62"/><path class="cls-6" d="M655.76,619.5q-17,15.53-31,15.53a14.44,14.44,0,0,1-13-7q-4.46-7-4.45-18.63,0-9,4.37-24.81T623,558.07l4.41-6.7a75.88,75.88,0,0,0-14.83,17.5,292.88,292.88,0,0,0-13.81,26.59q-8,17.07-12.12,23.26a71.54,71.54,0,0,1-7.88,10.09,20.72,20.72,0,0,1-6.69,5.06Q569.15,635,561.84,635c-1.87,0-2.81-.43-2.81-1.29,0-.09.34-1.44,1-4.06a110,110,0,0,0,2.05-12.6q1-8.67,1.5-29.46T570.74,552q-7.15,6.9-14.61,32.1l-1.91,6.32q-7.85,26.24-18,35.41T516.38,635a17.88,17.88,0,0,1-10.58-3.22c-3-2.15-4.57-4.62-4.57-7.42q0-3.21,5.49-7.21t6.92-4a2.28,2.28,0,0,1,2.2,1,25.22,25.22,0,0,1,1.37,5.31c.56,2.9,1.41,4.8,2.55,5.68a6.87,6.87,0,0,0,4.31,1.32q5.88,0,13-10t13-30.78l2.21-7.8a107.65,107.65,0,0,1,5.26-15.21,61.29,61.29,0,0,1,6.87-11.34q6.17-8.11,7.58-8.67a22.6,22.6,0,0,1,5.29-.9c2.58-.24,5.17-.36,7.75-.36a1.33,1.33,0,0,1,1.52,1.49,18.18,18.18,0,0,1-.47,2.9,104.9,104.9,0,0,0-1.43,18.11l.15,17.27q.15,22.56-4.25,36.42,4-4.12,11.71-21.27,11.1-24.3,20.23-36.48a71.79,71.79,0,0,1,10.45-11.25q6.12-5.39,8.48-5.77A88.5,88.5,0,0,1,645,541.57c1.37,0,2.06.32,2.06,1,0,.9-.84,2.92-2.5,6.06q-5.92,11.35-11,30.69t-5.17,30.8q0,12.95,9.35,12.95,7.61,0,18.1-11Z" transform="translate(-314.86 -83.69)"/><path class="cls-6" d="M736.9,619.5q-12.17,9.79-17.41,12.76a20.5,20.5,0,0,1-10,3q-12,0-11.33-18-7.61,9.22-14,13.6a23.29,23.29,0,0,1-13.27,4.38,14.61,14.61,0,0,1-11.37-5.31,19.08,19.08,0,0,1-4.68-13.06,31.13,31.13,0,0,1,6.28-18.43,48,48,0,0,1,16.08-14.18q9.81-5.41,17.34-5.41,9.51,0,13.31,7.41L723.32,579h4.27l-6.71,18.88q-5.18,14.25-5.18,19.53c0,3.7,1.54,5.54,4.63,5.54q3,0,6.54-2.67t10-8.16ZM681.24,623q7.6,0,14.33-11t6.73-20.27a7.94,7.94,0,0,0-1.9-5.64,6.65,6.65,0,0,0-5.09-2q-7.6,0-14.41,11t-6.81,20.17a8,8,0,0,0,2,5.64A6.73,6.73,0,0,0,681.24,623Z" transform="translate(-314.86 -83.69)"/><path class="cls-6" d="M774.24,619.5q-17.79,15.86-26.61,15.85a10.14,10.14,0,0,1-8.22-4.22,16.53,16.53,0,0,1-3.34-10.6q0-13.72,10.95-38l19.31-3.42h.92l-7.61,20.18q-4.71,12.5-4.71,17.85a5.18,5.18,0,0,0,1.1,3.45,3.46,3.46,0,0,0,2.78,1.32,11.37,11.37,0,0,0,6-1.84q3-1.83,9.46-8Zm-1.52-65.62q0,15.48-13.46,15.47A18.6,18.6,0,0,1,748.08,566a43.89,43.89,0,0,0,6.85-12.76q6,3.15,9.65,3.16A15.2,15.2,0,0,0,772.72,553.88Z" transform="translate(-314.86 -83.69)"/><path class="cls-6" d="M824.59,619.5a109.68,109.68,0,0,1-18.14,11.89,33.8,33.8,0,0,1-14.87,3.83q-8.13,0-13.12-5.35t-5-14.37q0-13.53,6.92-32.48a190.71,190.71,0,0,1,16.81-34.94L816.53,542a5.49,5.49,0,0,1,1.36-.25q2.21,0,3.62,2.73a16.41,16.41,0,0,1,1.4,7.38,50,50,0,0,1-7.15,25.46q-7.14,12.31-22.35,26.3-.61,6.71-.61,9.22,0,5.61,2.43,8.89A7.66,7.66,0,0,0,801.7,625a18.51,18.51,0,0,0,8.74-2.51q4.63-2.52,14.15-10.45Zm-29.13-25.21a78.62,78.62,0,0,0,15.67-20.39q6-11.29,6-19.43a7.76,7.76,0,0,0-.83-3.84,2.45,2.45,0,0,0-2.13-1.45q-2.82,0-8.18,11.87T795.46,594.29Z" transform="translate(-314.86 -83.69)"/><path class="cls-6" d="M510.23,501.41H529c11.49,0,20.74,2.59,20.74,10.62,0,7.77-9.51,11.2-20.74,11.2h-6.79v11.19h-12Zm18.08,15.89c6.56,0,9.68-1.84,9.68-5.27s-3.38-4.69-9.68-4.69h-6.1v10Z" transform="translate(-314.86 -83.69)"/><path class="cls-6" d="M556,517.77c0-11,8.69-17,21.29-17s21.29,5.93,21.29,17c0,11.29-8.68,17.26-21.29,17.26S556,529.06,556,517.77Zm30.3,0c0-6.86-3.49-10.51-9-10.51s-9,3.65-9,10.51c0,7.12,3.48,10.81,9,10.81S586.27,524.89,586.27,517.77Z" transform="translate(-314.86 -83.69)"/><path class="cls-6" d="M604.7,517.77c0-11,8.68-17,21.29-17s21.29,5.93,21.29,17c0,11.29-8.68,17.26-21.29,17.26S604.7,529.06,604.7,517.77Zm30.3,0c0-6.86-3.49-10.51-9-10.51s-9,3.65-9,10.51c0,7.12,3.48,10.81,9,10.81S635,524.89,635,517.77Z" transform="translate(-314.86 -83.69)"/><path class="cls-6" d="M655.72,501.41H668l11.14,16.41,4.53,7.26H684c-.54-3.48-1.65-8.1-1.65-12V501.41h11.42v33H681.44L670.3,518l-4.53-7.22h-.28c.54,3.65,1.66,8.07,1.66,12v11.71H655.72Z" transform="translate(-314.86 -83.69)"/><path class="cls-6" d="M700.27,501.41H713l6.36,15.38c1.57,3.6,2.64,6.94,4.24,10.57h.32c1.6-3.63,2.74-7,4.24-10.57l6.24-15.38h12.26l-16,33h-14.4Z" transform="translate(-314.86 -83.69)"/><path class="cls-6" d="M755.31,501.41H790.4v6.27H767.29v6.62h19.63v6.26H767.29v7.6h23.92v6.26h-35.9Z" transform="translate(-314.86 -83.69)"/><path class="cls-6" d="M801.73,501.41h12v12.71h14.35V501.41h12v33h-12V520.65H813.73v13.77h-12Z" transform="translate(-314.86 -83.69)"/><path class="cls-6" d="M641.09,674l4-4.61a13.65,13.65,0,0,0,8.27,3.1c3,0,4.37-1.11,4.37-2.56,0-2.14-1.85-2.65-4.8-3.83l-4.05-1.65c-3.45-1.25-6.6-3.77-6.6-8.1,0-4.91,4.65-8.84,11.41-8.84a15.49,15.49,0,0,1,10.34,3.88l-3.55,4.24a11.52,11.52,0,0,0-7.18-2.32c-2.32,0-3.89.92-3.89,2.65s2.09,2.44,5.07,3.51l3.81,1.54c4.07,1.46,6.65,3.88,6.65,8.07,0,4.94-4.34,9.21-12,9.21A18.45,18.45,0,0,1,641.09,674Z" transform="translate(-314.86 -83.69)"/><path class="cls-6" d="M670,666.38c0-7.4,6-11.84,12.33-11.84,7.3,0,11.15,4.71,11.15,10.85a19.16,19.16,0,0,1-.29,3h-18V663.9H688.4l-1.1,1.28c0-3.63-1.66-5.54-4.77-5.54-3.47,0-5.75,2.25-5.75,6.74,0,4.69,2.68,6.75,7.28,6.75a13.57,13.57,0,0,0,6.11-1.57l2.33,4a18.84,18.84,0,0,1-9.4,2.64C675.72,678.24,670,673.89,670,666.38Z" transform="translate(-314.86 -83.69)"/><path class="cls-6" d="M701.51,655.09h5.78l.55,4.94H708a11.14,11.14,0,0,1,9.61-5.49,10.07,10.07,0,0,1,4.55.92l-1.42,5.63a12.76,12.76,0,0,0-4.2-.66c-2.93,0-5.95,1.45-8,5.51v11.75h-7Z" transform="translate(-314.86 -83.69)"/><path class="cls-6" d="M726.14,655.09h7.06l3.73,10.66c.77,2.26,1.42,4.58,2.13,7h.19c.71-2.37,1.34-4.69,2.12-7l3.73-10.66h6.71l-8.68,22.6h-8.06Z" transform="translate(-314.86 -83.69)"/><path class="cls-6" d="M766.59,660.35h-9.54v-5.26h16.57v22.6h-7Zm-1.47-12.89c0-2.45,2-4.16,4.67-4.16s4.67,1.71,4.67,4.16-2,4.1-4.67,4.1S765.12,649.93,765.12,647.46Z" transform="translate(-314.86 -83.69)"/><path class="cls-6" d="M785.16,666.41c0-7.53,6.41-11.87,13.7-11.87a13.19,13.19,0,0,1,8.87,3.07l-3.23,4.16a9,9,0,0,0-5.25-1.81c-4.08,0-6.89,2.53-6.89,6.45s2.76,6.42,6.65,6.42a11.22,11.22,0,0,0,6.24-2.16l2.83,4.24a15.81,15.81,0,0,1-9.73,3.33C790.88,678.24,785.16,673.91,785.16,666.41Z" transform="translate(-314.86 -83.69)"/><path class="cls-6" d="M813.24,666.38c0-7.4,6-11.84,12.33-11.84,7.31,0,11.15,4.71,11.15,10.85a19.16,19.16,0,0,1-.29,3h-18V663.9h13.23l-1.11,1.28c0-3.63-1.65-5.54-4.77-5.54-3.47,0-5.75,2.25-5.75,6.74,0,4.69,2.68,6.75,7.28,6.75a13.54,13.54,0,0,0,6.11-1.57l2.33,4a18.84,18.84,0,0,1-9.39,2.64C819,678.24,813.24,673.89,813.24,666.38Z" transform="translate(-314.86 -83.69)"/></svg>