<svg id="Layer_19" data-name="Layer 19" xmlns="http://www.w3.org/2000/svg" viewBox="0 0 466.57 81.35"><defs><style>.cls-1{fill:#ffe920;}.cls-2{fill:#666;}</style></defs><title>1star</title><path class="cls-1" d="M421,438.72,398.59,427a2.42,2.42,0,0,0-2.25,0L374,438.72a2.42,2.42,0,0,1-3.51-2.55l4.27-24.92a2.41,2.41,0,0,0-.69-2.14l-18.11-17.65a2.42,2.42,0,0,1,1.35-4.13l25-3.63a2.45,2.45,0,0,0,1.83-1.33L395.3,359.7a2.42,2.42,0,0,1,4.34,0l11.19,22.67a2.42,2.42,0,0,0,1.82,1.33l25,3.63a2.42,2.42,0,0,1,1.34,4.13l-18.1,17.65a2.39,2.39,0,0,0-.7,2.14l4.27,24.92A2.42,2.42,0,0,1,421,438.72Z" transform="translate(-355.19 -357.65)"/><path class="cls-2" d="M515.66,438.25l-22.38-11.76a2.42,2.42,0,0,0-2.25,0l-22.38,11.76a2.42,2.42,0,0,1-3.51-2.55l4.27-24.92a2.41,2.41,0,0,0-.69-2.14L450.61,391a2.42,2.42,0,0,1,1.34-4.13l25-3.64a2.4,2.4,0,0,0,1.82-1.32L490,359.24a2.43,2.43,0,0,1,4.35,0l11.18,22.67a2.44,2.44,0,0,0,1.83,1.32l25,3.64A2.42,2.42,0,0,1,533.7,391l-18.11,17.64a2.41,2.41,0,0,0-.69,2.14l4.27,24.92A2.42,2.42,0,0,1,515.66,438.25Z" transform="translate(-355.19 -357.65)"/><path class="cls-2" d="M610,438l-22.38-11.76a2.36,2.36,0,0,0-2.25,0L563,438a2.42,2.42,0,0,1-3.51-2.55l4.28-24.92a2.43,2.43,0,0,0-.7-2.14L545,390.76a2.42,2.42,0,0,1,1.34-4.13l25-3.63a2.43,2.43,0,0,0,1.82-1.33L584.33,359a2.42,2.42,0,0,1,4.34,0l11.19,22.67a2.42,2.42,0,0,0,1.82,1.33l25,3.63a2.42,2.42,0,0,1,1.34,4.13l-18.1,17.65a2.43,2.43,0,0,0-.7,2.14l4.27,24.92A2.42,2.42,0,0,1,610,438Z" transform="translate(-355.19 -357.65)"/><path class="cls-2" d="M706.66,438.25l-22.38-11.76a2.42,2.42,0,0,0-2.25,0l-22.38,11.76a2.42,2.42,0,0,1-3.51-2.55l4.27-24.92a2.41,2.41,0,0,0-.69-2.14L641.61,391a2.42,2.42,0,0,1,1.34-4.13l25-3.64a2.4,2.4,0,0,0,1.82-1.32L681,359.24a2.43,2.43,0,0,1,4.35,0l11.18,22.67a2.44,2.44,0,0,0,1.83,1.32l25,3.64A2.42,2.42,0,0,1,724.7,391l-18.11,17.64a2.41,2.41,0,0,0-.69,2.14l4.27,24.92A2.42,2.42,0,0,1,706.66,438.25Z" transform="translate(-355.19 -357.65)"/><path class="cls-2" d="M803,438.37l-22.38-11.76a2.42,2.42,0,0,0-2.25,0L756,438.37a2.42,2.42,0,0,1-3.51-2.55l4.27-24.92a2.44,2.44,0,0,0-.7-2.14l-18.1-17.65a2.42,2.42,0,0,1,1.34-4.13l25-3.63a2.42,2.42,0,0,0,1.82-1.33l11.19-22.67a2.42,2.42,0,0,1,4.34,0L792.84,382a2.43,2.43,0,0,0,1.82,1.33l25,3.63a2.42,2.42,0,0,1,1.34,4.13l-18.1,17.65a2.41,2.41,0,0,0-.69,2.14l4.27,24.92A2.42,2.42,0,0,1,803,438.37Z" transform="translate(-355.19 -357.65)"/></svg>