<svg id="Layer_10" data-name="Layer 10" xmlns="http://www.w3.org/2000/svg" viewBox="0 0 575 535.58"><title>logo2</title><path d="M897.68,447.13a180,180,0,0,0,85-15l36,106q50.51-219,101-438h91l-117,520h-147Z" transform="translate(-635.68 -85)"/><path d="M789.68,85h88q32.51,108,65,216a71.31,71.31,0,0,1-76,37Q828.18,211.51,789.68,85Z" transform="translate(-635.68 -85)"/><path d="M1065.46,252.87a223.23,223.23,0,0,0-8-50.93c-1.39-5-10.92-33.43-31.83-57.31-42-48-107.21-50.64-119.39-50.93h-22.5L923,215.24a55.12,55.12,0,0,1,16.72,12.17,56.25,56.25,0,0,1,12.74,22.28,80.61,80.61,0,0,1-6.37,54.12,70.19,70.19,0,0,1-55.71,41.39l-88.57-1.33,20.12-134h.25q-19-58.11-37.91-116.2H728L635.68,620.58H761.43l27.06-181.47,113,3.19c14.93,0,84.15-1.44,124.16-50.94,19.39-24,27.33-53.74,31.83-70A224,224,0,0,0,1065.46,252.87Z" transform="translate(-635.68 -85)"/></svg>