<svg xmlns="http://www.w3.org/2000/svg" xmlns:xlink="http://www.w3.org/1999/xlink" viewBox="0 0 575 535.45"><defs><style>.cls-1{fill:url(#linear-gradient);}.cls-2{fill:url(#linear-gradient-2);}.cls-3{fill:#ffb56a;}</style><linearGradient id="linear-gradient" x1="481" y1="392.01" x2="910.95" y2="392.01" gradientUnits="userSpaceOnUse"><stop offset="0.31" stop-color="#1e9cd7"/><stop offset="0.61" stop-color="#0075be"/><stop offset="0.99" stop-color="#005b97"/></linearGradient><linearGradient id="linear-gradient-2" x1="743" y1="395" x2="1056" y2="395" gradientUnits="userSpaceOnUse"><stop offset="0.31" stop-color="#ffa555"/><stop offset="0.61" stop-color="#f15a24"/><stop offset="0.99" stop-color="#c1272d"/></linearGradient></defs><title>logo1</title><g id="Layer_3" data-name="Layer 3"><path class="cls-1" d="M910.78,287.75a223.23,223.23,0,0,0-8-50.94c-1.39-5-10.92-33.42-31.83-57.31-42-48-107.21-50.64-119.39-50.93H573.32L481,655.45H606.75L633.81,474l113,3.18c14.93,0,84.15-1.44,124.16-50.94,19.39-24,27.33-53.74,31.83-70A224,224,0,0,0,910.78,287.75ZM799.36,311.62a80.74,80.74,0,0,1-8,27.06,70.19,70.19,0,0,1-55.71,41.39l-88.57-1.33,20.12-134H750c5.25.65,21.82,3.41,35,17.51a56.25,56.25,0,0,1,12.74,22.28A81,81,0,0,1,799.36,311.62Z" transform="translate(-481 -120)"/></g><g id="Layer_8" data-name="Layer 8"><path class="cls-2" d="M743,482a180,180,0,0,0,85-15l36,106q50.5-219,101-438h91L939,655H792Z" transform="translate(-481 -120)"/></g><g id="Layer_9" data-name="Layer 9"><path class="cls-3" d="M635,120h88q32.5,108,65,216a71.31,71.31,0,0,1-76,37Q673.5,246.51,635,120Z" transform="translate(-481 -120)"/></g></svg>