<svg id="Layer_23" data-name="Layer 23" xmlns="http://www.w3.org/2000/svg" xmlns:xlink="http://www.w3.org/1999/xlink" viewBox="0 0 615.98 600"><defs><style>.cls-1{fill:url(#linear-gradient);}.cls-2,.cls-7,.cls-9{fill:none;}.cls-3{fill:#8000c6;}.cls-4{fill:#ff87e5;}.cls-5{fill:#e5e5e5;}.cls-6{fill:#ffd766;}.cls-7,.cls-9{stroke:#2c3e50;stroke-linecap:round;stroke-linejoin:round;}.cls-7{stroke-width:2px;}.cls-8{fill:#c8c3ff;}.cls-9{stroke-width:5px;}</style><linearGradient id="linear-gradient" x1="624.42" y1="47.94" x2="625.69" y2="47.94" gradientUnits="userSpaceOnUse"><stop offset="0.31" stop-color="#ffa555"/><stop offset="0.61" stop-color="#f15a24"/><stop offset="0.99" stop-color="#c1272d"/></linearGradient></defs><title>logo_review</title><path class="cls-1" d="M625.69,48c-.42,0-.85-.06-1.27-.07h1.26Z" transform="translate(-325 -47.43)"/><path class="cls-2" d="M941,47.9,787.36,641.17H636.87L586.6,447.57q5.58-.56,11-1.31l47.64,183.45H777.15L923.22,65.62H811L786.69,177.36A175.25,175.25,0,0,0,780,149.68L802.14,47.9Z" transform="translate(-325 -47.43)"/><path class="cls-2" d="M660.42,231.15a132.82,132.82,0,0,1-2.62,27.3l-16.38-73.93C657.49,196.35,660.42,214.49,660.42,231.15Z" transform="translate(-325 -47.43)"/><path class="cls-2" d="M745.9,365.15c-10.12,48-19.17,94.37-30.84,143.9h-3c-7.65-32.46-14-63.55-20.32-94.65q6.56-4,12.7-8.4c.32,1.51.62,3,.93,4.52,3,14.5,6,29.23,9.13,44.17,4.2-19.42,8.15-38.54,12-57.29q1.29-6.25,2.6-12.57A185.58,185.58,0,0,0,745.9,365.15Z" transform="translate(-325 -47.43)"/><path class="cls-3" d="M923.22,65.62,777.15,629.71H645.28L597.64,446.26c35.61-4.89,67.37-15.63,94.12-31.86,6.35,31.1,12.67,62.19,20.32,94.65h3c11.67-49.53,20.72-95.86,30.84-143.9a201.06,201.06,0,0,0,24.35-43.55c12.73-31.1,19.19-67.45,19.19-108.06a227.68,227.68,0,0,0-2.75-36.18L811,65.62Z" transform="translate(-325 -47.43)"/><path class="cls-3" d="M657.8,258.45c-8.74,41.91-39.49,64.14-91.73,66.24l-24.65-94.95-7.76-29.87L498.8,65.62H615.07l22.22,100.25,4.13,18.65Z" transform="translate(-325 -47.43)"/><path class="cls-2" d="M673,231.15a157.15,157.15,0,0,1-1.59,22.9l-16.93-76.4C666.64,189.76,673,207.42,673,231.15Z" transform="translate(-325 -47.43)"/><path class="cls-2" d="M663.29,283.21c-14.94,34.21-46.89,53.16-93.47,55.9l-3.75-14.42c52.24-2.1,83-24.33,91.73-66.24Z" transform="translate(-325 -47.43)"/><path class="cls-2" d="M789.44,213.54c0,40.61-6.46,77-19.19,108.06a201.06,201.06,0,0,1-24.35,43.55c2.56-12.14,5.19-24.38,8-36.82l.65-3c13.31-28,21.22-61.9,22.27-102.39l9.92-45.59A227.68,227.68,0,0,1,789.44,213.54Z" transform="translate(-325 -47.43)"/><path class="cls-2" d="M597.64,446.26q-5.46.75-11,1.31l-3.71-14.27c3.71-.34,7.41-.75,11.07-1.22Z" transform="translate(-325 -47.43)"/><path class="cls-2" d="M704.46,406q-6.15,4.42-12.7,8.4-1.49-7.32-3-14.65,6.51-4.1,12.64-8.74Q702.95,398.56,704.46,406Z" transform="translate(-325 -47.43)"/><path class="cls-2" d="M691.76,414.4c-26.75,16.23-58.51,27-94.12,31.86L594,432.08c35-4.51,67.35-15,94.8-32.33Q690.28,407.09,691.76,414.4Z" transform="translate(-325 -47.43)"/><path class="cls-2" d="M754.5,325.34l-.65,3c-2.76,12.44-5.39,24.68-8,36.82a185.58,185.58,0,0,1-16.76,19.68q2.77-13.38,5.65-27.05A181.51,181.51,0,0,0,754.5,325.34Z" transform="translate(-325 -47.43)"/><path class="cls-2" d="M776.77,223c.09-3.1.13-6.23.13-9.41a205.86,205.86,0,0,0-3-35.93L780,149.68a175.25,175.25,0,0,1,6.69,27.68Z" transform="translate(-325 -47.43)"/><path class="cls-2" d="M780,149.68l-6.08,27.93C760.52,101.78,703.17,68.17,629,62.79L625.69,48c45.18,2.61,81.86,14.86,109.23,36.5C756.09,101.22,771.15,123,780,149.68Z" transform="translate(-325 -47.43)"/><path class="cls-2" d="M734.79,357.78q-2.88,13.67-5.65,27.05-5.49,5.63-11.46,10.77-6.34,5.47-13.22,10.4-1.51-7.46-3.06-15A173.37,173.37,0,0,0,734.79,357.78Z" transform="translate(-325 -47.43)"/><path class="cls-2" d="M582.89,433.3l3.71,14.27a346.39,346.39,0,0,1-34.85,1.72H504.18L469.94,647.43H341l103.25-600H606.84q9,0,17.58.47H482.82L486.49,62h-32L356.27,632.84H459.68L493.92,434.7h57.83C562.29,434.7,572.69,434.24,582.89,433.3Z" transform="translate(-325 -47.43)"/><path class="cls-2" d="M569.82,339.11q-5.51.33-11.29.34l-3.79-14.59h3c2.84,0,5.63-.05,8.35-.17Z" transform="translate(-325 -47.43)"/><path class="cls-2" d="M558.53,339.45H510.21l19-113L537,256.35l-11.51,68.51h29.3Z" transform="translate(-325 -47.43)"/><path class="cls-2" d="M671.36,254.05a112.86,112.86,0,0,1-8.07,29.16l-5.49-24.76a132.82,132.82,0,0,0,2.62-27.3c0-16.66-2.93-34.8-19-46.63l-4.13-18.65a60,60,0,0,1,17.14,11.78Z" transform="translate(-325 -47.43)"/><polygon class="cls-2" points="216.42 182.31 211.95 208.92 204.19 179.05 208.66 152.44 216.42 182.31"/><path class="cls-2" d="M566.07,324.69c-2.72.12-5.51.17-8.35.17h-3L537,256.35l4.47-26.61Z" transform="translate(-325 -47.43)"/><path class="cls-2" d="M629,62.79Q618.14,62,606.84,62H486.49L482.82,47.9h141.6c.42,0,.85,0,1.27.07Z" transform="translate(-325 -47.43)"/><path class="cls-3" d="M776.9,213.54c0,3.18,0,6.31-.13,9.41-1,40.49-9,74.41-22.27,102.39a181.51,181.51,0,0,1-19.71,32.44A173.37,173.37,0,0,1,701.4,391q-6.12,4.64-12.64,8.74c-27.45,17.37-59.8,27.82-94.8,32.33-3.66.47-7.36.88-11.07,1.22-10.2.94-20.6,1.4-31.14,1.4H493.92L459.68,632.84H356.27L454.5,62h32l42.7,164.46-19,113h48.32q5.79,0,11.29-.34c46.58-2.74,78.53-21.69,93.47-55.9a112.86,112.86,0,0,0,8.07-29.16,157.15,157.15,0,0,0,1.59-22.9c0-23.73-6.31-41.39-18.52-53.5L629,62.79c74.19,5.38,131.54,39,144.94,114.82A205.86,205.86,0,0,1,776.9,213.54Z" transform="translate(-325 -47.43)"/><path class="cls-2" d="M654.43,177.65a60,60,0,0,0-17.14-11.78L615.07,65.62H498.8l34.86,134.25-4.47,26.61L486.49,62H606.84q11.28,0,22.14.77Z" transform="translate(-325 -47.43)"/><path class="cls-4" d="M611.82,527.77a19.35,19.35,0,0,0-5.72,8.13q-1.46,4.32-2.93,15.88a141,141,0,0,1-3.33,18.4,37.63,37.63,0,0,1-6.46,12.92,33,33,0,0,1-11.11,9.49A28.72,28.72,0,0,1,568.8,596q-7.53,0-11.27-4a12.87,12.87,0,0,1-3.74-9.12A4.31,4.31,0,0,1,555,580a24.49,24.49,0,0,1,4.84-3.58c2.43-1.52,4.11-2.27,5-2.27,1.15,0,1.73.71,1.73,2.15,0,.35-.18,1.63-.55,3.87s-.55,3.56-.55,4a8.14,8.14,0,0,0,1.67,5.26,5.23,5.23,0,0,0,4.24,2.07q5.43,0,9.62-7.5t5.88-22.12q1.7-14.64,4.47-21.25a25.6,25.6,0,0,1,8.07-10.68q5.31-4.06,9.54-4.06C609.74,525.84,610.7,526.48,611.82,527.77Zm26.87,54.31a61.87,61.87,0,0,1-10.93,10.55A16.88,16.88,0,0,1,618,596a10.3,10.3,0,0,1-8.23-3.64,14.12,14.12,0,0,1-3.12-9.54,44.65,44.65,0,0,1,1.49-9.72,43.67,43.67,0,0,0,1.49-9.48c0-3.53-1.06-5.34-3.18-5.46a1.83,1.83,0,0,1-1.94-2c0-2.23.75-3.35,2.25-3.35l3.5.23q4.92,0,7.82-5.23a25.66,25.66,0,0,0,2.9-12.61Q621,518,603,518a32.77,32.77,0,0,0-20.34,6.73q-8.88,6.74-8.89,15a7.67,7.67,0,0,0,4.29,7.1c1.36.76,2,1.68,2,2.78s-1.32,2.11-4,3.38-4.46,1.9-5.44,1.9c-1.53,0-2.92-1.08-4.15-3.26a14.84,14.84,0,0,1-1.86-7.47q0-12.62,11.76-21.59t28.7-9q14.22,0,22.14,6.65t7.92,16.13A18.72,18.72,0,0,1,630.87,548q-4.36,5.63-17.12,8.75a20.66,20.66,0,0,1,6.77,6.28,15.72,15.72,0,0,1,2.12,8.49,41,41,0,0,1-.55,6.36,39.27,39.27,0,0,0-.55,4.49q0,4.89,3.55,4.89,4.77,0,13.6-11.71Z" transform="translate(-325 -47.43)"/><path class="cls-4" d="M677.73,582.13a66.1,66.1,0,0,1-11.91,10.49A21.25,21.25,0,0,1,654.16,596a14.57,14.57,0,0,1-11.48-5q-4.36-4.93-4.36-13A34.31,34.31,0,0,1,646,556.26q7.69-9.75,17-9.74a10.94,10.94,0,0,1,7.79,2.72,9.35,9.35,0,0,1,2.93,7.16q0,11.76-23,19.09,2.09,11.07,10.93,11.08a12,12,0,0,0,6.58-2q3.13-2,9.46-8.95Zm-27.39-10.5q13.38-4.1,13.38-15.12,0-5.44-3.65-5.45-3.45,0-6.59,5.71T650.34,571.63Z" transform="translate(-325 -47.43)"/><path class="cls-4" d="M724.67,582.13a15.17,15.17,0,0,1-4.86,3.24,11.28,11.28,0,0,1-3.81,1,11.55,11.55,0,0,1-7.53-3.18Q699.17,596,688.76,596a10,10,0,0,1-8.49-4.07q-3.06-4-3.06-11.33,0-8,3.66-19.65l3.66-11.65,14.16-2.89-6.28,20.5q-1,3.35-1.87,8a40.37,40.37,0,0,0-.89,6.59,8.59,8.59,0,0,0,1.49,5.14,4.36,4.36,0,0,0,3.63,2.08q5,0,10.82-9.32a28.09,28.09,0,0,1,1.29-26.3q3.95-6.54,8.65-6.53c2.37,0,3.55,2,3.55,6q0,11.53-8.57,26.64a7.89,7.89,0,0,0,5.59,2.67q3.55,0,8.57-6.19Z" transform="translate(-325 -47.43)"/><path class="cls-4" d="M750.34,582.13q-12.23,14-18.29,14-3.36,0-5.65-3.72a17.53,17.53,0,0,1-2.3-9.35q0-12.09,7.53-33.51l13.27-3h.63L740.3,564.3q-3.24,11-3.24,15.73a5.52,5.52,0,0,0,.76,3,2.23,2.23,0,0,0,1.91,1.17,6.63,6.63,0,0,0,4.1-1.62,52.28,52.28,0,0,0,6.51-7Zm-1-57.83q0,13.63-9.26,13.64a10.9,10.9,0,0,1-7.68-3,42.85,42.85,0,0,0,4.7-11.24q4.14,2.78,6.64,2.78A9,9,0,0,0,749.3,524.3Z" transform="translate(-325 -47.43)"/><path class="cls-4" d="M789.44,582.13a65.77,65.77,0,0,1-11.92,10.49A21.19,21.19,0,0,1,765.87,596a14.57,14.57,0,0,1-11.48-5Q750,586.12,750,578a34.31,34.31,0,0,1,7.68-21.78q7.68-9.75,17-9.74a11,11,0,0,1,7.79,2.72,9.35,9.35,0,0,1,2.93,7.16q0,11.76-23,19.09,2.09,11.07,10.92,11.08a12,12,0,0,0,6.59-2q3.13-2,9.46-8.95Zm-27.39-10.5q13.38-4.1,13.38-15.12,0-5.44-3.66-5.45-3.45,0-6.58,5.71T762.05,571.63Z" transform="translate(-325 -47.43)"/><path class="cls-4" d="M861.94,582.13a16.14,16.14,0,0,1-5,3.24,11.77,11.77,0,0,1-3.87,1,11.37,11.37,0,0,1-7.48-3.18Q836.07,596,826,596q-7.43,0-10.61-8.87-7,8.86-15.11,8.87a10.07,10.07,0,0,1-8.31-3.78q-3-3.78-3-10.43a59.36,59.36,0,0,1,1.86-14.54q1.85-7.38,5.67-18.06l13.78-2.78-3.87,12.66q-4.92,16.47-4.9,22.72a8.27,8.27,0,0,0,1.31,4.83,3.9,3.9,0,0,0,3.29,1.88q4.19,0,8.37-7a62.3,62.3,0,0,1,3-18.52l4.28-13.74,14-2.79-5.85,19.66q-2.83,9.48-2.83,15a9.34,9.34,0,0,0,1.36,5.34,4.18,4.18,0,0,0,3.61,2,7.69,7.69,0,0,0,5.23-2.21,38.7,38.7,0,0,0,5.55-6.71A25,25,0,0,1,840,568.05,28.91,28.91,0,0,1,843.91,553q3.92-6.56,8.83-6.56,3.4,0,3.4,5.57,0,12-8.52,27.15a7.72,7.72,0,0,0,5.54,2.67q3.51,0,8.78-6.19Z" transform="translate(-325 -47.43)"/><path class="cls-4" d="M557.66,471.16H575.2c10.72,0,19.36,2.59,19.36,10.62,0,7.77-8.88,11.19-19.36,11.19h-6.35v11.2H557.66ZM574.55,487c6.13,0,9-1.83,9-5.26s-3.15-4.69-9-4.69h-5.7v10Z" transform="translate(-325 -47.43)"/><path class="cls-4" d="M600.4,487.51c0-11,8.11-17,19.88-17s19.89,5.93,19.89,17c0,11.3-8.11,17.27-19.89,17.27S600.4,498.81,600.4,487.51Zm28.29,0c0-6.86-3.25-10.51-8.41-10.51s-8.41,3.65-8.41,10.51c0,7.12,3.25,10.82,8.41,10.82S628.69,494.63,628.69,487.51Z" transform="translate(-325 -47.43)"/><path class="cls-4" d="M645.92,487.51c0-11,8.11-17,19.88-17s19.89,5.93,19.89,17c0,11.3-8.11,17.27-19.89,17.27S645.92,498.81,645.92,487.51Zm28.29,0c0-6.86-3.25-10.51-8.41-10.51s-8.41,3.65-8.41,10.51c0,7.12,3.26,10.82,8.41,10.82S674.21,494.63,674.21,487.51Z" transform="translate(-325 -47.43)"/><path class="cls-4" d="M693.58,471.16h11.47l10.4,16.41,4.24,7.26H720c-.5-3.48-1.55-8.11-1.55-12V471.16h10.67v33H717.6l-10.4-16.45L703,480.5h-.26c.5,3.65,1.55,8.08,1.55,12v11.71H693.58Z" transform="translate(-325 -47.43)"/><path class="cls-4" d="M735.19,471.16h11.87L753,486.53c1.47,3.61,2.46,7,4,10.58h.3c1.49-3.63,2.56-7,4-10.58l5.83-15.37H778.5l-14.91,33H750.14Z" transform="translate(-325 -47.43)"/><path class="cls-4" d="M786.61,471.16h32.78v6.26H797.8V484h18.34v6.27H797.8v7.6h22.35v6.26H786.61Z" transform="translate(-325 -47.43)"/><path class="cls-4" d="M830,471.16h11.21v12.71h13.41V471.16H865.8v33H854.59V490.4H841.18v13.77H830Z" transform="translate(-325 -47.43)"/><path class="cls-4" d="M653.48,637.7l4-4.62a13.67,13.67,0,0,0,8.27,3.1c3,0,4.37-1.1,4.37-2.55,0-2.14-1.85-2.66-4.79-3.84l-4.06-1.65c-3.45-1.25-6.59-3.77-6.59-8.09,0-4.92,4.64-8.85,11.4-8.85a15.48,15.48,0,0,1,10.34,3.89l-3.55,4.24a11.45,11.45,0,0,0-7.17-2.32c-2.32,0-3.9.91-3.9,2.65s2.09,2.44,5.07,3.51l3.81,1.53c4.08,1.46,6.65,3.89,6.65,8.08,0,4.93-4.34,9.21-12,9.21A18.43,18.43,0,0,1,653.48,637.7Z" transform="translate(-325 -47.43)"/><path class="cls-4" d="M682.35,630.13c0-7.4,6-11.84,12.33-11.84,7.31,0,11.15,4.71,11.15,10.85a19.16,19.16,0,0,1-.29,3h-18v-4.49h13.23l-1.11,1.27c0-3.63-1.65-5.53-4.77-5.53-3.47,0-5.75,2.24-5.75,6.74,0,4.68,2.68,6.75,7.29,6.75a13.53,13.53,0,0,0,6.1-1.57l2.33,4a18.74,18.74,0,0,1-9.39,2.65C688.1,642,682.35,637.64,682.35,630.13Z" transform="translate(-325 -47.43)"/><path class="cls-4" d="M713.89,618.84h5.78l.55,4.94h.17a11.09,11.09,0,0,1,9.6-5.49,10.18,10.18,0,0,1,4.55.91l-1.42,5.64a12.76,12.76,0,0,0-4.2-.67c-2.93,0-5.95,1.46-8,5.51v11.76h-7Z" transform="translate(-325 -47.43)"/><path class="cls-4" d="M738.53,618.84h7.05l3.73,10.65c.77,2.27,1.43,4.59,2.13,7h.19c.71-2.37,1.34-4.69,2.12-7l3.73-10.65h6.72l-8.69,22.6h-8.06Z" transform="translate(-325 -47.43)"/><path class="cls-4" d="M779,624.09h-9.54v-5.25H786v22.6h-7Zm-1.48-12.88c0-2.46,2-4.17,4.67-4.17s4.67,1.71,4.67,4.17-2,4.1-4.67,4.1S777.5,613.67,777.5,611.21Z" transform="translate(-325 -47.43)"/><path class="cls-4" d="M797.54,630.15c0-7.52,6.41-11.86,13.7-11.86a13.19,13.19,0,0,1,8.87,3.07l-3.23,4.16a8.91,8.91,0,0,0-5.25-1.82c-4.08,0-6.89,2.53-6.89,6.45s2.77,6.43,6.66,6.43a11.26,11.26,0,0,0,6.23-2.16l2.83,4.24a15.88,15.88,0,0,1-9.73,3.33C803.26,642,797.54,637.65,797.54,630.15Z" transform="translate(-325 -47.43)"/><path class="cls-4" d="M825.62,630.13c0-7.4,6-11.84,12.33-11.84,7.31,0,11.16,4.71,11.16,10.85a17.78,17.78,0,0,1-.3,3h-18v-4.49h13.22L843,628.92c0-3.63-1.65-5.53-4.77-5.53-3.47,0-5.74,2.24-5.74,6.74,0,4.68,2.67,6.75,7.28,6.75a13.53,13.53,0,0,0,6.1-1.57l2.33,4a18.74,18.74,0,0,1-9.39,2.65C831.37,642,825.62,637.64,825.62,630.13Z" transform="translate(-325 -47.43)"/><path class="cls-5" d="M345.23,444.62l135-11.21A20.56,20.56,0,0,1,502.4,452.2l6,72,7,79.36a20.33,20.33,0,0,1-18.76,22.16L361.21,637" transform="translate(-325 -47.43)"/><path class="cls-6" d="M437,579.3s-13.76-36.41,34.16-65.56c-1.16,10.83-1.71,14.17-1.71,14.17L480.6,508s42.28-7.64,56.93-29.9a109.45,109.45,0,0,1-10.29,30.15L516,517.44l9.36-1.6s-4.82,16.49-12,24.1c-4,1.16-19.09,3.65-19.09,3.65l13.59,4.65s-8.13,11.41-15.47,17.38c-8.4,3.17-25-2.88-25-2.88a23.18,23.18,0,0,0,13.49,8.37C471.43,581.39,447.83,580.46,437,579.3Z" transform="translate(-325 -47.43)"/><path class="cls-7" d="M421.22,607.84s14.29-46.57,76.45-88.05" transform="translate(-325 -47.43)"/><line class="cls-7" x1="68.8" y1="426.27" x2="142.55" y2="420.15"/><line class="cls-7" x1="70.54" y1="447.2" x2="144.29" y2="441.07"/><line class="cls-7" x1="72.2" y1="467.13" x2="125.02" y2="462.74"/><circle class="cls-8" cx="42" cy="523.57" r="42"/><line class="cls-9" x1="37.89" y1="548.09" x2="65.17" y2="502.68"/><line class="cls-9" x1="20.04" y1="526.66" x2="36.33" y2="548.58"/></svg>