<svg width="1138" height="154" viewBox="0 0 1138 154" fill="none" xmlns="http://www.w3.org/2000/svg">
<g clip-path="url(#clip0_479_6)">
<path d="M24.9886 22H23.3864C23.267 21.4034 23.0511 20.8523 22.7386 20.3466C22.4318 19.8352 22.0455 19.3892 21.5795 19.0085C21.1136 18.6278 20.5852 18.3324 19.9943 18.1222C19.4034 17.9119 18.7642 17.8068 18.0767 17.8068C16.9744 17.8068 15.9688 18.0937 15.0597 18.6676C14.1563 19.2415 13.4318 20.0852 12.8864 21.1989C12.3466 22.3068 12.0767 23.6648 12.0767 25.2727C12.0767 26.892 12.3466 28.2557 12.8864 29.3636C13.4318 30.4716 14.1563 31.3125 15.0597 31.8864C15.9688 32.4545 16.9744 32.7386 18.0767 32.7386C18.7642 32.7386 19.4034 32.6335 19.9943 32.4233C20.5852 32.2131 21.1136 31.9205 21.5795 31.5455C22.0455 31.1648 22.4318 30.7187 22.7386 30.2074C23.0511 29.696 23.267 29.142 23.3864 28.5455H24.9886C24.8466 29.3466 24.5795 30.0938 24.1875 30.7869C23.8011 31.4744 23.3068 32.0767 22.7045 32.5938C22.108 33.1108 21.4205 33.5142 20.642 33.804C19.8636 34.0937 19.0085 34.2386 18.0767 34.2386C16.6108 34.2386 15.3097 33.8722 14.1733 33.1392C13.0369 32.4006 12.1449 31.3608 11.4972 30.0199C10.8551 28.679 10.5341 27.0966 10.5341 25.2727C10.5341 23.4489 10.8551 21.8665 11.4972 20.5256C12.1449 19.1847 13.0369 18.1477 14.1733 17.4148C15.3097 16.6761 16.6108 16.3068 18.0767 16.3068C19.0085 16.3068 19.8636 16.4517 20.642 16.7415C21.4205 17.0256 22.108 17.429 22.7045 17.9517C23.3068 18.4688 23.8011 19.071 24.1875 19.7585C24.5795 20.446 24.8466 21.1932 24.9886 22ZM29.9339 16.5455V34H28.4169V16.5455H29.9339ZM39.2408 34.2727C38.0192 34.2727 36.9624 33.9886 36.0703 33.4205C35.1783 32.8466 34.4879 32.054 33.9993 31.0426C33.5163 30.0256 33.2749 28.8551 33.2749 27.5312C33.2749 26.2131 33.5163 25.0426 33.9993 24.0199C34.4879 22.9915 35.1612 22.1875 36.0192 21.608C36.8828 21.0227 37.88 20.7301 39.0107 20.7301C39.7209 20.7301 40.4055 20.8608 41.0646 21.1222C41.7237 21.3778 42.3146 21.7727 42.8374 22.3068C43.3658 22.8352 43.7834 23.5028 44.0902 24.3097C44.397 25.1108 44.5504 26.0597 44.5504 27.1562V27.9062H34.3232V26.5682H42.9993C42.9993 25.7273 42.8288 24.9716 42.4879 24.3011C42.1527 23.625 41.6839 23.0909 41.0817 22.6989C40.4851 22.3068 39.7947 22.1108 39.0107 22.1108C38.1811 22.1108 37.451 22.3324 36.8203 22.7756C36.1896 23.2187 35.6953 23.804 35.3374 24.5312C34.9851 25.2585 34.8061 26.054 34.8004 26.9176V27.7188C34.8004 28.7585 34.9794 29.6676 35.3374 30.446C35.701 31.2187 36.2152 31.8182 36.88 32.2443C37.5447 32.6705 38.3317 32.8835 39.2408 32.8835C39.8601 32.8835 40.4027 32.7869 40.8686 32.5938C41.3402 32.4006 41.7351 32.142 42.0533 31.8182C42.3771 31.4886 42.6214 31.1278 42.7862 30.7358L44.2266 31.2045C44.0277 31.7557 43.701 32.2642 43.2464 32.7301C42.7976 33.196 42.2351 33.571 41.5589 33.8551C40.8885 34.1335 40.1158 34.2727 39.2408 34.2727ZM51.5497 34.2983C50.7599 34.2983 50.0384 34.1449 49.3849 33.8381C48.7315 33.5256 48.2116 33.0767 47.8253 32.4915C47.4389 31.9006 47.2457 31.1847 47.2457 30.3438C47.2457 29.696 47.3679 29.1506 47.6122 28.7074C47.8565 28.2642 48.2031 27.9006 48.652 27.6165C49.1009 27.3324 49.6321 27.108 50.2457 26.9432C50.8594 26.7784 51.5355 26.6506 52.2741 26.5597C53.0071 26.4687 53.6264 26.3892 54.1321 26.321C54.6435 26.2528 55.0327 26.1449 55.2997 25.9972C55.5668 25.8494 55.7003 25.6108 55.7003 25.2812V24.9744C55.7003 24.0824 55.4332 23.3807 54.8991 22.8693C54.3707 22.3523 53.6094 22.0938 52.6151 22.0938C51.6719 22.0938 50.902 22.3011 50.3054 22.7159C49.7145 23.1307 49.2997 23.6193 49.0611 24.1818L47.6207 23.6619C47.9162 22.946 48.3253 22.375 48.848 21.9489C49.3707 21.517 49.956 21.2074 50.6037 21.0199C51.2514 20.8267 51.9077 20.7301 52.5724 20.7301C53.0724 20.7301 53.5923 20.7955 54.1321 20.9261C54.6776 21.0568 55.1832 21.2841 55.6491 21.608C56.1151 21.9261 56.4929 22.3722 56.7827 22.946C57.0724 23.5142 57.2173 24.2358 57.2173 25.1108V34H55.7003V31.929H55.6065C55.4247 32.3153 55.1548 32.6903 54.7969 33.054C54.4389 33.4176 53.9901 33.7159 53.4503 33.9489C52.9105 34.1818 52.277 34.2983 51.5497 34.2983ZM51.7543 32.9091C52.5611 32.9091 53.2599 32.7301 53.8509 32.3722C54.4418 32.0142 54.8963 31.5398 55.2145 30.9489C55.5384 30.3523 55.7003 29.696 55.7003 28.9801V27.0881C55.5866 27.196 55.3963 27.2926 55.1293 27.3778C54.8679 27.4631 54.5639 27.5398 54.2173 27.608C53.8764 27.6705 53.5355 27.7244 53.1946 27.7699C52.8537 27.8153 52.5469 27.8551 52.2741 27.8892C51.5355 27.9801 50.9048 28.1222 50.3821 28.3153C49.8594 28.5085 49.4588 28.7756 49.1804 29.1165C48.902 29.4517 48.7628 29.8835 48.7628 30.4119C48.7628 31.2074 49.0469 31.8239 49.6151 32.2614C50.1832 32.6932 50.8963 32.9091 51.7543 32.9091ZM62.7699 25.8182V34H61.2528V20.9091H62.7273V22.9631H62.8636C63.1705 22.2926 63.6477 21.7557 64.2955 21.3523C64.9489 20.9432 65.7557 20.7386 66.7159 20.7386C67.5966 20.7386 68.3693 20.9233 69.0341 21.2926C69.7045 21.6562 70.2244 22.1932 70.5938 22.9034C70.9688 23.6136 71.1562 24.4858 71.1562 25.5199V34H69.6392V25.6136C69.6392 24.5398 69.3381 23.6903 68.7358 23.0653C68.1392 22.4403 67.3381 22.1278 66.3324 22.1278C65.6449 22.1278 65.0341 22.2756 64.5 22.571C63.9659 22.8665 63.5426 23.2926 63.2301 23.8494C62.9233 24.4006 62.7699 25.0568 62.7699 25.8182ZM76.6683 16.5455V34H75.1513V16.5455H76.6683ZM80.6996 34V20.9091H82.2251V34H80.6996ZM81.4751 18.6591C81.1626 18.6591 80.8956 18.554 80.674 18.3438C80.4524 18.1278 80.3416 17.8693 80.3416 17.5682C80.3416 17.267 80.4524 17.0114 80.674 16.8011C80.8956 16.5852 81.1626 16.4773 81.4751 16.4773C81.7876 16.4773 82.0547 16.5852 82.2763 16.8011C82.4979 17.0114 82.6087 17.267 82.6087 17.5682C82.6087 17.8693 82.4979 18.1278 82.2763 18.3438C82.0547 18.554 81.7876 18.6591 81.4751 18.6591ZM87.7543 25.8182V34H86.2372V20.9091H87.7116V22.9631H87.848C88.1548 22.2926 88.6321 21.7557 89.2798 21.3523C89.9332 20.9432 90.7401 20.7386 91.7003 20.7386C92.581 20.7386 93.3537 20.9233 94.0185 21.2926C94.6889 21.6562 95.2088 22.1932 95.5781 22.9034C95.9531 23.6136 96.1406 24.4858 96.1406 25.5199V34H94.6236V25.6136C94.6236 24.5398 94.3224 23.6903 93.7202 23.0653C93.1236 22.4403 92.3224 22.1278 91.3168 22.1278C90.6293 22.1278 90.0185 22.2756 89.4844 22.571C88.9503 22.8665 88.527 23.2926 88.2145 23.8494C87.9077 24.4006 87.7543 25.0568 87.7543 25.8182ZM105.428 34.2727C104.207 34.2727 103.15 33.9886 102.258 33.4205C101.366 32.8466 100.675 32.054 100.187 31.0426C99.7038 30.0256 99.4624 28.8551 99.4624 27.5312C99.4624 26.2131 99.7038 25.0426 100.187 24.0199C100.675 22.9915 101.349 22.1875 102.207 21.608C103.07 21.0227 104.067 20.7301 105.198 20.7301C105.908 20.7301 106.593 20.8608 107.252 21.1222C107.911 21.3778 108.502 21.7727 109.025 22.3068C109.553 22.8352 109.971 23.5028 110.278 24.3097C110.585 25.1108 110.738 26.0597 110.738 27.1562V27.9062H100.511V26.5682H109.187C109.187 25.7273 109.016 24.9716 108.675 24.3011C108.34 23.625 107.871 23.0909 107.269 22.6989C106.673 22.3068 105.982 22.1108 105.198 22.1108C104.369 22.1108 103.638 22.3324 103.008 22.7756C102.377 23.2187 101.883 23.804 101.525 24.5312C101.173 25.2585 100.994 26.054 100.988 26.9176V27.7188C100.988 28.7585 101.167 29.6676 101.525 30.446C101.888 31.2187 102.403 31.8182 103.067 32.2443C103.732 32.6705 104.519 32.8835 105.428 32.8835C106.048 32.8835 106.59 32.7869 107.056 32.5938C107.528 32.4006 107.923 32.142 108.241 31.8182C108.565 31.4886 108.809 31.1278 108.974 30.7358L110.414 31.2045C110.215 31.7557 109.888 32.2642 109.434 32.7301C108.985 33.196 108.423 33.571 107.746 33.8551C107.076 34.1335 106.303 34.2727 105.428 34.2727ZM122.876 23.7812L121.487 24.1733C121.351 23.7812 121.158 23.4261 120.908 23.108C120.658 22.7898 120.331 22.5369 119.928 22.3494C119.53 22.1619 119.036 22.0682 118.445 22.0682C117.558 22.0682 116.831 22.2784 116.263 22.6989C115.695 23.1193 115.411 23.6619 115.411 24.3267C115.411 24.8892 115.604 25.3466 115.99 25.6989C116.382 26.0455 116.984 26.321 117.797 26.5256L119.774 27.0114C120.871 27.2784 121.692 27.7017 122.237 28.2812C122.788 28.8608 123.064 29.5881 123.064 30.4631C123.064 31.2017 122.859 31.858 122.45 32.4318C122.041 33.0057 121.47 33.4574 120.737 33.7869C120.01 34.1108 119.166 34.2727 118.206 34.2727C116.928 34.2727 115.874 33.9858 115.044 33.4119C114.214 32.8324 113.683 31.9972 113.45 30.9062L114.908 30.5483C115.095 31.3267 115.462 31.9148 116.007 32.3125C116.558 32.7102 117.283 32.9091 118.18 32.9091C119.186 32.9091 119.99 32.6847 120.592 32.2358C121.195 31.7812 121.496 31.2131 121.496 30.5312C121.496 30.0028 121.32 29.5597 120.967 29.2017C120.615 28.8381 120.081 28.571 119.365 28.4006L117.226 27.8892C116.089 27.6165 115.249 27.1847 114.703 26.5938C114.158 26.0028 113.885 25.2699 113.885 24.3949C113.885 23.6733 114.081 23.0398 114.473 22.4943C114.865 21.9432 115.405 21.5114 116.092 21.1989C116.78 20.8864 117.564 20.7301 118.445 20.7301C119.643 20.7301 120.601 21.0028 121.317 21.5483C122.038 22.0881 122.558 22.8324 122.876 23.7812ZM135.181 23.7812L133.792 24.1733C133.656 23.7812 133.462 23.4261 133.212 23.108C132.962 22.7898 132.636 22.5369 132.232 22.3494C131.835 22.1619 131.34 22.0682 130.749 22.0682C129.863 22.0682 129.136 22.2784 128.567 22.6989C127.999 23.1193 127.715 23.6619 127.715 24.3267C127.715 24.8892 127.908 25.3466 128.295 25.6989C128.687 26.0455 129.289 26.321 130.102 26.5256L132.079 27.0114C133.175 27.2784 133.996 27.7017 134.542 28.2812C135.093 28.8608 135.369 29.5881 135.369 30.4631C135.369 31.2017 135.164 31.858 134.755 32.4318C134.346 33.0057 133.775 33.4574 133.042 33.7869C132.315 34.1108 131.471 34.2727 130.511 34.2727C129.232 34.2727 128.178 33.9858 127.349 33.4119C126.519 32.8324 125.988 31.9972 125.755 30.9062L127.212 30.5483C127.4 31.3267 127.766 31.9148 128.312 32.3125C128.863 32.7102 129.587 32.9091 130.485 32.9091C131.491 32.9091 132.295 32.6847 132.897 32.2358C133.499 31.7812 133.8 31.2131 133.8 30.5312C133.8 30.0028 133.624 29.5597 133.272 29.2017C132.92 28.8381 132.386 28.571 131.67 28.4006L129.531 27.8892C128.394 27.6165 127.553 27.1847 127.008 26.5938C126.462 26.0028 126.19 25.2699 126.19 24.3949C126.19 23.6733 126.386 23.0398 126.778 22.4943C127.17 21.9432 127.71 21.5114 128.397 21.1989C129.085 20.8864 129.869 20.7301 130.749 20.7301C131.948 20.7301 132.906 21.0028 133.621 21.5483C134.343 22.0881 134.863 22.8324 135.181 23.7812Z" fill="black"/>
<path d="M708.344 34H706.673L713.023 16.5455H714.727L721.077 34H719.406L713.935 18.6165H713.815L708.344 34ZM709.545 27.3097H718.205V28.7415H709.545V27.3097ZM728.866 34.2727C727.696 34.2727 726.676 33.9801 725.807 33.3949C724.943 32.8097 724.273 32.0085 723.795 30.9915C723.318 29.9744 723.08 28.8153 723.08 27.5142C723.08 26.2017 723.321 25.0341 723.804 24.0114C724.293 22.9886 724.969 22.1875 725.832 21.608C726.696 21.0227 727.699 20.7301 728.841 20.7301C729.716 20.7301 730.509 20.9006 731.219 21.2415C731.929 21.5767 732.514 22.0511 732.974 22.6648C733.44 23.2727 733.733 23.983 733.852 24.7955H732.318C732.159 24.0568 731.776 23.4261 731.168 22.9034C730.565 22.375 729.798 22.1108 728.866 22.1108C728.031 22.1108 727.293 22.3381 726.651 22.7926C726.009 23.2415 725.506 23.8693 725.142 24.6761C724.784 25.4773 724.605 26.4062 724.605 27.4631C724.605 28.5256 724.781 29.4659 725.134 30.2841C725.486 31.0966 725.98 31.733 726.616 32.1932C727.259 32.6534 728.009 32.8835 728.866 32.8835C729.446 32.8835 729.974 32.7756 730.452 32.5597C730.935 32.3381 731.338 32.0256 731.662 31.6222C731.991 31.2187 732.213 30.7386 732.327 30.1818H733.861C733.747 30.9716 733.466 31.6761 733.017 32.2955C732.574 32.9091 731.997 33.392 731.287 33.7443C730.582 34.0966 729.776 34.2727 728.866 34.2727ZM742.226 34.2727C741.055 34.2727 740.036 33.9801 739.166 33.3949C738.303 32.8097 737.632 32.0085 737.155 30.9915C736.678 29.9744 736.439 28.8153 736.439 27.5142C736.439 26.2017 736.68 25.0341 737.163 24.0114C737.652 22.9886 738.328 22.1875 739.192 21.608C740.055 21.0227 741.058 20.7301 742.2 20.7301C743.075 20.7301 743.868 20.9006 744.578 21.2415C745.288 21.5767 745.874 22.0511 746.334 22.6648C746.8 23.2727 747.092 23.983 747.212 24.7955H745.678C745.518 24.0568 745.135 23.4261 744.527 22.9034C743.925 22.375 743.158 22.1108 742.226 22.1108C741.391 22.1108 740.652 22.3381 740.01 22.7926C739.368 23.2415 738.865 23.8693 738.501 24.6761C738.143 25.4773 737.964 26.4062 737.964 27.4631C737.964 28.5256 738.141 29.4659 738.493 30.2841C738.845 31.0966 739.339 31.733 739.976 32.1932C740.618 32.6534 741.368 32.8835 742.226 32.8835C742.805 32.8835 743.334 32.7756 743.811 32.5597C744.294 32.3381 744.697 32.0256 745.021 31.6222C745.351 31.2187 745.572 30.7386 745.686 30.1818H747.22C747.107 30.9716 746.825 31.6761 746.376 32.2955C745.933 32.9091 745.357 33.392 744.646 33.7443C743.942 34.0966 743.135 34.2727 742.226 34.2727ZM758.79 28.9972V20.9091H760.307V34H758.79V31.8267H758.67C758.364 32.4972 757.878 33.0568 757.213 33.5057C756.548 33.9489 755.736 34.1705 754.776 34.1705C753.94 34.1705 753.199 33.9886 752.551 33.625C751.903 33.2557 751.395 32.7159 751.026 32.0057C750.656 31.2955 750.472 30.4233 750.472 29.3892V20.9091H751.989V29.2955C751.989 30.3182 752.29 31.142 752.892 31.767C753.494 32.3864 754.267 32.696 755.21 32.696C755.801 32.696 756.369 32.554 756.915 32.2699C757.46 31.9858 757.909 31.571 758.261 31.0256C758.614 30.4744 758.79 29.7983 758.79 28.9972ZM764.323 34V20.9091H765.798V22.9205H765.908C766.17 22.2614 766.624 21.7301 767.272 21.3267C767.925 20.9176 768.664 20.7131 769.488 20.7131C769.613 20.7131 769.752 20.7159 769.906 20.7216C770.059 20.7273 770.187 20.733 770.289 20.7386V22.2812C770.221 22.2699 770.102 22.2528 769.931 22.2301C769.761 22.2074 769.576 22.196 769.377 22.196C768.695 22.196 768.087 22.3409 767.553 22.6307C767.025 22.9148 766.607 23.3097 766.3 23.8153C765.994 24.321 765.84 24.8977 765.84 25.5455V34H764.323ZM776.534 34.2983C775.744 34.2983 775.023 34.1449 774.369 33.8381C773.716 33.5256 773.196 33.0767 772.81 32.4915C772.423 31.9006 772.23 31.1847 772.23 30.3438C772.23 29.696 772.352 29.1506 772.597 28.7074C772.841 28.2642 773.188 27.9006 773.636 27.6165C774.085 27.3324 774.616 27.108 775.23 26.9432C775.844 26.7784 776.52 26.6506 777.259 26.5597C777.991 26.4687 778.611 26.3892 779.116 26.321C779.628 26.2528 780.017 26.1449 780.284 25.9972C780.551 25.8494 780.685 25.6108 780.685 25.2812V24.9744C780.685 24.0824 780.418 23.3807 779.884 22.8693C779.355 22.3523 778.594 22.0938 777.599 22.0938C776.656 22.0938 775.886 22.3011 775.29 22.7159C774.699 23.1307 774.284 23.6193 774.045 24.1818L772.605 23.6619C772.901 22.946 773.31 22.375 773.832 21.9489C774.355 21.517 774.94 21.2074 775.588 21.0199C776.236 20.8267 776.892 20.7301 777.557 20.7301C778.057 20.7301 778.577 20.7955 779.116 20.9261C779.662 21.0568 780.168 21.2841 780.634 21.608C781.099 21.9261 781.477 22.3722 781.767 22.946C782.057 23.5142 782.202 24.2358 782.202 25.1108V34H780.685V31.929H780.591C780.409 32.3153 780.139 32.6903 779.781 33.054C779.423 33.4176 778.974 33.7159 778.435 33.9489C777.895 34.1818 777.261 34.2983 776.534 34.2983ZM776.739 32.9091C777.545 32.9091 778.244 32.7301 778.835 32.3722C779.426 32.0142 779.881 31.5398 780.199 30.9489C780.523 30.3523 780.685 29.696 780.685 28.9801V27.0881C780.571 27.196 780.381 27.2926 780.114 27.3778C779.852 27.4631 779.548 27.5398 779.202 27.608C778.861 27.6705 778.52 27.7244 778.179 27.7699C777.838 27.8153 777.531 27.8551 777.259 27.8892C776.52 27.9801 775.889 28.1222 775.366 28.3153C774.844 28.5085 774.443 28.7756 774.165 29.1165C773.886 29.4517 773.747 29.8835 773.747 30.4119C773.747 31.2074 774.031 31.8239 774.599 32.2614C775.168 32.6932 775.881 32.9091 776.739 32.9091ZM791.351 34.2727C790.18 34.2727 789.161 33.9801 788.291 33.3949C787.428 32.8097 786.757 32.0085 786.28 30.9915C785.803 29.9744 785.564 28.8153 785.564 27.5142C785.564 26.2017 785.805 25.0341 786.288 24.0114C786.777 22.9886 787.453 22.1875 788.317 21.608C789.18 21.0227 790.183 20.7301 791.325 20.7301C792.2 20.7301 792.993 20.9006 793.703 21.2415C794.413 21.5767 794.999 22.0511 795.459 22.6648C795.925 23.2727 796.217 23.983 796.337 24.7955H794.803C794.643 24.0568 794.26 23.4261 793.652 22.9034C793.05 22.375 792.283 22.1108 791.351 22.1108C790.516 22.1108 789.777 22.3381 789.135 22.7926C788.493 23.2415 787.99 23.8693 787.626 24.6761C787.268 25.4773 787.089 26.4062 787.089 27.4631C787.089 28.5256 787.266 29.4659 787.618 30.2841C787.97 31.0966 788.464 31.733 789.101 32.1932C789.743 32.6534 790.493 32.8835 791.351 32.8835C791.93 32.8835 792.459 32.7756 792.936 32.5597C793.419 32.3381 793.822 32.0256 794.146 31.6222C794.476 31.2187 794.697 30.7386 794.811 30.1818H796.345C796.232 30.9716 795.95 31.6761 795.501 32.2955C795.058 32.9091 794.482 33.392 793.771 33.7443C793.067 34.0966 792.26 34.2727 791.351 34.2727ZM800.653 38.9091C800.352 38.9091 800.071 38.8807 799.81 38.8239C799.548 38.767 799.341 38.7045 799.188 38.6364L799.597 37.2983C800.114 37.4574 800.574 37.5142 800.977 37.4688C801.381 37.429 801.739 37.2472 802.051 36.9233C802.364 36.6051 802.642 36.1165 802.886 35.4574L803.364 34.1278L798.548 20.9091H800.193L804.08 31.9972H804.199L808.085 20.9091H809.73L804.19 36.071C803.957 36.7017 803.67 37.2273 803.33 37.6477C802.989 38.0739 802.594 38.3892 802.145 38.5938C801.702 38.804 801.205 38.9091 800.653 38.9091Z" fill="black"/>
<path d="M24.9886 72H23.3864C23.267 71.4034 23.0511 70.8523 22.7386 70.3466C22.4318 69.8352 22.0455 69.3892 21.5795 69.0085C21.1136 68.6278 20.5852 68.3324 19.9943 68.1222C19.4034 67.9119 18.7642 67.8068 18.0767 67.8068C16.9744 67.8068 15.9688 68.0937 15.0597 68.6676C14.1563 69.2415 13.4318 70.0852 12.8864 71.1989C12.3466 72.3068 12.0767 73.6648 12.0767 75.2727C12.0767 76.892 12.3466 78.2557 12.8864 79.3636C13.4318 80.4716 14.1563 81.3125 15.0597 81.8864C15.9688 82.4545 16.9744 82.7386 18.0767 82.7386C18.7642 82.7386 19.4034 82.6335 19.9943 82.4233C20.5852 82.2131 21.1136 81.9205 21.5795 81.5455C22.0455 81.1648 22.4318 80.7187 22.7386 80.2074C23.0511 79.696 23.267 79.142 23.3864 78.5455H24.9886C24.8466 79.3466 24.5795 80.0938 24.1875 80.7869C23.8011 81.4744 23.3068 82.0767 22.7045 82.5938C22.108 83.1108 21.4205 83.5142 20.642 83.804C19.8636 84.0937 19.0085 84.2386 18.0767 84.2386C16.6108 84.2386 15.3097 83.8722 14.1733 83.1392C13.0369 82.4006 12.1449 81.3608 11.4972 80.0199C10.8551 78.679 10.5341 77.0966 10.5341 75.2727C10.5341 73.4489 10.8551 71.8665 11.4972 70.5256C12.1449 69.1847 13.0369 68.1477 14.1733 67.4148C15.3097 66.6761 16.6108 66.3068 18.0767 66.3068C19.0085 66.3068 19.8636 66.4517 20.642 66.7415C21.4205 67.0256 22.108 67.429 22.7045 67.9517C23.3068 68.4688 23.8011 69.071 24.1875 69.7585C24.5795 70.446 24.8466 71.1932 24.9886 72ZM33.505 84.2727C32.3743 84.2727 31.3743 83.9858 30.505 83.4119C29.6413 82.8381 28.9652 82.0455 28.4766 81.0341C27.9879 80.017 27.7436 78.8437 27.7436 77.5142C27.7436 76.1733 27.9879 74.9943 28.4766 73.9773C28.9652 72.9545 29.6413 72.1591 30.505 71.5909C31.3743 71.017 32.3743 70.7301 33.505 70.7301C34.6357 70.7301 35.6328 71.017 36.4964 71.5909C37.3601 72.1648 38.0362 72.9602 38.5249 73.9773C39.0192 74.9943 39.2663 76.1733 39.2663 77.5142C39.2663 78.8437 39.022 80.017 38.5334 81.0341C38.0447 82.0455 37.3658 82.8381 36.4964 83.4119C35.6328 83.9858 34.6357 84.2727 33.505 84.2727ZM33.505 82.8835C34.4141 82.8835 35.1839 82.6392 35.8146 82.1506C36.4453 81.6619 36.9226 81.0114 37.2464 80.1989C37.576 79.3864 37.7408 78.4915 37.7408 77.5142C37.7408 76.5369 37.576 75.6392 37.2464 74.821C36.9226 74.0028 36.4453 73.3466 35.8146 72.8523C35.1839 72.358 34.4141 72.1108 33.505 72.1108C32.6016 72.1108 31.8317 72.358 31.1953 72.8523C30.5646 73.3466 30.0845 74.0028 29.755 74.821C29.4311 75.6392 29.2692 76.5369 29.2692 77.5142C29.2692 78.4915 29.4311 79.3864 29.755 80.1989C30.0845 81.0114 30.5646 81.6619 31.1953 82.1506C31.826 82.6392 32.5959 82.8835 33.505 82.8835ZM42.5966 84V70.9091H44.071V72.9205H44.2074C44.4688 72.2443 44.9034 71.7131 45.5114 71.3267C46.125 70.9347 46.8608 70.7386 47.7188 70.7386C48.6222 70.7386 49.3636 70.9517 49.9432 71.3778C50.5284 71.7983 50.9659 72.3778 51.2557 73.1165H51.3665C51.6619 72.3892 52.142 71.8125 52.8068 71.3864C53.4773 70.9545 54.2898 70.7386 55.2443 70.7386C56.4602 70.7386 57.4205 71.1222 58.125 71.8892C58.8295 72.6506 59.1818 73.7642 59.1818 75.2301V84H57.6648V75.2301C57.6648 74.196 57.4006 73.4205 56.8722 72.9034C56.3438 72.3864 55.6477 72.1278 54.7841 72.1278C53.7841 72.1278 53.0142 72.4347 52.4744 73.0483C51.9347 73.6619 51.6648 74.4403 51.6648 75.3835V84H50.1136V75.0938C50.1136 74.2074 49.8665 73.4915 49.3722 72.946C48.8778 72.4006 48.1818 72.1278 47.2841 72.1278C46.6818 72.1278 46.1392 72.2756 45.6562 72.571C45.179 72.8665 44.8011 73.2784 44.5227 73.8068C44.25 74.3295 44.1136 74.9318 44.1136 75.6136V84H42.5966ZM63.1982 84V70.9091H64.6726V72.9205H64.8089C65.0703 72.2443 65.505 71.7131 66.1129 71.3267C66.7266 70.9347 67.4624 70.7386 68.3203 70.7386C69.2237 70.7386 69.9652 70.9517 70.5447 71.3778C71.13 71.7983 71.5675 72.3778 71.8572 73.1165H71.968C72.2635 72.3892 72.7436 71.8125 73.4084 71.3864C74.0788 70.9545 74.8913 70.7386 75.8459 70.7386C77.0618 70.7386 78.022 71.1222 78.7266 71.8892C79.4311 72.6506 79.7834 73.7642 79.7834 75.2301V84H78.2663V75.2301C78.2663 74.196 78.0021 73.4205 77.4737 72.9034C76.9453 72.3864 76.2493 72.1278 75.3857 72.1278C74.3857 72.1278 73.6158 72.4347 73.076 73.0483C72.5362 73.6619 72.2663 74.4403 72.2663 75.3835V84H70.7152V75.0938C70.7152 74.2074 70.468 73.4915 69.9737 72.946C69.4794 72.4006 68.7834 72.1278 67.8857 72.1278C67.2834 72.1278 66.7408 72.2756 66.2578 72.571C65.7805 72.8665 65.4027 73.2784 65.1243 73.8068C64.8516 74.3295 64.7152 74.9318 64.7152 75.6136V84H63.1982ZM92.1179 78.9972V70.9091H93.6349V84H92.1179V81.8267H91.9986C91.6918 82.4972 91.206 83.0568 90.5412 83.5057C89.8764 83.9489 89.0639 84.1705 88.1037 84.1705C87.2685 84.1705 86.527 83.9886 85.8793 83.625C85.2315 83.2557 84.723 82.7159 84.3537 82.0057C83.9844 81.2955 83.7997 80.4233 83.7997 79.3892V70.9091H85.3168V79.2955C85.3168 80.3182 85.6179 81.142 86.2202 81.767C86.8224 82.3864 87.5952 82.696 88.5384 82.696C89.1293 82.696 89.6974 82.554 90.2429 82.2699C90.7884 81.9858 91.2372 81.571 91.5895 81.0256C91.9418 80.4744 92.1179 79.7983 92.1179 78.9972ZM99.1683 75.8182V84H97.6513V70.9091H99.1257V72.9631H99.2621C99.5689 72.2926 100.046 71.7557 100.694 71.3523C101.347 70.9432 102.154 70.7386 103.114 70.7386C103.995 70.7386 104.768 70.9233 105.433 71.2926C106.103 71.6562 106.623 72.1932 106.992 72.9034C107.367 73.6136 107.555 74.4858 107.555 75.5199V84H106.038V75.6136C106.038 74.5398 105.737 73.6903 105.134 73.0653C104.538 72.4403 103.737 72.1278 102.731 72.1278C102.043 72.1278 101.433 72.2756 100.898 72.571C100.364 72.8665 99.9411 73.2926 99.6286 73.8494C99.3217 74.4006 99.1683 75.0568 99.1683 75.8182ZM111.567 84V70.9091H113.092V84H111.567ZM112.342 68.6591C112.03 68.6591 111.763 68.554 111.541 68.3438C111.32 68.1278 111.209 67.8693 111.209 67.5682C111.209 67.267 111.32 67.0114 111.541 66.8011C111.763 66.5852 112.03 66.4773 112.342 66.4773C112.655 66.4773 112.922 66.5852 113.143 66.8011C113.365 67.0114 113.476 67.267 113.476 67.5682C113.476 67.8693 113.365 68.1278 113.143 68.3438C112.922 68.554 112.655 68.6591 112.342 68.6591ZM122.218 84.2727C121.048 84.2727 120.028 83.9801 119.158 83.3949C118.295 82.8097 117.624 82.0085 117.147 80.9915C116.67 79.9744 116.431 78.8153 116.431 77.5142C116.431 76.2017 116.673 75.0341 117.156 74.0114C117.644 72.9886 118.32 72.1875 119.184 71.608C120.048 71.0227 121.05 70.7301 122.192 70.7301C123.067 70.7301 123.86 70.9006 124.57 71.2415C125.281 71.5767 125.866 72.0511 126.326 72.6648C126.792 73.2727 127.085 73.983 127.204 74.7955H125.67C125.511 74.0568 125.127 73.4261 124.519 72.9034C123.917 72.375 123.15 72.1108 122.218 72.1108C121.383 72.1108 120.644 72.3381 120.002 72.7926C119.36 73.2415 118.857 73.8693 118.494 74.6761C118.136 75.4773 117.957 76.4062 117.957 77.4631C117.957 78.5256 118.133 79.4659 118.485 80.2841C118.837 81.0966 119.332 81.733 119.968 82.1932C120.61 82.6534 121.36 82.8835 122.218 82.8835C122.798 82.8835 123.326 82.7756 123.803 82.5597C124.286 82.3381 124.69 82.0256 125.013 81.6222C125.343 81.2187 125.565 80.7386 125.678 80.1818H127.212C127.099 80.9716 126.817 81.6761 126.369 82.2955C125.925 82.9091 125.349 83.392 124.638 83.7443C123.934 84.0966 123.127 84.2727 122.218 84.2727ZM134.12 84.2983C133.33 84.2983 132.609 84.1449 131.955 83.8381C131.302 83.5256 130.782 83.0767 130.396 82.4915C130.009 81.9006 129.816 81.1847 129.816 80.3438C129.816 79.696 129.938 79.1506 130.183 78.7074C130.427 78.2642 130.773 77.9006 131.222 77.6165C131.671 77.3324 132.202 77.108 132.816 76.9432C133.43 76.7784 134.106 76.6506 134.844 76.5597C135.577 76.4687 136.197 76.3892 136.702 76.321C137.214 76.2528 137.603 76.1449 137.87 75.9972C138.137 75.8494 138.271 75.6108 138.271 75.2812V74.9744C138.271 74.0824 138.004 73.3807 137.469 72.8693C136.941 72.3523 136.18 72.0938 135.185 72.0938C134.242 72.0938 133.472 72.3011 132.876 72.7159C132.285 73.1307 131.87 73.6193 131.631 74.1818L130.191 73.6619C130.487 72.946 130.896 72.375 131.418 71.9489C131.941 71.517 132.526 71.2074 133.174 71.0199C133.822 70.8267 134.478 70.7301 135.143 70.7301C135.643 70.7301 136.163 70.7955 136.702 70.9261C137.248 71.0568 137.754 71.2841 138.219 71.608C138.685 71.9261 139.063 72.3722 139.353 72.946C139.643 73.5142 139.788 74.2358 139.788 75.1108V84H138.271V81.929H138.177C137.995 82.3153 137.725 82.6903 137.367 83.054C137.009 83.4176 136.56 83.7159 136.021 83.9489C135.481 84.1818 134.847 84.2983 134.12 84.2983ZM134.325 82.9091C135.131 82.9091 135.83 82.7301 136.421 82.3722C137.012 82.0142 137.467 81.5398 137.785 80.9489C138.109 80.3523 138.271 79.696 138.271 78.9801V77.0881C138.157 77.196 137.967 77.2926 137.7 77.3778C137.438 77.4631 137.134 77.5398 136.788 77.608C136.447 77.6705 136.106 77.7244 135.765 77.7699C135.424 77.8153 135.117 77.8551 134.844 77.8892C134.106 77.9801 133.475 78.1222 132.952 78.3153C132.43 78.5085 132.029 78.7756 131.751 79.1165C131.472 79.4517 131.333 79.8835 131.333 80.4119C131.333 81.2074 131.617 81.8239 132.185 82.2614C132.754 82.6932 133.467 82.9091 134.325 82.9091ZM148.979 70.9091V72.2301H142.732V70.9091H148.979ZM144.684 67.7727H146.21V80.5824C146.21 81.1278 146.303 81.5568 146.491 81.8693C146.678 82.1761 146.923 82.3949 147.224 82.5256C147.525 82.6506 147.846 82.7131 148.187 82.7131C148.386 82.7131 148.556 82.7017 148.698 82.679C148.84 82.6506 148.965 82.6222 149.073 82.5938L149.397 83.9659C149.249 84.0227 149.067 84.0739 148.852 84.1193C148.636 84.1705 148.369 84.196 148.05 84.196C147.494 84.196 146.957 84.0739 146.44 83.8295C145.928 83.5852 145.508 83.2216 145.178 82.7386C144.849 82.2557 144.684 81.6562 144.684 80.9403V67.7727ZM152.442 84V70.9091H153.967V84H152.442ZM153.217 68.6591C152.905 68.6591 152.638 68.554 152.416 68.3438C152.195 68.1278 152.084 67.8693 152.084 67.5682C152.084 67.267 152.195 67.0114 152.416 66.8011C152.638 66.5852 152.905 66.4773 153.217 66.4773C153.53 66.4773 153.797 66.5852 154.018 66.8011C154.24 67.0114 154.351 67.267 154.351 67.5682C154.351 67.8693 154.24 68.1278 154.018 68.3438C153.797 68.554 153.53 68.6591 153.217 68.6591ZM163.067 84.2727C161.937 84.2727 160.937 83.9858 160.067 83.4119C159.204 82.8381 158.528 82.0455 158.039 81.0341C157.55 80.017 157.306 78.8437 157.306 77.5142C157.306 76.1733 157.55 74.9943 158.039 73.9773C158.528 72.9545 159.204 72.1591 160.067 71.5909C160.937 71.017 161.937 70.7301 163.067 70.7301C164.198 70.7301 165.195 71.017 166.059 71.5909C166.923 72.1648 167.599 72.9602 168.087 73.9773C168.582 74.9943 168.829 76.1733 168.829 77.5142C168.829 78.8437 168.585 80.017 168.096 81.0341C167.607 82.0455 166.928 82.8381 166.059 83.4119C165.195 83.9858 164.198 84.2727 163.067 84.2727ZM163.067 82.8835C163.977 82.8835 164.746 82.6392 165.377 82.1506C166.008 81.6619 166.485 81.0114 166.809 80.1989C167.138 79.3864 167.303 78.4915 167.303 77.5142C167.303 76.5369 167.138 75.6392 166.809 74.821C166.485 74.0028 166.008 73.3466 165.377 72.8523C164.746 72.358 163.977 72.1108 163.067 72.1108C162.164 72.1108 161.394 72.358 160.758 72.8523C160.127 73.3466 159.647 74.0028 159.317 74.821C158.994 75.6392 158.832 76.5369 158.832 77.5142C158.832 78.4915 158.994 79.3864 159.317 80.1989C159.647 81.0114 160.127 81.6619 160.758 82.1506C161.388 82.6392 162.158 82.8835 163.067 82.8835ZM173.676 75.8182V84H172.159V70.9091H173.634V72.9631H173.77C174.077 72.2926 174.554 71.7557 175.202 71.3523C175.855 70.9432 176.662 70.7386 177.622 70.7386C178.503 70.7386 179.276 70.9233 179.94 71.2926C180.611 71.6562 181.131 72.1932 181.5 72.9034C181.875 73.6136 182.062 74.4858 182.062 75.5199V84H180.545V75.6136C180.545 74.5398 180.244 73.6903 179.642 73.0653C179.045 72.4403 178.244 72.1278 177.239 72.1278C176.551 72.1278 175.94 72.2756 175.406 72.571C174.872 72.8665 174.449 73.2926 174.136 73.8494C173.83 74.4006 173.676 75.0568 173.676 75.8182Z" fill="black"/>
<path d="M708.318 84V66.5455H709.912V82.5682H718.23V84H708.318ZM726.591 84.2727C725.46 84.2727 724.46 83.9858 723.591 83.4119C722.727 82.8381 722.051 82.0455 721.562 81.0341C721.074 80.017 720.83 78.8437 720.83 77.5142C720.83 76.1733 721.074 74.9943 721.562 73.9773C722.051 72.9545 722.727 72.1591 723.591 71.5909C724.46 71.017 725.46 70.7301 726.591 70.7301C727.722 70.7301 728.719 71.017 729.582 71.5909C730.446 72.1648 731.122 72.9602 731.611 73.9773C732.105 74.9943 732.352 76.1733 732.352 77.5142C732.352 78.8437 732.108 80.017 731.619 81.0341C731.131 82.0455 730.452 82.8381 729.582 83.4119C728.719 83.9858 727.722 84.2727 726.591 84.2727ZM726.591 82.8835C727.5 82.8835 728.27 82.6392 728.901 82.1506C729.531 81.6619 730.009 81.0114 730.332 80.1989C730.662 79.3864 730.827 78.4915 730.827 77.5142C730.827 76.5369 730.662 75.6392 730.332 74.821C730.009 74.0028 729.531 73.3466 728.901 72.8523C728.27 72.358 727.5 72.1108 726.591 72.1108C725.688 72.1108 724.918 72.358 724.281 72.8523C723.651 73.3466 723.17 74.0028 722.841 74.821C722.517 75.6392 722.355 76.5369 722.355 77.5142C722.355 78.4915 722.517 79.3864 722.841 80.1989C723.17 81.0114 723.651 81.6619 724.281 82.1506C724.912 82.6392 725.682 82.8835 726.591 82.8835ZM740.796 84.2727C739.626 84.2727 738.606 83.9801 737.737 83.3949C736.873 82.8097 736.202 82.0085 735.725 80.9915C735.248 79.9744 735.009 78.8153 735.009 77.5142C735.009 76.2017 735.251 75.0341 735.734 74.0114C736.222 72.9886 736.898 72.1875 737.762 71.608C738.626 71.0227 739.629 70.7301 740.771 70.7301C741.646 70.7301 742.438 70.9006 743.148 71.2415C743.859 71.5767 744.444 72.0511 744.904 72.6648C745.37 73.2727 745.663 73.983 745.782 74.7955H744.248C744.089 74.0568 743.705 73.4261 743.097 72.9034C742.495 72.375 741.728 72.1108 740.796 72.1108C739.961 72.1108 739.222 72.3381 738.58 72.7926C737.938 73.2415 737.435 73.8693 737.072 74.6761C736.714 75.4773 736.535 76.4062 736.535 77.4631C736.535 78.5256 736.711 79.4659 737.063 80.2841C737.415 81.0966 737.91 81.733 738.546 82.1932C739.188 82.6534 739.938 82.8835 740.796 82.8835C741.376 82.8835 741.904 82.7756 742.381 82.5597C742.864 82.3381 743.268 82.0256 743.592 81.6222C743.921 81.2187 744.143 80.7386 744.256 80.1818H745.79C745.677 80.9716 745.396 81.6761 744.947 82.2955C744.504 82.9091 743.927 83.392 743.217 83.7443C742.512 84.0966 741.705 84.2727 740.796 84.2727ZM752.698 84.2983C751.908 84.2983 751.187 84.1449 750.533 83.8381C749.88 83.5256 749.36 83.0767 748.974 82.4915C748.587 81.9006 748.394 81.1847 748.394 80.3438C748.394 79.696 748.516 79.1506 748.761 78.7074C749.005 78.2642 749.352 77.9006 749.8 77.6165C750.249 77.3324 750.781 77.108 751.394 76.9432C752.008 76.7784 752.684 76.6506 753.423 76.5597C754.156 76.4687 754.775 76.3892 755.281 76.321C755.792 76.2528 756.181 76.1449 756.448 75.9972C756.715 75.8494 756.849 75.6108 756.849 75.2812V74.9744C756.849 74.0824 756.582 73.3807 756.048 72.8693C755.519 72.3523 754.758 72.0938 753.763 72.0938C752.82 72.0938 752.05 72.3011 751.454 72.7159C750.863 73.1307 750.448 73.6193 750.21 74.1818L748.769 73.6619C749.065 72.946 749.474 72.375 749.996 71.9489C750.519 71.517 751.104 71.2074 751.752 71.0199C752.4 70.8267 753.056 70.7301 753.721 70.7301C754.221 70.7301 754.741 70.7955 755.281 70.9261C755.826 71.0568 756.332 71.2841 756.798 71.608C757.263 71.9261 757.641 72.3722 757.931 72.946C758.221 73.5142 758.366 74.2358 758.366 75.1108V84H756.849V81.929H756.755C756.573 82.3153 756.303 82.6903 755.945 83.054C755.587 83.4176 755.138 83.7159 754.599 83.9489C754.059 84.1818 753.425 84.2983 752.698 84.2983ZM752.903 82.9091C753.71 82.9091 754.408 82.7301 754.999 82.3722C755.59 82.0142 756.045 81.5398 756.363 80.9489C756.687 80.3523 756.849 79.696 756.849 78.9801V77.0881C756.735 77.196 756.545 77.2926 756.278 77.3778C756.016 77.4631 755.712 77.5398 755.366 77.608C755.025 77.6705 754.684 77.7244 754.343 77.7699C754.002 77.8153 753.695 77.8551 753.423 77.8892C752.684 77.9801 752.053 78.1222 751.531 78.3153C751.008 78.5085 750.607 78.7756 750.329 79.1165C750.05 79.4517 749.911 79.8835 749.911 80.4119C749.911 81.2074 750.195 81.8239 750.763 82.2614C751.332 82.6932 752.045 82.9091 752.903 82.9091ZM767.558 70.9091V72.2301H761.31V70.9091H767.558ZM763.262 67.7727H764.788V80.5824C764.788 81.1278 764.881 81.5568 765.069 81.8693C765.256 82.1761 765.501 82.3949 765.802 82.5256C766.103 82.6506 766.424 82.7131 766.765 82.7131C766.964 82.7131 767.134 82.7017 767.276 82.679C767.418 82.6506 767.543 82.6222 767.651 82.5938L767.975 83.9659C767.827 84.0227 767.646 84.0739 767.43 84.1193C767.214 84.1705 766.947 84.196 766.629 84.196C766.072 84.196 765.535 84.0739 765.018 83.8295C764.506 83.5852 764.086 83.2216 763.756 82.7386C763.427 82.2557 763.262 81.6562 763.262 80.9403V67.7727ZM771.02 84V70.9091H772.545V84H771.02ZM771.795 68.6591C771.483 68.6591 771.216 68.554 770.994 68.3438C770.773 68.1278 770.662 67.8693 770.662 67.5682C770.662 67.267 770.773 67.0114 770.994 66.8011C771.216 66.5852 771.483 66.4773 771.795 66.4773C772.108 66.4773 772.375 66.5852 772.597 66.8011C772.818 67.0114 772.929 67.267 772.929 67.5682C772.929 67.8693 772.818 68.1278 772.597 68.3438C772.375 68.554 772.108 68.6591 771.795 68.6591ZM781.646 84.2727C780.515 84.2727 779.515 83.9858 778.646 83.4119C777.782 82.8381 777.106 82.0455 776.617 81.0341C776.129 80.017 775.884 78.8437 775.884 77.5142C775.884 76.1733 776.129 74.9943 776.617 73.9773C777.106 72.9545 777.782 72.1591 778.646 71.5909C779.515 71.017 780.515 70.7301 781.646 70.7301C782.776 70.7301 783.773 71.017 784.637 71.5909C785.501 72.1648 786.177 72.9602 786.665 73.9773C787.16 74.9943 787.407 76.1733 787.407 77.5142C787.407 78.8437 787.163 80.017 786.674 81.0341C786.185 82.0455 785.506 82.8381 784.637 83.4119C783.773 83.9858 782.776 84.2727 781.646 84.2727ZM781.646 82.8835C782.555 82.8835 783.325 82.6392 783.955 82.1506C784.586 81.6619 785.063 81.0114 785.387 80.1989C785.717 79.3864 785.881 78.4915 785.881 77.5142C785.881 76.5369 785.717 75.6392 785.387 74.821C785.063 74.0028 784.586 73.3466 783.955 72.8523C783.325 72.358 782.555 72.1108 781.646 72.1108C780.742 72.1108 779.972 72.358 779.336 72.8523C778.705 73.3466 778.225 74.0028 777.896 74.821C777.572 75.6392 777.41 76.5369 777.41 77.5142C777.41 78.4915 777.572 79.3864 777.896 80.1989C778.225 81.0114 778.705 81.6619 779.336 82.1506C779.967 82.6392 780.737 82.8835 781.646 82.8835ZM792.254 75.8182V84H790.737V70.9091H792.212V72.9631H792.348C792.655 72.2926 793.132 71.7557 793.78 71.3523C794.433 70.9432 795.24 70.7386 796.2 70.7386C797.081 70.7386 797.854 70.9233 798.518 71.2926C799.189 71.6562 799.709 72.1932 800.078 72.9034C800.453 73.6136 800.641 74.4858 800.641 75.5199V84H799.124V75.6136C799.124 74.5398 798.822 73.6903 798.22 73.0653C797.624 72.4403 796.822 72.1278 795.817 72.1278C795.129 72.1278 794.518 72.2756 793.984 72.571C793.45 72.8665 793.027 73.2926 792.714 73.8494C792.408 74.4006 792.254 75.0568 792.254 75.8182Z" fill="black"/>
<path d="M24.9886 122H23.3864C23.267 121.403 23.0511 120.852 22.7386 120.347C22.4318 119.835 22.0455 119.389 21.5795 119.009C21.1136 118.628 20.5852 118.332 19.9943 118.122C19.4034 117.912 18.7642 117.807 18.0767 117.807C16.9744 117.807 15.9688 118.094 15.0597 118.668C14.1563 119.241 13.4318 120.085 12.8864 121.199C12.3466 122.307 12.0767 123.665 12.0767 125.273C12.0767 126.892 12.3466 128.256 12.8864 129.364C13.4318 130.472 14.1563 131.312 15.0597 131.886C15.9688 132.455 16.9744 132.739 18.0767 132.739C18.7642 132.739 19.4034 132.634 19.9943 132.423C20.5852 132.213 21.1136 131.92 21.5795 131.545C22.0455 131.165 22.4318 130.719 22.7386 130.207C23.0511 129.696 23.267 129.142 23.3864 128.545H24.9886C24.8466 129.347 24.5795 130.094 24.1875 130.787C23.8011 131.474 23.3068 132.077 22.7045 132.594C22.108 133.111 21.4205 133.514 20.642 133.804C19.8636 134.094 19.0085 134.239 18.0767 134.239C16.6108 134.239 15.3097 133.872 14.1733 133.139C13.0369 132.401 12.1449 131.361 11.4972 130.02C10.8551 128.679 10.5341 127.097 10.5341 125.273C10.5341 123.449 10.8551 121.866 11.4972 120.526C12.1449 119.185 13.0369 118.148 14.1733 117.415C15.3097 116.676 16.6108 116.307 18.0767 116.307C19.0085 116.307 19.8636 116.452 20.642 116.741C21.4205 117.026 22.108 117.429 22.7045 117.952C23.3068 118.469 23.8011 119.071 24.1875 119.759C24.5795 120.446 24.8466 121.193 24.9886 122ZM29.9339 125.818V134H28.4169V116.545H29.9339V122.963H30.0703C30.3771 122.287 30.8516 121.747 31.4936 121.344C32.1413 120.94 32.9595 120.739 33.9482 120.739C34.8345 120.739 35.6129 120.92 36.2834 121.284C36.9538 121.648 37.4766 122.185 37.8516 122.895C38.2266 123.605 38.4141 124.48 38.4141 125.52V134H36.8885V125.614C36.8885 124.534 36.5874 123.685 35.9851 123.065C35.3885 122.44 34.5817 122.128 33.5646 122.128C32.8658 122.128 32.2436 122.276 31.6982 122.571C31.1527 122.866 30.7209 123.293 30.4027 123.849C30.0902 124.401 29.9339 125.057 29.9339 125.818ZM47.7017 134.273C46.4801 134.273 45.4233 133.989 44.5312 133.42C43.6392 132.847 42.9489 132.054 42.4602 131.043C41.9773 130.026 41.7358 128.855 41.7358 127.531C41.7358 126.213 41.9773 125.043 42.4602 124.02C42.9489 122.991 43.6222 122.187 44.4801 121.608C45.3438 121.023 46.3409 120.73 47.4716 120.73C48.1818 120.73 48.8665 120.861 49.5256 121.122C50.1847 121.378 50.7756 121.773 51.2983 122.307C51.8267 122.835 52.2443 123.503 52.5511 124.31C52.858 125.111 53.0114 126.06 53.0114 127.156V127.906H42.7841V126.568H51.4602C51.4602 125.727 51.2898 124.972 50.9489 124.301C50.6136 123.625 50.1449 123.091 49.5426 122.699C48.946 122.307 48.2557 122.111 47.4716 122.111C46.642 122.111 45.9119 122.332 45.2812 122.776C44.6506 123.219 44.1563 123.804 43.7983 124.531C43.446 125.259 43.267 126.054 43.2614 126.918V127.719C43.2614 128.759 43.4403 129.668 43.7983 130.446C44.1619 131.219 44.6761 131.818 45.3409 132.244C46.0057 132.67 46.7926 132.884 47.7017 132.884C48.321 132.884 48.8636 132.787 49.3295 132.594C49.8011 132.401 50.196 132.142 50.5142 131.818C50.8381 131.489 51.0824 131.128 51.2472 130.736L52.6875 131.205C52.4886 131.756 52.1619 132.264 51.7074 132.73C51.2585 133.196 50.696 133.571 50.0199 133.855C49.3494 134.134 48.5767 134.273 47.7017 134.273ZM61.468 134.273C60.2976 134.273 59.2777 133.98 58.4084 133.395C57.5447 132.81 56.8743 132.009 56.397 130.991C55.9197 129.974 55.6811 128.815 55.6811 127.514C55.6811 126.202 55.9226 125.034 56.4055 124.011C56.8942 122.989 57.5703 122.187 58.4339 121.608C59.2976 121.023 60.3004 120.73 61.4425 120.73C62.3175 120.73 63.1101 120.901 63.8203 121.241C64.5305 121.577 65.1158 122.051 65.576 122.665C66.0419 123.273 66.3345 123.983 66.4538 124.795H64.9197C64.7607 124.057 64.3771 123.426 63.7692 122.903C63.1669 122.375 62.3999 122.111 61.468 122.111C60.6328 122.111 59.8942 122.338 59.2521 122.793C58.6101 123.241 58.1072 123.869 57.7436 124.676C57.3857 125.477 57.2067 126.406 57.2067 127.463C57.2067 128.526 57.3828 129.466 57.7351 130.284C58.0874 131.097 58.5817 131.733 59.218 132.193C59.8601 132.653 60.6101 132.884 61.468 132.884C62.0476 132.884 62.576 132.776 63.0533 132.56C63.5362 132.338 63.9396 132.026 64.2635 131.622C64.593 131.219 64.8146 130.739 64.9283 130.182H66.4624C66.3487 130.972 66.0675 131.676 65.6186 132.295C65.1754 132.909 64.5987 133.392 63.8885 133.744C63.1839 134.097 62.3771 134.273 61.468 134.273ZM71.0945 129.057L71.0774 127.071H71.4183L77.5547 120.909H79.4723L73.4126 126.977L73.2763 127.003L71.0945 129.057ZM69.7138 134V116.545H71.2308V134H69.7138ZM77.87 134L72.5518 127.276L73.6428 126.227L79.8132 134H77.87ZM88.2869 125.801V127.233H81.0256V125.801H88.2869ZM92.1136 134V120.909H93.6392V134H92.1136ZM92.8892 118.659C92.5767 118.659 92.3097 118.554 92.0881 118.344C91.8665 118.128 91.7557 117.869 91.7557 117.568C91.7557 117.267 91.8665 117.011 92.0881 116.801C92.3097 116.585 92.5767 116.477 92.8892 116.477C93.2017 116.477 93.4688 116.585 93.6903 116.801C93.9119 117.011 94.0227 117.267 94.0227 117.568C94.0227 117.869 93.9119 118.128 93.6903 118.344C93.4688 118.554 93.2017 118.659 92.8892 118.659ZM99.1683 125.818V134H97.6513V120.909H99.1257V122.963H99.2621C99.5689 122.293 100.046 121.756 100.694 121.352C101.347 120.943 102.154 120.739 103.114 120.739C103.995 120.739 104.768 120.923 105.433 121.293C106.103 121.656 106.623 122.193 106.992 122.903C107.367 123.614 107.555 124.486 107.555 125.52V134H106.038V125.614C106.038 124.54 105.737 123.69 105.134 123.065C104.538 122.44 103.737 122.128 102.731 122.128C102.043 122.128 101.433 122.276 100.898 122.571C100.364 122.866 99.9411 123.293 99.6286 123.849C99.3217 124.401 99.1683 125.057 99.1683 125.818Z" fill="black"/>
<path d="M708.344 116.545L713.798 131.929H713.952L719.406 116.545H721.077L714.727 134H713.023L706.673 116.545H708.344ZM726.19 134.298C725.401 134.298 724.679 134.145 724.026 133.838C723.372 133.526 722.852 133.077 722.466 132.491C722.08 131.901 721.886 131.185 721.886 130.344C721.886 129.696 722.009 129.151 722.253 128.707C722.497 128.264 722.844 127.901 723.293 127.616C723.741 127.332 724.273 127.108 724.886 126.943C725.5 126.778 726.176 126.651 726.915 126.56C727.648 126.469 728.267 126.389 728.773 126.321C729.284 126.253 729.673 126.145 729.94 125.997C730.207 125.849 730.341 125.611 730.341 125.281V124.974C730.341 124.082 730.074 123.381 729.54 122.869C729.011 122.352 728.25 122.094 727.256 122.094C726.312 122.094 725.543 122.301 724.946 122.716C724.355 123.131 723.94 123.619 723.702 124.182L722.261 123.662C722.557 122.946 722.966 122.375 723.489 121.949C724.011 121.517 724.597 121.207 725.244 121.02C725.892 120.827 726.548 120.73 727.213 120.73C727.713 120.73 728.233 120.795 728.773 120.926C729.318 121.057 729.824 121.284 730.29 121.608C730.756 121.926 731.134 122.372 731.423 122.946C731.713 123.514 731.858 124.236 731.858 125.111V134H730.341V131.929H730.247C730.065 132.315 729.795 132.69 729.438 133.054C729.08 133.418 728.631 133.716 728.091 133.949C727.551 134.182 726.918 134.298 726.19 134.298ZM726.395 132.909C727.202 132.909 727.901 132.73 728.491 132.372C729.082 132.014 729.537 131.54 729.855 130.949C730.179 130.352 730.341 129.696 730.341 128.98V127.088C730.227 127.196 730.037 127.293 729.77 127.378C729.509 127.463 729.205 127.54 728.858 127.608C728.517 127.67 728.176 127.724 727.835 127.77C727.494 127.815 727.188 127.855 726.915 127.889C726.176 127.98 725.545 128.122 725.023 128.315C724.5 128.509 724.099 128.776 723.821 129.116C723.543 129.452 723.403 129.884 723.403 130.412C723.403 131.207 723.688 131.824 724.256 132.261C724.824 132.693 725.537 132.909 726.395 132.909ZM737.411 116.545V134H735.893V116.545H737.411ZM749.743 128.997V120.909H751.26V134H749.743V131.827H749.624C749.317 132.497 748.831 133.057 748.166 133.506C747.501 133.949 746.689 134.17 745.729 134.17C744.893 134.17 744.152 133.989 743.504 133.625C742.857 133.256 742.348 132.716 741.979 132.006C741.609 131.295 741.425 130.423 741.425 129.389V120.909H742.942V129.295C742.942 130.318 743.243 131.142 743.845 131.767C744.447 132.386 745.22 132.696 746.163 132.696C746.754 132.696 747.322 132.554 747.868 132.27C748.413 131.986 748.862 131.571 749.214 131.026C749.567 130.474 749.743 129.798 749.743 128.997ZM760.569 134.273C759.347 134.273 758.29 133.989 757.398 133.42C756.506 132.847 755.816 132.054 755.327 131.043C754.844 130.026 754.603 128.855 754.603 127.531C754.603 126.213 754.844 125.043 755.327 124.02C755.816 122.991 756.489 122.187 757.347 121.608C758.211 121.023 759.208 120.73 760.339 120.73C761.049 120.73 761.734 120.861 762.393 121.122C763.052 121.378 763.643 121.773 764.165 122.307C764.694 122.835 765.112 123.503 765.418 124.31C765.725 125.111 765.879 126.06 765.879 127.156V127.906H755.651V126.568H764.327C764.327 125.727 764.157 124.972 763.816 124.301C763.481 123.625 763.012 123.091 762.41 122.699C761.813 122.307 761.123 122.111 760.339 122.111C759.509 122.111 758.779 122.332 758.148 122.776C757.518 123.219 757.023 123.804 756.665 124.531C756.313 125.259 756.134 126.054 756.129 126.918V127.719C756.129 128.759 756.308 129.668 756.665 130.446C757.029 131.219 757.543 131.818 758.208 132.244C758.873 132.67 759.66 132.884 760.569 132.884C761.188 132.884 761.731 132.787 762.197 132.594C762.668 132.401 763.063 132.142 763.381 131.818C763.705 131.489 763.95 131.128 764.114 130.736L765.555 131.205C765.356 131.756 765.029 132.264 764.575 132.73C764.126 133.196 763.563 133.571 762.887 133.855C762.217 134.134 761.444 134.273 760.569 134.273Z" fill="black"/>
<rect x="289.5" y="79.5" width="193.303" height="4" rx="2" fill="white" stroke="#C8C8C8"/>
<rect x="289.5" y="79.5" width="124" height="4" rx="2" fill="#4353FF" stroke="#C8C8C8"/>
<rect x="289.5" y="29.5" width="193.303" height="4" rx="2" fill="white" stroke="#C8C8C8"/>
<rect x="289.5" y="29.5" width="176.496" height="4" rx="2" fill="#4353FF" stroke="#C8C8C8"/>
<rect x="289.5" y="129.5" width="193.303" height="4" rx="2" fill="white" stroke="#C8C8C8"/>
<rect x="289.5" y="129.5" width="157" height="4" rx="2" fill="#4353FF" stroke="#C8C8C8"/>
<rect x="904.5" y="79.5" width="193.303" height="4" rx="2" fill="white" stroke="#C8C8C8"/>
<rect x="904.5" y="79.5" width="149" height="4" rx="2" fill="#4353FF" stroke="#C8C8C8"/>
<rect x="904.5" y="29.5" width="193.303" height="4" rx="2" fill="white" stroke="#C8C8C8"/>
<rect x="904.5" y="29.5" width="188" height="4" rx="2" fill="#4353FF" stroke="#C8C8C8"/>
<rect x="904.5" y="129.5" width="193.303" height="4" rx="2" fill="white" stroke="#C8C8C8"/>
<rect x="904.5" y="129.5" width="176.496" height="4" rx="2" fill="#4353FF" stroke="#C8C8C8"/>
</g>
<defs>
<clipPath id="clip0_479_6">
<rect width="1138" height="154" fill="white"/>
</clipPath>
</defs>
</svg>
